<svg width="200" height="47" viewBox="0 0 200 47" fill="none" xmlns="http://www.w3.org/2000/svg">
<g filter="url(#filter0_d_22_7)">
<path d="M16.5977 19.9883L24.2793 1.19727H31.873V2.16406C30.6895 2.17578 29.8574 2.32812 29.377 2.62109C28.8965 2.91406 28.6152 3.33594 28.5332 3.88672C28.4512 4.4375 28.4102 5.45117 28.4102 6.92773V22.1152C28.4102 22.8887 28.5098 23.4746 28.709 23.873C28.9199 24.2715 29.2539 24.5527 29.7109 24.7168C30.168 24.8691 30.8887 24.9746 31.873 25.0332V26H20.5352V25.0332C21.6602 25.0215 22.4746 24.8809 22.9785 24.6113C23.4824 24.3418 23.7812 23.9844 23.875 23.5391C23.9688 23.082 24.0156 22.332 24.0156 21.2891V4.32617L15.2793 26H14.2598L5.62891 5.01172V19.4082C5.62891 21.0254 5.93359 22.291 6.54297 23.2051C7.16406 24.1074 8.18945 24.7168 9.61914 25.0332V26H0.724609V25.0332C1.97852 24.9043 2.94531 24.418 3.625 23.5742C4.30469 22.7188 4.64453 21.5234 4.64453 19.9883V3.67578C4.16406 3.14844 3.58984 2.75586 2.92188 2.49805C2.25391 2.24023 1.52148 2.12891 0.724609 2.16406V1.19727H8.75781L16.5977 19.9883ZM25.7207 21.9395V4.97656C25.7207 3.59375 25.8262 2.65625 26.0371 2.16406C25.5684 2.19922 25.2344 2.33398 25.0352 2.56836C24.8359 2.79102 24.7129 3.10742 24.666 3.51758C24.6191 3.91602 24.5957 4.56055 24.5957 5.45117V22.3965C24.5957 23.2402 24.5078 23.8203 24.332 24.1367C24.168 24.4414 23.8223 24.7402 23.2949 25.0332H23.9102C24.7188 25.0332 25.2227 24.8047 25.4219 24.3477C25.6211 23.8789 25.7207 23.0762 25.7207 21.9395ZM4.11719 2.16406H3.4668C4.19336 2.44531 4.76172 2.83789 5.17188 3.3418C5.59375 3.83398 6.02148 4.60742 6.45508 5.66211L14.5938 25.0332C14.8516 24.5645 14.9805 24.1543 14.9805 23.8027C14.9805 23.4746 14.8516 23.0059 14.5938 22.3965L7.59766 5.41602C7.16406 4.30273 6.70117 3.48242 6.20898 2.95508C5.72852 2.42773 5.03125 2.16406 4.11719 2.16406ZM2.74609 25.0332H6.45508C6.0332 24.8105 5.6875 24.5059 5.41797 24.1191C5.16016 23.7207 4.9668 23.2578 4.83789 22.7305C4.67383 23.2109 4.41602 23.6387 4.06445 24.0137C3.72461 24.377 3.28516 24.7168 2.74609 25.0332ZM44.7754 10.6367H50.8398V11.5332C50.2656 11.7793 49.7793 12.084 49.3809 12.4473C48.9824 12.7988 48.6426 13.2031 48.3613 13.6602C48.0918 14.1055 47.793 14.6914 47.4648 15.418C47.1484 16.1328 46.832 16.9004 46.5156 17.7207L41.7871 29.7441C40.5215 33.0137 38.834 34.6484 36.7246 34.6484C36.0332 34.6484 35.4355 34.4551 34.9316 34.0684C34.4395 33.6934 34.1934 33.2363 34.1934 32.6973C34.1934 32.2285 34.3867 31.8359 34.7734 31.5195C35.1719 31.2031 35.6406 31.0449 36.1797 31.0449C36.4375 31.0449 36.7188 31.1094 37.0234 31.2383C37.3398 31.3672 37.6445 31.4961 37.9375 31.625C38.2422 31.7656 38.5176 31.8359 38.7637 31.8359C39.5371 31.8359 40.2344 31.0332 40.8555 29.4277L41.7871 26.8965L36.4961 14.5918C36.3555 14.2285 36.1973 13.8594 36.0215 13.4844C35.8574 13.0977 35.6758 12.7637 35.4766 12.4824C35.2773 12.2012 35.0254 11.9785 34.7207 11.8145C34.416 11.6387 34.041 11.5449 33.5957 11.5332V10.6367H42.7363V11.5332C42.0098 11.5801 41.4531 11.6914 41.0664 11.8672C40.6914 12.0312 40.5039 12.3594 40.5039 12.8516C40.5039 13.3555 40.668 14.0059 40.9961 14.8027L43.9141 21.5352L46.1113 16.1387C46.4043 15.4355 46.5508 14.6797 46.5508 13.8711C46.5508 12.5586 45.959 11.7793 44.7754 11.5332V10.6367ZM48.8887 11.6035H46.1113C46.4629 11.8848 46.6973 12.1777 46.8145 12.4824C46.9434 12.7754 47.0371 13.2383 47.0957 13.8711C47.3652 13.2734 47.6289 12.8164 47.8867 12.5C48.1445 12.1719 48.4785 11.873 48.8887 11.6035ZM42.1562 26L42.7363 24.5938L38.2012 14.082C37.8613 13.2852 37.5742 12.7168 37.3398 12.377C37.1172 12.0254 36.8477 11.7852 36.5312 11.6562C36.2266 11.5273 35.8223 11.4863 35.3184 11.5332C35.7871 11.9551 36.1035 12.3301 36.2676 12.6582C36.4434 12.9863 36.7129 13.5723 37.0762 14.416L42.1562 26ZM37.3398 34.1035C36.3789 33.8809 35.8984 33.4238 35.8984 32.7324C35.8984 32.2988 36.1855 31.9414 36.7598 31.6602C36.3965 31.5547 36.1445 31.502 36.0039 31.502C35.6406 31.502 35.3418 31.6133 35.1074 31.8359C34.8848 32.0703 34.7734 32.3457 34.7734 32.6621C34.7734 33.1309 34.9961 33.5059 35.4414 33.7871C35.8867 34.0684 36.5195 34.1738 37.3398 34.1035ZM69.543 14.7324V22.1855C69.543 22.8887 69.6426 23.4336 69.8418 23.8203C70.0527 24.1953 70.334 24.4648 70.6855 24.6289C71.0371 24.7812 71.5352 24.8809 72.1797 24.9277C72.8242 24.9746 73.4219 25.0098 73.9727 25.0332V26H61.1934V25.0332C62.1426 25.0098 62.8516 24.957 63.3203 24.875C63.8008 24.793 64.1758 24.6348 64.4453 24.4004C64.7266 24.166 64.9141 23.8672 65.0078 23.5039C65.1133 23.1289 65.166 22.6191 65.166 21.9746V6.48828C65.166 5.19922 65.1074 4.28516 64.9902 3.74609C64.8848 3.20703 64.5508 2.80859 63.9883 2.55078C63.4375 2.29297 62.5059 2.16406 61.1934 2.16406V1.19727H73.2871C73.8262 1.19727 75.1152 1.29102 77.1543 1.47852C77.8105 1.53711 78.5078 1.73047 79.2461 2.05859C79.9961 2.38672 80.6934 2.83789 81.3379 3.41211C81.9941 3.97461 82.5215 4.64844 82.9199 5.43359C83.3184 6.20703 83.5176 7.05078 83.5176 7.96484C83.5176 8.98438 83.3125 9.9043 82.9023 10.7246C82.5039 11.5449 81.8828 12.2539 81.0391 12.8516C80.207 13.4492 79.1523 13.9121 77.875 14.2402C76.6094 14.5684 75.1328 14.7324 73.4453 14.7324H69.543ZM65.7285 6.27734V22.8008C65.7285 23.9141 65.3008 24.6582 64.4453 25.0332H64.9023C66.2031 25.0332 66.8535 24.418 66.8535 23.1875V7.10352C66.8535 5.66211 66.8418 4.71875 66.8184 4.27344C66.8066 3.82812 66.7305 3.44727 66.5898 3.13086C66.4609 2.81445 66.2207 2.58594 65.8691 2.44531C65.5293 2.29297 65.002 2.1875 64.2871 2.12891C64.7559 2.35156 65.084 2.60352 65.2715 2.88477C65.459 3.16602 65.582 3.56445 65.6406 4.08008C65.6992 4.5957 65.7285 5.32812 65.7285 6.27734ZM69.543 13.7656H72.0039C73.4922 13.7656 74.7285 13.5898 75.7129 13.2383C76.6973 12.875 77.4531 12.2715 77.9805 11.4277C78.5078 10.5723 78.7715 9.42969 78.7715 8C78.7715 5.85547 78.0508 4.25 76.6094 3.18359C76.0352 2.76172 75.4551 2.48633 74.8691 2.35742C74.2832 2.22852 73.5566 2.16406 72.6895 2.16406C71.6934 2.16406 70.9727 2.30469 70.5273 2.58594C70.0938 2.86719 69.8184 3.28906 69.7012 3.85156C69.5957 4.41406 69.543 5.24609 69.543 6.34766V13.7656ZM76.2754 13.5723C77.6816 13.3613 78.7305 12.8047 79.4219 11.9023C80.1133 11 80.459 9.72266 80.459 8.07031C80.459 6.32422 80.1074 5.01758 79.4043 4.15039C78.7012 3.27148 77.6465 2.68555 76.2402 2.39258C76.9082 2.73242 77.4766 3.17773 77.9453 3.72852C78.4141 4.2793 78.7656 4.92383 79 5.66211C79.2344 6.40039 79.3516 7.20312 79.3516 8.07031C79.3516 10.8594 78.3262 12.6934 76.2754 13.5723ZM86.0488 18.4414C86.0488 16.9414 86.4004 15.5703 87.1035 14.3281C87.8184 13.0859 88.7852 12.1133 90.0039 11.4102C91.2344 10.6953 92.5938 10.3379 94.082 10.3379C95.5352 10.3379 96.8594 10.6836 98.0547 11.375C99.2617 12.0664 100.211 13.0215 100.902 14.2402C101.594 15.459 101.939 16.8125 101.939 18.3008C101.939 19.4375 101.729 20.5156 101.307 21.5352C100.896 22.543 100.322 23.416 99.584 24.1543C98.8574 24.8809 98.0195 25.4434 97.0703 25.8418C96.1211 26.2402 95.1016 26.4395 94.0117 26.4395C92.5469 26.4395 91.2051 26.1055 89.9863 25.4375C88.7793 24.7695 87.8184 23.832 87.1035 22.625C86.4004 21.4062 86.0488 20.0117 86.0488 18.4414ZM92.2891 25.7539C90.7656 24.8281 89.623 23.7324 88.8613 22.4668C88.0996 21.2012 87.7188 19.8125 87.7188 18.3008C87.7188 17.1523 87.9004 16.1445 88.2637 15.2773C88.627 14.4102 89.1016 13.666 89.6875 13.0449C90.2852 12.4121 91.0293 11.7617 91.9199 11.0938C90.7363 11.5156 89.7461 12.1074 88.9492 12.8691C88.1523 13.6309 87.5664 14.5039 87.1914 15.4883C86.8164 16.4609 86.6289 17.4922 86.6289 18.582C86.6289 19.3789 86.752 20.1641 86.998 20.9375C87.2441 21.7109 87.6016 22.4082 88.0703 23.0293C88.5508 23.6504 89.1426 24.1953 89.8457 24.6641C90.5488 25.1328 91.3633 25.4961 92.2891 25.7539ZM90.4082 17.4395C90.4082 19.9355 90.7715 21.8984 91.498 23.3281C92.2246 24.7461 93.168 25.4551 94.3281 25.4551C94.9141 25.4551 95.459 25.2148 95.9629 24.7344C96.4668 24.2422 96.8652 23.5215 97.1582 22.5723C97.4629 21.6113 97.6152 20.4395 97.6152 19.0566C97.6152 16.6191 97.2871 14.7207 96.6309 13.3613C95.9863 11.9902 95.0898 11.3047 93.9414 11.3047C92.8281 11.3047 91.9609 11.8203 91.3398 12.8516C90.7188 13.8711 90.4082 15.4004 90.4082 17.4395ZM96.6133 24.8398C97.4922 24.3594 98.166 23.5977 98.6348 22.5547C99.1035 21.5117 99.3379 20.2344 99.3379 18.7227C99.3379 14.9961 98.1895 12.5645 95.8926 11.4277C96.7129 12.248 97.2988 13.2559 97.6504 14.4512C98.0137 15.6465 98.1953 17.252 98.1953 19.2676C98.1953 20.5449 98.0605 21.6172 97.791 22.4844C97.5332 23.3398 97.1406 24.125 96.6133 24.8398ZM110.289 10.3379V13.0449C111.191 12.0254 111.883 11.3223 112.363 10.9355C112.844 10.5371 113.424 10.3379 114.104 10.3379C114.689 10.3379 115.182 10.5488 115.58 10.9707C115.99 11.3809 116.195 11.9023 116.195 12.5352C116.195 13.1914 116.014 13.7422 115.65 14.1875C115.287 14.6211 114.83 14.8379 114.279 14.8379C114.033 14.8379 113.764 14.791 113.471 14.6973C113.178 14.6035 112.932 14.4805 112.732 14.3281C112.615 14.2344 112.492 14.1348 112.363 14.0293C112.234 13.9238 112.117 13.8418 112.012 13.7832C111.918 13.7246 111.812 13.6953 111.695 13.6953C111.473 13.6953 111.25 13.7832 111.027 13.959C110.816 14.123 110.57 14.3574 110.289 14.6621V23.1523C110.289 23.7617 110.371 24.1953 110.535 24.4531C110.711 24.7109 110.975 24.875 111.326 24.9453C111.689 25.0039 112.316 25.0332 113.207 25.0332V26H103.768V25.0332H104.242C105.602 25.0332 106.281 24.4941 106.281 23.416V15.5234C106.281 14.1758 105.443 13.25 103.768 12.7461V12.1484L109.428 10.3379H110.289ZM106.861 15.5234V23.5215C106.861 23.9199 106.797 24.2188 106.668 24.418C106.539 24.6055 106.352 24.8105 106.105 25.0332C106.773 24.9746 107.254 24.7988 107.547 24.5059C107.84 24.2012 107.986 23.6797 107.986 22.9414V15.5234C107.986 14.5156 107.811 13.7832 107.459 13.3262C107.107 12.8691 106.551 12.6406 105.789 12.6406C105.73 12.6406 105.602 12.6523 105.402 12.6758C105.203 12.6992 105.068 12.7109 104.998 12.7109C106.24 13.25 106.861 14.1875 106.861 15.5234ZM111.467 13.0449C111.783 13.0449 112.1 13.1504 112.416 13.3613C113.143 13.9355 113.752 14.2227 114.244 14.2227C114.854 14.2227 115.299 13.8301 115.58 13.0449C115.252 13.209 115.012 13.291 114.859 13.291C114.508 13.291 114.156 13.1738 113.805 12.9395C113.359 12.5762 112.99 12.3945 112.697 12.3945C112.416 12.3945 112.006 12.6113 111.467 13.0449ZM119.254 21.7461V11.7441H117.373V10.8477C118.404 10.0742 119.178 9.48242 119.693 9.07227C120.209 8.65039 120.695 8.18164 121.152 7.66602C121.621 7.15039 122.02 6.61133 122.348 6.04883H123.279V10.6367H127.639V11.7441H123.279V22.2559C123.279 23.0293 123.373 23.6094 123.561 23.9961C123.748 24.3711 124.064 24.5586 124.51 24.5586C124.932 24.5586 125.318 24.4414 125.67 24.207C126.033 23.9727 126.473 23.6094 126.988 23.1172L127.639 23.8027C126.76 24.7051 125.951 25.3789 125.213 25.8242C124.486 26.2578 123.648 26.4746 122.699 26.4746C121.797 26.4746 121.094 26.2754 120.59 25.877C120.086 25.4785 119.734 24.9395 119.535 24.2598C119.348 23.5684 119.254 22.7305 119.254 21.7461ZM120.977 8.75586L119.816 9.72266V21.3945C119.816 22.9531 120.016 24.0898 120.414 24.8047C120.824 25.5078 121.551 25.8594 122.594 25.8594C123.145 25.8594 123.695 25.7715 124.246 25.5957C123.18 25.6309 122.365 25.3848 121.803 24.8574C121.252 24.3184 120.977 23.4277 120.977 22.1855V8.75586ZM130.891 23.4863V11.8496H128.395V10.6367H130.891V8.24609C130.891 6.71094 131.16 5.38086 131.699 4.25586C132.25 3.11914 133.035 2.24609 134.055 1.63672C135.074 1.02734 136.264 0.722656 137.623 0.722656C138.432 0.722656 139.129 0.845703 139.715 1.0918C140.312 1.33789 140.752 1.66602 141.033 2.07617C141.326 2.47461 141.473 2.91406 141.473 3.39453C141.473 3.93359 141.279 4.41992 140.893 4.85352C140.518 5.27539 140.049 5.48633 139.486 5.48633C138.959 5.48633 138.52 5.28711 138.168 4.88867C137.828 4.47852 137.658 4.03906 137.658 3.57031C137.67 3.45312 137.676 3.35352 137.676 3.27148C137.688 3.17773 137.693 3.04883 137.693 2.88477C137.693 2.52148 137.582 2.23438 137.359 2.02344C137.137 1.8125 136.861 1.70703 136.533 1.70703C136.029 1.70703 135.631 1.95312 135.338 2.44531C135.057 2.92578 134.916 3.62305 134.916 4.53711V10.6367H138.186V11.8496H134.916V23.2227C134.916 23.6914 134.98 24.0605 135.109 24.3301C135.238 24.5879 135.467 24.7695 135.795 24.875C136.135 24.9805 136.586 25.0332 137.148 25.0332H137.729V26H128.553V25.0332C129.326 25.0098 129.906 24.8926 130.293 24.6816C130.691 24.459 130.891 24.0605 130.891 23.4863ZM131.453 8.24609V23.3633C131.453 24.1367 131.143 24.7402 130.521 25.1738C131.916 25.1738 132.613 24.5703 132.613 23.3633V8.28125C132.613 6.89844 132.76 5.73242 133.053 4.7832C133.357 3.82227 133.82 2.89062 134.441 1.98828C133.445 2.67969 132.695 3.5293 132.191 4.53711C131.699 5.54492 131.453 6.78125 131.453 8.24609ZM137.729 1.77734C138.033 2.12891 138.197 2.49805 138.221 2.88477C138.244 3.10742 138.268 3.34766 138.291 3.60547C138.314 3.85156 138.361 4.06836 138.432 4.25586C138.502 4.44336 138.619 4.5957 138.783 4.71289C138.959 4.81836 139.193 4.87109 139.486 4.87109C140.072 4.87109 140.518 4.56055 140.822 3.93945C140.541 4.0332 140.348 4.08008 140.242 4.08008C139.809 4.08008 139.475 3.85156 139.24 3.39453C138.912 2.71484 138.689 2.30469 138.572 2.16406C138.455 2.01172 138.174 1.88281 137.729 1.77734ZM139.697 18.4414C139.697 16.9414 140.049 15.5703 140.752 14.3281C141.467 13.0859 142.434 12.1133 143.652 11.4102C144.883 10.6953 146.242 10.3379 147.73 10.3379C149.184 10.3379 150.508 10.6836 151.703 11.375C152.91 12.0664 153.859 13.0215 154.551 14.2402C155.242 15.459 155.588 16.8125 155.588 18.3008C155.588 19.4375 155.377 20.5156 154.955 21.5352C154.545 22.543 153.971 23.416 153.232 24.1543C152.506 24.8809 151.668 25.4434 150.719 25.8418C149.77 26.2402 148.75 26.4395 147.66 26.4395C146.195 26.4395 144.854 26.1055 143.635 25.4375C142.428 24.7695 141.467 23.832 140.752 22.625C140.049 21.4062 139.697 20.0117 139.697 18.4414ZM145.938 25.7539C144.414 24.8281 143.271 23.7324 142.51 22.4668C141.748 21.2012 141.367 19.8125 141.367 18.3008C141.367 17.1523 141.549 16.1445 141.912 15.2773C142.275 14.4102 142.75 13.666 143.336 13.0449C143.934 12.4121 144.678 11.7617 145.568 11.0938C144.385 11.5156 143.395 12.1074 142.598 12.8691C141.801 13.6309 141.215 14.5039 140.84 15.4883C140.465 16.4609 140.277 17.4922 140.277 18.582C140.277 19.3789 140.4 20.1641 140.646 20.9375C140.893 21.7109 141.25 22.4082 141.719 23.0293C142.199 23.6504 142.791 24.1953 143.494 24.6641C144.197 25.1328 145.012 25.4961 145.938 25.7539ZM144.057 17.4395C144.057 19.9355 144.42 21.8984 145.146 23.3281C145.873 24.7461 146.816 25.4551 147.977 25.4551C148.562 25.4551 149.107 25.2148 149.611 24.7344C150.115 24.2422 150.514 23.5215 150.807 22.5723C151.111 21.6113 151.264 20.4395 151.264 19.0566C151.264 16.6191 150.936 14.7207 150.279 13.3613C149.635 11.9902 148.738 11.3047 147.59 11.3047C146.477 11.3047 145.609 11.8203 144.988 12.8516C144.367 13.8711 144.057 15.4004 144.057 17.4395ZM150.262 24.8398C151.141 24.3594 151.814 23.5977 152.283 22.5547C152.752 21.5117 152.986 20.2344 152.986 18.7227C152.986 14.9961 151.838 12.5645 149.541 11.4277C150.361 12.248 150.947 13.2559 151.299 14.4512C151.662 15.6465 151.844 17.252 151.844 19.2676C151.844 20.5449 151.709 21.6172 151.439 22.4844C151.182 23.3398 150.789 24.125 150.262 24.8398ZM159.648 23.2578V6.59375C159.648 5.70312 159.508 5.00586 159.227 4.50195C158.945 3.99805 158.295 3.55859 157.275 3.18359V2.49805L162.988 0.617188H163.674V22.6074C163.674 23.5215 163.773 24.1543 163.973 24.5059C164.184 24.8574 164.711 25.0332 165.555 25.0332H166.029V26H157.275V25.0332H157.697C158.389 25.0332 158.887 24.8867 159.191 24.5938C159.496 24.3008 159.648 23.8555 159.648 23.2578ZM161.371 22.5371V6.69922C161.371 5.86719 161.33 5.20508 161.248 4.71289C161.178 4.20898 160.961 3.79297 160.598 3.46484C160.246 3.125 159.678 2.95508 158.893 2.95508C158.506 2.95508 158.195 2.9668 157.961 2.99023C159.039 3.29492 159.684 3.74609 159.895 4.34375C160.117 4.94141 160.229 5.72656 160.229 6.69922V23.1523C160.229 23.9492 159.988 24.5762 159.508 25.0332C160.328 24.998 160.844 24.7754 161.055 24.3652C161.266 23.9434 161.371 23.334 161.371 22.5371ZM173.377 10.3379V23.0469C173.377 23.5859 173.43 23.9961 173.535 24.2773C173.652 24.5469 173.863 24.7344 174.168 24.8398C174.484 24.9453 174.965 25.0098 175.609 25.0332V26H167.4V25.0332C168.127 25.0098 168.631 24.8633 168.912 24.5938C169.205 24.3242 169.352 23.8438 169.352 23.1523V15.084C169.352 14.5801 169.182 14.1113 168.842 13.6777C168.502 13.2441 168.021 12.9219 167.4 12.7109V12.1484L172.656 10.3379H173.377ZM169.932 15.1367V23.4863C169.932 24.166 169.691 24.6816 169.211 25.0332C169.855 25.0332 170.324 24.8867 170.617 24.5938C170.922 24.3008 171.074 23.8203 171.074 23.1523V14.9082C171.074 14.1582 170.893 13.584 170.529 13.1855C170.166 12.7754 169.691 12.5703 169.105 12.5703C168.836 12.5703 168.619 12.582 168.455 12.6055C169.439 13.1211 169.932 13.9648 169.932 15.1367ZM171.215 1.77734C171.66 1.77734 172.076 1.88867 172.463 2.11133C172.85 2.32227 173.154 2.61523 173.377 2.99023C173.6 3.36523 173.711 3.77539 173.711 4.2207C173.711 4.66602 173.6 5.08203 173.377 5.46875C173.154 5.84375 172.85 6.14258 172.463 6.36523C172.076 6.58789 171.66 6.69922 171.215 6.69922C170.547 6.69922 169.973 6.45312 169.492 5.96094C169.012 5.46875 168.771 4.88867 168.771 4.2207C168.771 3.78711 168.877 3.38281 169.088 3.00781C169.311 2.62109 169.609 2.32227 169.984 2.11133C170.371 1.88867 170.781 1.77734 171.215 1.77734ZM171.514 2.33984C170.822 2.33984 170.289 2.50391 169.914 2.83203C169.539 3.16016 169.352 3.61133 169.352 4.18555C169.352 4.73633 169.533 5.19336 169.896 5.55664C170.26 5.9082 170.799 6.10156 171.514 6.13672C171.139 5.79688 170.863 5.49805 170.688 5.24023C170.512 4.9707 170.424 4.63086 170.424 4.2207C170.424 3.45898 170.787 2.83203 171.514 2.33984ZM177.244 18.4414C177.244 16.9414 177.596 15.5703 178.299 14.3281C179.014 13.0859 179.98 12.1133 181.199 11.4102C182.43 10.6953 183.789 10.3379 185.277 10.3379C186.73 10.3379 188.055 10.6836 189.25 11.375C190.457 12.0664 191.406 13.0215 192.098 14.2402C192.789 15.459 193.135 16.8125 193.135 18.3008C193.135 19.4375 192.924 20.5156 192.502 21.5352C192.092 22.543 191.518 23.416 190.779 24.1543C190.053 24.8809 189.215 25.4434 188.266 25.8418C187.316 26.2402 186.297 26.4395 185.207 26.4395C183.742 26.4395 182.4 26.1055 181.182 25.4375C179.975 24.7695 179.014 23.832 178.299 22.625C177.596 21.4062 177.244 20.0117 177.244 18.4414ZM183.484 25.7539C181.961 24.8281 180.818 23.7324 180.057 22.4668C179.295 21.2012 178.914 19.8125 178.914 18.3008C178.914 17.1523 179.096 16.1445 179.459 15.2773C179.822 14.4102 180.297 13.666 180.883 13.0449C181.48 12.4121 182.225 11.7617 183.115 11.0938C181.932 11.5156 180.941 12.1074 180.145 12.8691C179.348 13.6309 178.762 14.5039 178.387 15.4883C178.012 16.4609 177.824 17.4922 177.824 18.582C177.824 19.3789 177.947 20.1641 178.193 20.9375C178.439 21.7109 178.797 22.4082 179.266 23.0293C179.746 23.6504 180.338 24.1953 181.041 24.6641C181.744 25.1328 182.559 25.4961 183.484 25.7539ZM181.604 17.4395C181.604 19.9355 181.967 21.8984 182.693 23.3281C183.42 24.7461 184.363 25.4551 185.523 25.4551C186.109 25.4551 186.654 25.2148 187.158 24.7344C187.662 24.2422 188.061 23.5215 188.354 22.5723C188.658 21.6113 188.811 20.4395 188.811 19.0566C188.811 16.6191 188.482 14.7207 187.826 13.3613C187.182 11.9902 186.285 11.3047 185.137 11.3047C184.023 11.3047 183.156 11.8203 182.535 12.8516C181.914 13.8711 181.604 15.4004 181.604 17.4395ZM187.809 24.8398C188.688 24.3594 189.361 23.5977 189.83 22.5547C190.299 21.5117 190.533 20.2344 190.533 18.7227C190.533 14.9961 189.385 12.5645 187.088 11.4277C187.908 12.248 188.494 13.2559 188.846 14.4512C189.209 15.6465 189.391 17.252 189.391 19.2676C189.391 20.5449 189.256 21.6172 188.986 22.4844C188.729 23.3398 188.336 24.125 187.809 24.8398Z" fill="white"/>
</g>
<defs>
<filter id="filter0_d_22_7" x="0.724609" y="0.617188" width="198.41" height="46.0312" filterUnits="userSpaceOnUse" color-interpolation-filters="sRGB">
<feFlood flood-opacity="0" result="BackgroundImageFix"/>
<feColorMatrix in="SourceAlpha" type="matrix" values="0 0 0 0 0 0 0 0 0 0 0 0 0 0 0 0 0 0 127 0" result="hardAlpha"/>
<feOffset dx="3" dy="9"/>
<feGaussianBlur stdDeviation="1.5"/>
<feComposite in2="hardAlpha" operator="out"/>
<feColorMatrix type="matrix" values="0 0 0 0 0.0333333 0 0 0 0 0.0333333 0 0 0 0 0.0333333 0 0 0 0.25 0"/>
<feBlend mode="normal" in2="BackgroundImageFix" result="effect1_dropShadow_22_7"/>
<feBlend mode="normal" in="SourceGraphic" in2="effect1_dropShadow_22_7" result="shape"/>
</filter>
</defs>
</svg>
