<svg width="405" height="35" viewBox="0 0 405 35" fill="none" xmlns="http://www.w3.org/2000/svg">
<path d="M29.127 1.19727H37.0371V2.16406C36.1816 2.55078 35.4258 3.20117 34.7695 4.11523C34.125 5.0293 33.5039 6.33594 32.9062 8.03516L26.4902 26.4746H25.4883L18.7207 7.13867L11.9883 26.4746H11.0566L4.35938 7.13867C3.76172 5.41602 3.33984 4.28516 3.09375 3.74609C2.85938 3.20703 2.54883 2.80859 2.16211 2.55078C1.78711 2.29297 1.22461 2.16406 0.474609 2.16406V1.19727H10.8281V2.16406C10.7578 2.15234 10.6934 2.14648 10.6348 2.14648C10.5879 2.13477 10.5117 2.12891 10.4062 2.12891C8.82422 2.12891 8.0332 2.60937 8.0332 3.57031C8.0332 4.07422 8.2207 4.90039 8.5957 6.04883L13.3242 19.6719L18.1758 5.76758C17.8945 4.83008 17.6133 4.12109 17.332 3.64062C17.0508 3.14844 16.7637 2.80273 16.4707 2.60352C16.1777 2.4043 15.9258 2.29297 15.7148 2.26953C15.5156 2.23438 15.0879 2.19922 14.4316 2.16406V1.19727H25.084V2.16406C24.2402 2.1875 23.5723 2.28125 23.0801 2.44531C22.5996 2.60937 22.3594 2.96094 22.3594 3.5C22.3594 4.0625 22.6348 5.10547 23.1855 6.62891L27.7559 19.6719L31.5 8.89648C31.7344 8.26367 31.9277 7.64844 32.0801 7.05078C32.2441 6.45312 32.3262 5.9082 32.3262 5.41602C32.3262 4.36133 32.0625 3.58203 31.5352 3.07812C31.0078 2.5625 30.2051 2.25781 29.127 2.16406V1.19727ZM34.7695 2.16406H31.2891C31.8516 2.51562 32.2383 2.91406 32.4492 3.35938C32.6719 3.79297 32.8008 4.33203 32.8359 4.97656C33.082 4.37891 33.3574 3.8457 33.6621 3.37695C33.9668 2.9082 34.3359 2.50391 34.7695 2.16406ZM18.7559 5.48633L25.7344 25.3848C26.0742 24.6816 26.2441 24.1191 26.2441 23.6973C26.2441 23.4277 26.127 22.959 25.8926 22.291L19.793 4.97656C19.4766 4.10938 19.2305 3.51758 19.0547 3.20117C18.8906 2.88477 18.6445 2.63867 18.3164 2.46289C17.9883 2.27539 17.4961 2.17578 16.8398 2.16406C17.5312 2.72656 18.1699 3.83398 18.7559 5.48633ZM4.46484 5.76758L11.3027 25.4902C11.3848 25.3145 11.4551 25.1621 11.5137 25.0332C11.584 24.8926 11.6484 24.7227 11.707 24.5234C11.7773 24.3125 11.8125 24.1309 11.8125 23.9785C11.8125 23.5449 11.7129 23.0762 11.5137 22.5723L5.69531 5.76758C5.28516 4.58398 4.96289 3.76367 4.72852 3.30664C4.50586 2.84961 4.22461 2.5332 3.88477 2.35742C3.55664 2.18164 3.08789 2.11719 2.47852 2.16406C2.90039 2.44531 3.24609 2.85547 3.51562 3.39453C3.78516 3.92188 4.10156 4.71289 4.46484 5.76758ZM52.1719 21.6406L52.875 22.1855C52.3477 23.1699 51.7207 23.9785 50.9941 24.6113C50.2676 25.2441 49.4648 25.7129 48.5859 26.0176C47.7188 26.3223 46.8105 26.4746 45.8613 26.4746C44.5723 26.4746 43.3711 26.1641 42.2578 25.543C41.1562 24.9219 40.2832 24.0254 39.6387 22.8535C38.9941 21.6816 38.6719 20.3516 38.6719 18.8633C38.6719 17.6914 38.8652 16.5898 39.252 15.5586C39.6504 14.5273 40.1953 13.6191 40.8867 12.834C41.5898 12.0488 42.3984 11.4395 43.3125 11.0059C44.2383 10.5605 45.2227 10.3379 46.2656 10.3379C47.3203 10.3379 48.3223 10.5605 49.2715 11.0059C50.2324 11.4395 50.9941 12.043 51.5566 12.8164C51.9668 13.3789 52.2598 13.959 52.4355 14.5566C52.623 15.1426 52.7695 15.8516 52.875 16.6836H42.2578C42.3047 17.9023 42.5098 18.9336 42.873 19.7773C43.248 20.6211 43.7285 21.3008 44.3145 21.8164C44.9121 22.332 45.5449 22.7012 46.2129 22.9238C46.8809 23.1465 47.5195 23.2578 48.1289 23.2578C49.6055 23.2578 50.9531 22.7188 52.1719 21.6406ZM49.0605 15.5586H50.291C50.2559 14.2461 49.9863 13.2793 49.4824 12.6582C48.9785 12.0254 48.1348 11.6035 46.9512 11.3926C47.7012 11.7324 48.2402 12.1777 48.5684 12.7285C48.8965 13.2676 49.0605 14.0938 49.0605 15.207V15.5586ZM42.3633 15.5586H48.498V14.9785C48.498 14.2988 48.375 13.6953 48.1289 13.168C47.8828 12.6289 47.543 12.2188 47.1094 11.9375C46.6875 11.6445 46.2012 11.498 45.6504 11.498C44.7598 11.498 44.0039 11.8965 43.3828 12.6934C42.7617 13.4785 42.4219 14.4336 42.3633 15.5586ZM42.5215 12.0957C40.3301 13.8301 39.2344 16.1035 39.2344 18.916C39.2344 20.9551 39.8848 22.625 41.1855 23.9258C42.498 25.2148 44.0098 25.8594 45.7207 25.8594C46.7168 25.8594 47.7129 25.6602 48.709 25.2617C49.7168 24.8516 50.5664 24.248 51.2578 23.4512C50.543 23.9082 49.8105 24.2832 49.0605 24.5762C48.3223 24.8574 47.4375 24.998 46.4062 24.998C44.6602 24.998 43.2012 24.3887 42.0293 23.1699C40.8691 21.9512 40.2891 20.3633 40.2891 18.4062C40.2891 17.1641 40.4824 16.0508 40.8691 15.0664C41.2559 14.082 41.8066 13.0918 42.5215 12.0957ZM56.6719 23.2578V6.59375C56.6719 5.70312 56.5312 5.00586 56.25 4.50195C55.9688 3.99805 55.3184 3.55859 54.2988 3.18359V2.49805L60.0117 0.617188H60.6973V22.6074C60.6973 23.5215 60.7969 24.1543 60.9961 24.5059C61.207 24.8574 61.7344 25.0332 62.5781 25.0332H63.0527V26H54.2988V25.0332H54.7207C55.4121 25.0332 55.9102 24.8867 56.2148 24.5938C56.5195 24.3008 56.6719 23.8555 56.6719 23.2578ZM58.3945 22.5371V6.69922C58.3945 5.86719 58.3535 5.20508 58.2715 4.71289C58.2012 4.20898 57.9844 3.79297 57.6211 3.46484C57.2695 3.125 56.7012 2.95508 55.916 2.95508C55.5293 2.95508 55.2188 2.9668 54.9844 2.99023C56.0625 3.29492 56.707 3.74609 56.918 4.34375C57.1406 4.94141 57.252 5.72656 57.252 6.69922V23.1523C57.252 23.9492 57.0117 24.5762 56.5312 25.0332C57.3516 24.998 57.8672 24.7754 58.0781 24.3652C58.2891 23.9434 58.3945 23.334 58.3945 22.5371ZM75.0059 12.4297C75.0059 12.1133 74.8418 11.8496 74.5137 11.6387C74.1855 11.416 73.7871 11.3047 73.3184 11.3047C72.4395 11.3047 71.6426 11.5625 70.9277 12.0781C70.2129 12.582 69.6504 13.3145 69.2402 14.2754C68.8418 15.2246 68.6426 16.3027 68.6426 17.5098C68.6426 18.623 68.877 19.6367 69.3457 20.5508C69.8262 21.4531 70.4648 22.1562 71.2617 22.6602C72.0703 23.1641 72.9492 23.416 73.8984 23.416C74.6836 23.416 75.5039 23.2402 76.3594 22.8887C77.2266 22.5254 77.918 22.0625 78.4336 21.5L79.0488 22.3262C78.123 23.6621 77.0098 24.6875 75.709 25.4023C74.4199 26.1172 73.1074 26.4746 71.7715 26.4746C70.5293 26.4746 69.3398 26.1348 68.2031 25.4551C67.0781 24.7754 66.1758 23.8555 65.4961 22.6953C64.8281 21.5234 64.4941 20.2461 64.4941 18.8633C64.4941 17.7383 64.6992 16.666 65.1094 15.6465C65.5195 14.627 66.1055 13.7188 66.8672 12.9219C67.6406 12.1133 68.5547 11.4805 69.6094 11.0234C70.6641 10.5664 71.8301 10.3379 73.1074 10.3379C74.1387 10.3379 75.0762 10.4961 75.9199 10.8125C76.7637 11.1172 77.4258 11.5449 77.9062 12.0957C78.3984 12.6465 78.6445 13.25 78.6445 13.9062C78.6445 14.4805 78.4336 14.9551 78.0117 15.3301C77.5898 15.7051 77.0918 15.8926 76.5176 15.8926C75.9902 15.8926 75.5508 15.7109 75.1992 15.3477C74.8594 14.9727 74.6895 14.5742 74.6895 14.1523C74.6895 14.0703 74.7422 13.8066 74.8477 13.3613C74.9531 12.9043 75.0059 12.5938 75.0059 12.4297ZM75.2695 14.1523C75.2695 14.5273 75.4102 14.8086 75.6914 14.9961C75.9844 15.1836 76.3008 15.2773 76.6406 15.2773C76.7461 15.2773 77.0332 15.2305 77.502 15.1367C76.7754 14.9844 76.4121 14.6094 76.4121 14.0117C76.4121 13.9648 76.4355 13.8301 76.4824 13.6074C76.541 13.3848 76.5703 13.1973 76.5703 13.0449C76.5703 12.4004 76.1133 11.9082 75.1992 11.5684C75.457 11.9316 75.5859 12.2656 75.5859 12.5703C75.5859 12.7695 75.5332 13.0391 75.4277 13.3789C75.3223 13.7188 75.2695 13.9766 75.2695 14.1523ZM70.3301 11.4277C69.2051 11.8496 68.25 12.4297 67.4648 13.168C66.6914 13.9062 66.0996 14.7676 65.6895 15.752C65.2793 16.7246 65.0742 17.7148 65.0742 18.7227C65.0742 20.0938 65.4023 21.3242 66.0586 22.4141C66.7148 23.5039 67.5762 24.3535 68.6426 24.9629C69.7207 25.5605 70.8105 25.8594 71.9121 25.8594C73.5176 25.8594 75.0293 25.332 76.4473 24.2773C74.9121 24.7812 73.6758 25.0332 72.7383 25.0332C71.543 25.0332 70.4473 24.7637 69.4512 24.2246C68.4551 23.6855 67.6641 22.9355 67.0781 21.9746C66.4922 21.0137 66.1992 19.9414 66.1992 18.7578C66.1992 17.3867 66.5508 16.0742 67.2539 14.8203C67.9688 13.5547 68.9941 12.4238 70.3301 11.4277ZM80.6309 18.4414C80.6309 16.9414 80.9824 15.5703 81.6855 14.3281C82.4004 13.0859 83.3672 12.1133 84.5859 11.4102C85.8164 10.6953 87.1758 10.3379 88.6641 10.3379C90.1172 10.3379 91.4414 10.6836 92.6367 11.375C93.8438 12.0664 94.793 13.0215 95.4844 14.2402C96.1758 15.459 96.5215 16.8125 96.5215 18.3008C96.5215 19.4375 96.3105 20.5156 95.8887 21.5352C95.4785 22.543 94.9043 23.416 94.166 24.1543C93.4395 24.8809 92.6016 25.4434 91.6523 25.8418C90.7031 26.2402 89.6836 26.4395 88.5938 26.4395C87.1289 26.4395 85.7871 26.1055 84.5684 25.4375C83.3613 24.7695 82.4004 23.832 81.6855 22.625C80.9824 21.4062 80.6309 20.0117 80.6309 18.4414ZM86.8711 25.7539C85.3477 24.8281 84.2051 23.7324 83.4434 22.4668C82.6816 21.2012 82.3008 19.8125 82.3008 18.3008C82.3008 17.1523 82.4824 16.1445 82.8457 15.2773C83.209 14.4102 83.6836 13.666 84.2695 13.0449C84.8672 12.4121 85.6113 11.7617 86.502 11.0938C85.3184 11.5156 84.3281 12.1074 83.5312 12.8691C82.7344 13.6309 82.1484 14.5039 81.7734 15.4883C81.3984 16.4609 81.2109 17.4922 81.2109 18.582C81.2109 19.3789 81.334 20.1641 81.5801 20.9375C81.8262 21.7109 82.1836 22.4082 82.6523 23.0293C83.1328 23.6504 83.7246 24.1953 84.4277 24.6641C85.1309 25.1328 85.9453 25.4961 86.8711 25.7539ZM84.9902 17.4395C84.9902 19.9355 85.3535 21.8984 86.0801 23.3281C86.8066 24.7461 87.75 25.4551 88.9102 25.4551C89.4961 25.4551 90.041 25.2148 90.5449 24.7344C91.0488 24.2422 91.4473 23.5215 91.7402 22.5723C92.0449 21.6113 92.1973 20.4395 92.1973 19.0566C92.1973 16.6191 91.8691 14.7207 91.2129 13.3613C90.5684 11.9902 89.6719 11.3047 88.5234 11.3047C87.4102 11.3047 86.543 11.8203 85.9219 12.8516C85.3008 13.8711 84.9902 15.4004 84.9902 17.4395ZM91.1953 24.8398C92.0742 24.3594 92.748 23.5977 93.2168 22.5547C93.6855 21.5117 93.9199 20.2344 93.9199 18.7227C93.9199 14.9961 92.7715 12.5645 90.4746 11.4277C91.2949 12.248 91.8809 13.2559 92.2324 14.4512C92.5957 15.6465 92.7773 17.252 92.7773 19.2676C92.7773 20.5449 92.6426 21.6172 92.373 22.4844C92.1152 23.3398 91.7227 24.125 91.1953 24.8398ZM115.523 13.9414V22.9766C115.523 23.6094 115.623 24.1016 115.822 24.4531C116.021 24.8047 116.355 24.9863 116.824 24.998C117.012 24.998 117.17 25.0039 117.299 25.0156C117.428 25.0156 117.568 25.0215 117.721 25.0332V26H109.266V25.0332C110.191 25.0684 110.795 24.9336 111.076 24.6289C111.357 24.3242 111.498 23.7852 111.498 23.0117V15.2773C111.498 12.9453 110.689 11.7793 109.072 11.7793C108.475 11.7793 107.771 11.9844 106.963 12.3945C106.166 12.8047 105.469 13.3203 104.871 13.9414V23.3281C104.871 24.0195 105.053 24.4766 105.416 24.6992C105.791 24.9219 106.365 25.0332 107.139 25.0332V26H98.4902V25.0332H98.7188C99.293 25.0332 99.7324 24.9688 100.037 24.8398C100.354 24.7109 100.559 24.5 100.652 24.207C100.746 23.9023 100.793 23.5039 100.793 23.0117V15.8398C100.793 14.9961 100.652 14.3574 100.371 13.9238C100.102 13.4902 99.5098 13.0977 98.5957 12.7461V12.1484L104.291 10.3379H104.871V12.7461C105.809 11.9609 106.764 11.3633 107.736 10.9531C108.721 10.543 109.682 10.3379 110.619 10.3379C111.252 10.3379 111.867 10.4375 112.465 10.6367C113.074 10.8359 113.619 11.1348 114.1 11.5332C114.58 11.9199 114.949 12.3887 115.207 12.9395C116.203 12.084 117.193 11.4395 118.178 11.0059C119.174 10.5605 120.211 10.3379 121.289 10.3379C122.285 10.3379 123.152 10.5195 123.891 10.8828C124.629 11.2344 125.197 11.791 125.596 12.5527C126.006 13.3145 126.211 14.2461 126.211 15.3477V23.3281C126.211 23.7617 126.275 24.0957 126.404 24.3301C126.545 24.5645 126.773 24.7402 127.09 24.8574C127.418 24.9746 127.869 25.0332 128.443 25.0332V26H119.918V25.0332H120.34C120.996 25.0332 121.465 24.8984 121.746 24.6289C122.039 24.3477 122.186 23.8672 122.186 23.1875V15.6289C122.186 14.4102 122.016 13.4668 121.676 12.7988C121.348 12.1191 120.715 11.7793 119.777 11.7793C118.488 11.7793 117.07 12.5 115.523 13.9414ZM113.221 22.4668V14.6973C113.221 13.5371 112.951 12.6934 112.412 12.166C111.873 11.6387 111.1 11.4277 110.092 11.5332C110.924 11.791 111.457 12.2305 111.691 12.8516C111.938 13.4609 112.061 14.375 112.061 15.5938V23.2578C112.061 23.75 112.002 24.1309 111.885 24.4004C111.779 24.6582 111.574 24.9043 111.27 25.1387C112.148 25.0801 112.693 24.8516 112.904 24.4531C113.115 24.043 113.221 23.3809 113.221 22.4668ZM123.908 22.6074V14.8027C123.908 14.123 123.826 13.5488 123.662 13.0801C123.51 12.5996 123.193 12.2188 122.713 11.9375C122.232 11.6562 121.529 11.5215 120.604 11.5332C121.459 11.8262 122.033 12.2188 122.326 12.7109C122.619 13.1914 122.766 13.9238 122.766 14.9082V22.3262C122.766 23.2402 122.725 23.873 122.643 24.2246C122.561 24.5645 122.32 24.8809 121.922 25.1738C122.496 25.1855 122.93 25.0742 123.223 24.8398C123.527 24.6055 123.715 24.3008 123.785 23.9258C123.867 23.5508 123.908 23.1113 123.908 22.6074ZM102.568 22.7305V15.2773C102.568 14.4102 102.375 13.7598 101.988 13.3262C101.613 12.8926 101.121 12.6758 100.512 12.6758C100.383 12.6758 100.107 12.6992 99.6855 12.7461C100.4 12.9922 100.857 13.3848 101.057 13.9238C101.268 14.4512 101.373 15.2246 101.373 16.2441V22.2207C101.373 23.1582 101.332 23.7969 101.25 24.1367C101.18 24.4766 100.98 24.7754 100.652 25.0332C101.508 25.0215 102.041 24.8164 102.252 24.418C102.463 24.0195 102.568 23.457 102.568 22.7305ZM143.719 21.6406L144.422 22.1855C143.895 23.1699 143.268 23.9785 142.541 24.6113C141.814 25.2441 141.012 25.7129 140.133 26.0176C139.266 26.3223 138.357 26.4746 137.408 26.4746C136.119 26.4746 134.918 26.1641 133.805 25.543C132.703 24.9219 131.83 24.0254 131.186 22.8535C130.541 21.6816 130.219 20.3516 130.219 18.8633C130.219 17.6914 130.412 16.5898 130.799 15.5586C131.197 14.5273 131.742 13.6191 132.434 12.834C133.137 12.0488 133.945 11.4395 134.859 11.0059C135.785 10.5605 136.77 10.3379 137.812 10.3379C138.867 10.3379 139.869 10.5605 140.818 11.0059C141.779 11.4395 142.541 12.043 143.104 12.8164C143.514 13.3789 143.807 13.959 143.982 14.5566C144.17 15.1426 144.316 15.8516 144.422 16.6836H133.805C133.852 17.9023 134.057 18.9336 134.42 19.7773C134.795 20.6211 135.275 21.3008 135.861 21.8164C136.459 22.332 137.092 22.7012 137.76 22.9238C138.428 23.1465 139.066 23.2578 139.676 23.2578C141.152 23.2578 142.5 22.7188 143.719 21.6406ZM140.607 15.5586H141.838C141.803 14.2461 141.533 13.2793 141.029 12.6582C140.525 12.0254 139.682 11.6035 138.498 11.3926C139.248 11.7324 139.787 12.1777 140.115 12.7285C140.443 13.2676 140.607 14.0938 140.607 15.207V15.5586ZM133.91 15.5586H140.045V14.9785C140.045 14.2988 139.922 13.6953 139.676 13.168C139.43 12.6289 139.09 12.2188 138.656 11.9375C138.234 11.6445 137.748 11.498 137.197 11.498C136.307 11.498 135.551 11.8965 134.93 12.6934C134.309 13.4785 133.969 14.4336 133.91 15.5586ZM134.068 12.0957C131.877 13.8301 130.781 16.1035 130.781 18.916C130.781 20.9551 131.432 22.625 132.732 23.9258C134.045 25.2148 135.557 25.8594 137.268 25.8594C138.264 25.8594 139.26 25.6602 140.256 25.2617C141.264 24.8516 142.113 24.248 142.805 23.4512C142.09 23.9082 141.357 24.2832 140.607 24.5762C139.869 24.8574 138.984 24.998 137.953 24.998C136.207 24.998 134.748 24.3887 133.576 23.1699C132.416 21.9512 131.836 20.3633 131.836 18.4062C131.836 17.1641 132.029 16.0508 132.416 15.0664C132.803 14.082 133.354 13.0918 134.068 12.0957ZM156.973 21.7461V11.7441H155.092V10.8477C156.123 10.0742 156.896 9.48242 157.412 9.07227C157.928 8.65039 158.414 8.18164 158.871 7.66602C159.34 7.15039 159.738 6.61133 160.066 6.04883H160.998V10.6367H165.357V11.7441H160.998V22.2559C160.998 23.0293 161.092 23.6094 161.279 23.9961C161.467 24.3711 161.783 24.5586 162.229 24.5586C162.65 24.5586 163.037 24.4414 163.389 24.207C163.752 23.9727 164.191 23.6094 164.707 23.1172L165.357 23.8027C164.479 24.7051 163.67 25.3789 162.932 25.8242C162.205 26.2578 161.367 26.4746 160.418 26.4746C159.516 26.4746 158.812 26.2754 158.309 25.877C157.805 25.4785 157.453 24.9395 157.254 24.2598C157.066 23.5684 156.973 22.7305 156.973 21.7461ZM158.695 8.75586L157.535 9.72266V21.3945C157.535 22.9531 157.734 24.0898 158.133 24.8047C158.543 25.5078 159.27 25.8594 160.312 25.8594C160.863 25.8594 161.414 25.7715 161.965 25.5957C160.898 25.6309 160.084 25.3848 159.521 24.8574C158.971 24.3184 158.695 23.4277 158.695 22.1855V8.75586ZM166.904 18.4414C166.904 16.9414 167.256 15.5703 167.959 14.3281C168.674 13.0859 169.641 12.1133 170.859 11.4102C172.09 10.6953 173.449 10.3379 174.938 10.3379C176.391 10.3379 177.715 10.6836 178.91 11.375C180.117 12.0664 181.066 13.0215 181.758 14.2402C182.449 15.459 182.795 16.8125 182.795 18.3008C182.795 19.4375 182.584 20.5156 182.162 21.5352C181.752 22.543 181.178 23.416 180.439 24.1543C179.713 24.8809 178.875 25.4434 177.926 25.8418C176.977 26.2402 175.957 26.4395 174.867 26.4395C173.402 26.4395 172.061 26.1055 170.842 25.4375C169.635 24.7695 168.674 23.832 167.959 22.625C167.256 21.4062 166.904 20.0117 166.904 18.4414ZM173.145 25.7539C171.621 24.8281 170.479 23.7324 169.717 22.4668C168.955 21.2012 168.574 19.8125 168.574 18.3008C168.574 17.1523 168.756 16.1445 169.119 15.2773C169.482 14.4102 169.957 13.666 170.543 13.0449C171.141 12.4121 171.885 11.7617 172.775 11.0938C171.592 11.5156 170.602 12.1074 169.805 12.8691C169.008 13.6309 168.422 14.5039 168.047 15.4883C167.672 16.4609 167.484 17.4922 167.484 18.582C167.484 19.3789 167.607 20.1641 167.854 20.9375C168.1 21.7109 168.457 22.4082 168.926 23.0293C169.406 23.6504 169.998 24.1953 170.701 24.6641C171.404 25.1328 172.219 25.4961 173.145 25.7539ZM171.264 17.4395C171.264 19.9355 171.627 21.8984 172.354 23.3281C173.08 24.7461 174.023 25.4551 175.184 25.4551C175.77 25.4551 176.314 25.2148 176.818 24.7344C177.322 24.2422 177.721 23.5215 178.014 22.5723C178.318 21.6113 178.471 20.4395 178.471 19.0566C178.471 16.6191 178.143 14.7207 177.486 13.3613C176.842 11.9902 175.945 11.3047 174.797 11.3047C173.684 11.3047 172.816 11.8203 172.195 12.8516C171.574 13.8711 171.264 15.4004 171.264 17.4395ZM177.469 24.8398C178.348 24.3594 179.021 23.5977 179.49 22.5547C179.959 21.5117 180.193 20.2344 180.193 18.7227C180.193 14.9961 179.045 12.5645 176.748 11.4277C177.568 12.248 178.154 13.2559 178.506 14.4512C178.869 15.6465 179.051 17.252 179.051 19.2676C179.051 20.5449 178.916 21.6172 178.646 22.4844C178.389 23.3398 177.996 24.125 177.469 24.8398ZM209.602 19.9883L217.283 1.19727H224.877V2.16406C223.693 2.17578 222.861 2.32812 222.381 2.62109C221.9 2.91406 221.619 3.33594 221.537 3.88672C221.455 4.4375 221.414 5.45117 221.414 6.92773V22.1152C221.414 22.8887 221.514 23.4746 221.713 23.873C221.924 24.2715 222.258 24.5527 222.715 24.7168C223.172 24.8691 223.893 24.9746 224.877 25.0332V26H213.539V25.0332C214.664 25.0215 215.479 24.8809 215.982 24.6113C216.486 24.3418 216.785 23.9844 216.879 23.5391C216.973 23.082 217.02 22.332 217.02 21.2891V4.32617L208.283 26H207.264L198.633 5.01172V19.4082C198.633 21.0254 198.938 22.291 199.547 23.2051C200.168 24.1074 201.193 24.7168 202.623 25.0332V26H193.729V25.0332C194.982 24.9043 195.949 24.418 196.629 23.5742C197.309 22.7188 197.648 21.5234 197.648 19.9883V3.67578C197.168 3.14844 196.594 2.75586 195.926 2.49805C195.258 2.24023 194.525 2.12891 193.729 2.16406V1.19727H201.762L209.602 19.9883ZM218.725 21.9395V4.97656C218.725 3.59375 218.83 2.65625 219.041 2.16406C218.572 2.19922 218.238 2.33398 218.039 2.56836C217.84 2.79102 217.717 3.10742 217.67 3.51758C217.623 3.91602 217.6 4.56055 217.6 5.45117V22.3965C217.6 23.2402 217.512 23.8203 217.336 24.1367C217.172 24.4414 216.826 24.7402 216.299 25.0332H216.914C217.723 25.0332 218.227 24.8047 218.426 24.3477C218.625 23.8789 218.725 23.0762 218.725 21.9395ZM197.121 2.16406H196.471C197.197 2.44531 197.766 2.83789 198.176 3.3418C198.598 3.83398 199.025 4.60742 199.459 5.66211L207.598 25.0332C207.855 24.5645 207.984 24.1543 207.984 23.8027C207.984 23.4746 207.855 23.0059 207.598 22.3965L200.602 5.41602C200.168 4.30273 199.705 3.48242 199.213 2.95508C198.732 2.42773 198.035 2.16406 197.121 2.16406ZM195.75 25.0332H199.459C199.037 24.8105 198.691 24.5059 198.422 24.1191C198.164 23.7207 197.971 23.2578 197.842 22.7305C197.678 23.2109 197.42 23.6387 197.068 24.0137C196.729 24.377 196.289 24.7168 195.75 25.0332ZM237.779 10.6367H243.844V11.5332C243.27 11.7793 242.783 12.084 242.385 12.4473C241.986 12.7988 241.646 13.2031 241.365 13.6602C241.096 14.1055 240.797 14.6914 240.469 15.418C240.152 16.1328 239.836 16.9004 239.52 17.7207L234.791 29.7441C233.525 33.0137 231.838 34.6484 229.729 34.6484C229.037 34.6484 228.439 34.4551 227.936 34.0684C227.443 33.6934 227.197 33.2363 227.197 32.6973C227.197 32.2285 227.391 31.8359 227.777 31.5195C228.176 31.2031 228.645 31.0449 229.184 31.0449C229.441 31.0449 229.723 31.1094 230.027 31.2383C230.344 31.3672 230.648 31.4961 230.941 31.625C231.246 31.7656 231.521 31.8359 231.768 31.8359C232.541 31.8359 233.238 31.0332 233.859 29.4277L234.791 26.8965L229.5 14.5918C229.359 14.2285 229.201 13.8594 229.025 13.4844C228.861 13.0977 228.68 12.7637 228.48 12.4824C228.281 12.2012 228.029 11.9785 227.725 11.8145C227.42 11.6387 227.045 11.5449 226.6 11.5332V10.6367H235.74V11.5332C235.014 11.5801 234.457 11.6914 234.07 11.8672C233.695 12.0312 233.508 12.3594 233.508 12.8516C233.508 13.3555 233.672 14.0059 234 14.8027L236.918 21.5352L239.115 16.1387C239.408 15.4355 239.555 14.6797 239.555 13.8711C239.555 12.5586 238.963 11.7793 237.779 11.5332V10.6367ZM241.893 11.6035H239.115C239.467 11.8848 239.701 12.1777 239.818 12.4824C239.947 12.7754 240.041 13.2383 240.1 13.8711C240.369 13.2734 240.633 12.8164 240.891 12.5C241.148 12.1719 241.482 11.873 241.893 11.6035ZM235.16 26L235.74 24.5938L231.205 14.082C230.865 13.2852 230.578 12.7168 230.344 12.377C230.121 12.0254 229.852 11.7852 229.535 11.6562C229.23 11.5273 228.826 11.4863 228.322 11.5332C228.791 11.9551 229.107 12.3301 229.271 12.6582C229.447 12.9863 229.717 13.5723 230.08 14.416L235.16 26ZM230.344 34.1035C229.383 33.8809 228.902 33.4238 228.902 32.7324C228.902 32.2988 229.189 31.9414 229.764 31.6602C229.4 31.5547 229.148 31.502 229.008 31.502C228.645 31.502 228.346 31.6133 228.111 31.8359C227.889 32.0703 227.777 32.3457 227.777 32.6621C227.777 33.1309 228 33.5059 228.445 33.7871C228.891 34.0684 229.523 34.1738 230.344 34.1035ZM262.547 14.7324V22.1855C262.547 22.8887 262.646 23.4336 262.846 23.8203C263.057 24.1953 263.338 24.4648 263.689 24.6289C264.041 24.7812 264.539 24.8809 265.184 24.9277C265.828 24.9746 266.426 25.0098 266.977 25.0332V26H254.197V25.0332C255.146 25.0098 255.855 24.957 256.324 24.875C256.805 24.793 257.18 24.6348 257.449 24.4004C257.73 24.166 257.918 23.8672 258.012 23.5039C258.117 23.1289 258.17 22.6191 258.17 21.9746V6.48828C258.17 5.19922 258.111 4.28516 257.994 3.74609C257.889 3.20703 257.555 2.80859 256.992 2.55078C256.441 2.29297 255.51 2.16406 254.197 2.16406V1.19727H266.291C266.83 1.19727 268.119 1.29102 270.158 1.47852C270.814 1.53711 271.512 1.73047 272.25 2.05859C273 2.38672 273.697 2.83789 274.342 3.41211C274.998 3.97461 275.525 4.64844 275.924 5.43359C276.322 6.20703 276.521 7.05078 276.521 7.96484C276.521 8.98438 276.316 9.9043 275.906 10.7246C275.508 11.5449 274.887 12.2539 274.043 12.8516C273.211 13.4492 272.156 13.9121 270.879 14.2402C269.613 14.5684 268.137 14.7324 266.449 14.7324H262.547ZM258.732 6.27734V22.8008C258.732 23.9141 258.305 24.6582 257.449 25.0332H257.906C259.207 25.0332 259.857 24.418 259.857 23.1875V7.10352C259.857 5.66211 259.846 4.71875 259.822 4.27344C259.811 3.82813 259.734 3.44727 259.594 3.13086C259.465 2.81445 259.225 2.58594 258.873 2.44531C258.533 2.29297 258.006 2.1875 257.291 2.12891C257.76 2.35156 258.088 2.60352 258.275 2.88477C258.463 3.16602 258.586 3.56445 258.645 4.08008C258.703 4.5957 258.732 5.32812 258.732 6.27734ZM262.547 13.7656H265.008C266.496 13.7656 267.732 13.5898 268.717 13.2383C269.701 12.875 270.457 12.2715 270.984 11.4277C271.512 10.5723 271.775 9.42969 271.775 8C271.775 5.85547 271.055 4.25 269.613 3.18359C269.039 2.76172 268.459 2.48633 267.873 2.35742C267.287 2.22852 266.561 2.16406 265.693 2.16406C264.697 2.16406 263.977 2.30469 263.531 2.58594C263.098 2.86719 262.822 3.28906 262.705 3.85156C262.6 4.41406 262.547 5.24609 262.547 6.34766V13.7656ZM269.279 13.5723C270.686 13.3613 271.734 12.8047 272.426 11.9023C273.117 11 273.463 9.72266 273.463 8.07031C273.463 6.32422 273.111 5.01758 272.408 4.15039C271.705 3.27148 270.65 2.68555 269.244 2.39258C269.912 2.73242 270.48 3.17773 270.949 3.72852C271.418 4.2793 271.77 4.92383 272.004 5.66211C272.238 6.40039 272.355 7.20313 272.355 8.07031C272.355 10.8594 271.33 12.6934 269.279 13.5723ZM279.053 18.4414C279.053 16.9414 279.404 15.5703 280.107 14.3281C280.822 13.0859 281.789 12.1133 283.008 11.4102C284.238 10.6953 285.598 10.3379 287.086 10.3379C288.539 10.3379 289.863 10.6836 291.059 11.375C292.266 12.0664 293.215 13.0215 293.906 14.2402C294.598 15.459 294.943 16.8125 294.943 18.3008C294.943 19.4375 294.732 20.5156 294.311 21.5352C293.9 22.543 293.326 23.416 292.588 24.1543C291.861 24.8809 291.023 25.4434 290.074 25.8418C289.125 26.2402 288.105 26.4395 287.016 26.4395C285.551 26.4395 284.209 26.1055 282.99 25.4375C281.783 24.7695 280.822 23.832 280.107 22.625C279.404 21.4062 279.053 20.0117 279.053 18.4414ZM285.293 25.7539C283.77 24.8281 282.627 23.7324 281.865 22.4668C281.104 21.2012 280.723 19.8125 280.723 18.3008C280.723 17.1523 280.904 16.1445 281.268 15.2773C281.631 14.4102 282.105 13.666 282.691 13.0449C283.289 12.4121 284.033 11.7617 284.924 11.0938C283.74 11.5156 282.75 12.1074 281.953 12.8691C281.156 13.6309 280.57 14.5039 280.195 15.4883C279.82 16.4609 279.633 17.4922 279.633 18.582C279.633 19.3789 279.756 20.1641 280.002 20.9375C280.248 21.7109 280.605 22.4082 281.074 23.0293C281.555 23.6504 282.146 24.1953 282.85 24.6641C283.553 25.1328 284.367 25.4961 285.293 25.7539ZM283.412 17.4395C283.412 19.9355 283.775 21.8984 284.502 23.3281C285.229 24.7461 286.172 25.4551 287.332 25.4551C287.918 25.4551 288.463 25.2148 288.967 24.7344C289.471 24.2422 289.869 23.5215 290.162 22.5723C290.467 21.6113 290.619 20.4395 290.619 19.0566C290.619 16.6191 290.291 14.7207 289.635 13.3613C288.99 11.9902 288.094 11.3047 286.945 11.3047C285.832 11.3047 284.965 11.8203 284.344 12.8516C283.723 13.8711 283.412 15.4004 283.412 17.4395ZM289.617 24.8398C290.496 24.3594 291.17 23.5977 291.639 22.5547C292.107 21.5117 292.342 20.2344 292.342 18.7227C292.342 14.9961 291.193 12.5645 288.896 11.4277C289.717 12.248 290.303 13.2559 290.654 14.4512C291.018 15.6465 291.199 17.252 291.199 19.2676C291.199 20.5449 291.064 21.6172 290.795 22.4844C290.537 23.3398 290.145 24.125 289.617 24.8398ZM297.053 18.4414C297.053 16.9414 297.404 15.5703 298.107 14.3281C298.822 13.0859 299.789 12.1133 301.008 11.4102C302.238 10.6953 303.598 10.3379 305.086 10.3379C306.539 10.3379 307.863 10.6836 309.059 11.375C310.266 12.0664 311.215 13.0215 311.906 14.2402C312.598 15.459 312.943 16.8125 312.943 18.3008C312.943 19.4375 312.732 20.5156 312.311 21.5352C311.9 22.543 311.326 23.416 310.588 24.1543C309.861 24.8809 309.023 25.4434 308.074 25.8418C307.125 26.2402 306.105 26.4395 305.016 26.4395C303.551 26.4395 302.209 26.1055 300.99 25.4375C299.783 24.7695 298.822 23.832 298.107 22.625C297.404 21.4062 297.053 20.0117 297.053 18.4414ZM303.293 25.7539C301.77 24.8281 300.627 23.7324 299.865 22.4668C299.104 21.2012 298.723 19.8125 298.723 18.3008C298.723 17.1523 298.904 16.1445 299.268 15.2773C299.631 14.4102 300.105 13.666 300.691 13.0449C301.289 12.4121 302.033 11.7617 302.924 11.0938C301.74 11.5156 300.75 12.1074 299.953 12.8691C299.156 13.6309 298.57 14.5039 298.195 15.4883C297.82 16.4609 297.633 17.4922 297.633 18.582C297.633 19.3789 297.756 20.1641 298.002 20.9375C298.248 21.7109 298.605 22.4082 299.074 23.0293C299.555 23.6504 300.146 24.1953 300.85 24.6641C301.553 25.1328 302.367 25.4961 303.293 25.7539ZM301.412 17.4395C301.412 19.9355 301.775 21.8984 302.502 23.3281C303.229 24.7461 304.172 25.4551 305.332 25.4551C305.918 25.4551 306.463 25.2148 306.967 24.7344C307.471 24.2422 307.869 23.5215 308.162 22.5723C308.467 21.6113 308.619 20.4395 308.619 19.0566C308.619 16.6191 308.291 14.7207 307.635 13.3613C306.99 11.9902 306.094 11.3047 304.945 11.3047C303.832 11.3047 302.965 11.8203 302.344 12.8516C301.723 13.8711 301.412 15.4004 301.412 17.4395ZM307.617 24.8398C308.496 24.3594 309.17 23.5977 309.639 22.5547C310.107 21.5117 310.342 20.2344 310.342 18.7227C310.342 14.9961 309.193 12.5645 306.896 11.4277C307.717 12.248 308.303 13.2559 308.654 14.4512C309.018 15.6465 309.199 17.252 309.199 19.2676C309.199 20.5449 309.064 21.6172 308.795 22.4844C308.537 23.3398 308.145 24.125 307.617 24.8398ZM321.293 10.3379V13.0449C322.195 12.0254 322.887 11.3223 323.367 10.9355C323.848 10.5371 324.428 10.3379 325.107 10.3379C325.693 10.3379 326.186 10.5488 326.584 10.9707C326.994 11.3809 327.199 11.9023 327.199 12.5352C327.199 13.1914 327.018 13.7422 326.654 14.1875C326.291 14.6211 325.834 14.8379 325.283 14.8379C325.037 14.8379 324.768 14.791 324.475 14.6973C324.182 14.6035 323.936 14.4805 323.736 14.3281C323.619 14.2344 323.496 14.1348 323.367 14.0293C323.238 13.9238 323.121 13.8418 323.016 13.7832C322.922 13.7246 322.816 13.6953 322.699 13.6953C322.477 13.6953 322.254 13.7832 322.031 13.959C321.82 14.123 321.574 14.3574 321.293 14.6621V23.1523C321.293 23.7617 321.375 24.1953 321.539 24.4531C321.715 24.7109 321.979 24.875 322.33 24.9453C322.693 25.0039 323.32 25.0332 324.211 25.0332V26H314.771V25.0332H315.246C316.605 25.0332 317.285 24.4941 317.285 23.416V15.5234C317.285 14.1758 316.447 13.25 314.771 12.7461V12.1484L320.432 10.3379H321.293ZM317.865 15.5234V23.5215C317.865 23.9199 317.801 24.2188 317.672 24.418C317.543 24.6055 317.355 24.8105 317.109 25.0332C317.777 24.9746 318.258 24.7988 318.551 24.5059C318.844 24.2012 318.99 23.6797 318.99 22.9414V15.5234C318.99 14.5156 318.814 13.7832 318.463 13.3262C318.111 12.8691 317.555 12.6406 316.793 12.6406C316.734 12.6406 316.605 12.6523 316.406 12.6758C316.207 12.6992 316.072 12.7109 316.002 12.7109C317.244 13.25 317.865 14.1875 317.865 15.5234ZM322.471 13.0449C322.787 13.0449 323.104 13.1504 323.42 13.3613C324.146 13.9355 324.756 14.2227 325.248 14.2227C325.857 14.2227 326.303 13.8301 326.584 13.0449C326.256 13.209 326.016 13.291 325.863 13.291C325.512 13.291 325.16 13.1738 324.809 12.9395C324.363 12.5762 323.994 12.3945 323.701 12.3945C323.42 12.3945 323.01 12.6113 322.471 13.0449ZM330.258 21.7461V11.7441H328.377V10.8477C329.408 10.0742 330.182 9.48242 330.697 9.07227C331.213 8.65039 331.699 8.18164 332.156 7.66602C332.625 7.15039 333.023 6.61133 333.352 6.04883H334.283V10.6367H338.643V11.7441H334.283V22.2559C334.283 23.0293 334.377 23.6094 334.564 23.9961C334.752 24.3711 335.068 24.5586 335.514 24.5586C335.936 24.5586 336.322 24.4414 336.674 24.207C337.037 23.9727 337.477 23.6094 337.992 23.1172L338.643 23.8027C337.764 24.7051 336.955 25.3789 336.217 25.8242C335.49 26.2578 334.652 26.4746 333.703 26.4746C332.801 26.4746 332.098 26.2754 331.594 25.877C331.09 25.4785 330.738 24.9395 330.539 24.2598C330.352 23.5684 330.258 22.7305 330.258 21.7461ZM331.98 8.75586L330.82 9.72266V21.3945C330.82 22.9531 331.02 24.0898 331.418 24.8047C331.828 25.5078 332.555 25.8594 333.598 25.8594C334.148 25.8594 334.699 25.7715 335.25 25.5957C334.184 25.6309 333.369 25.3848 332.807 24.8574C332.256 24.3184 331.98 23.4277 331.98 22.1855V8.75586ZM341.895 23.4863V11.8496H339.398V10.6367H341.895V8.24609C341.895 6.71094 342.164 5.38086 342.703 4.25586C343.254 3.11914 344.039 2.24609 345.059 1.63672C346.078 1.02734 347.268 0.722656 348.627 0.722656C349.436 0.722656 350.133 0.845703 350.719 1.0918C351.316 1.33789 351.756 1.66602 352.037 2.07617C352.33 2.47461 352.477 2.91406 352.477 3.39453C352.477 3.93359 352.283 4.41992 351.896 4.85352C351.521 5.27539 351.053 5.48633 350.49 5.48633C349.963 5.48633 349.523 5.28711 349.172 4.88867C348.832 4.47852 348.662 4.03906 348.662 3.57031C348.674 3.45312 348.68 3.35352 348.68 3.27148C348.691 3.17773 348.697 3.04883 348.697 2.88477C348.697 2.52148 348.586 2.23438 348.363 2.02344C348.141 1.8125 347.865 1.70703 347.537 1.70703C347.033 1.70703 346.635 1.95312 346.342 2.44531C346.061 2.92578 345.92 3.62305 345.92 4.53711V10.6367H349.189V11.8496H345.92V23.2227C345.92 23.6914 345.984 24.0605 346.113 24.3301C346.242 24.5879 346.471 24.7695 346.799 24.875C347.139 24.9805 347.59 25.0332 348.152 25.0332H348.732V26H339.557V25.0332C340.33 25.0098 340.91 24.8926 341.297 24.6816C341.695 24.459 341.895 24.0605 341.895 23.4863ZM342.457 8.24609V23.3633C342.457 24.1367 342.146 24.7402 341.525 25.1738C342.92 25.1738 343.617 24.5703 343.617 23.3633V8.28125C343.617 6.89844 343.764 5.73242 344.057 4.7832C344.361 3.82227 344.824 2.89062 345.445 1.98828C344.449 2.67969 343.699 3.5293 343.195 4.53711C342.703 5.54492 342.457 6.78125 342.457 8.24609ZM348.732 1.77734C349.037 2.12891 349.201 2.49805 349.225 2.88477C349.248 3.10742 349.271 3.34766 349.295 3.60547C349.318 3.85156 349.365 4.06836 349.436 4.25586C349.506 4.44336 349.623 4.5957 349.787 4.71289C349.963 4.81836 350.197 4.87109 350.49 4.87109C351.076 4.87109 351.521 4.56055 351.826 3.93945C351.545 4.0332 351.352 4.08008 351.246 4.08008C350.812 4.08008 350.479 3.85156 350.244 3.39453C349.916 2.71484 349.693 2.30469 349.576 2.16406C349.459 2.01172 349.178 1.88281 348.732 1.77734ZM350.701 18.4414C350.701 16.9414 351.053 15.5703 351.756 14.3281C352.471 13.0859 353.438 12.1133 354.656 11.4102C355.887 10.6953 357.246 10.3379 358.734 10.3379C360.188 10.3379 361.512 10.6836 362.707 11.375C363.914 12.0664 364.863 13.0215 365.555 14.2402C366.246 15.459 366.592 16.8125 366.592 18.3008C366.592 19.4375 366.381 20.5156 365.959 21.5352C365.549 22.543 364.975 23.416 364.236 24.1543C363.51 24.8809 362.672 25.4434 361.723 25.8418C360.773 26.2402 359.754 26.4395 358.664 26.4395C357.199 26.4395 355.857 26.1055 354.639 25.4375C353.432 24.7695 352.471 23.832 351.756 22.625C351.053 21.4062 350.701 20.0117 350.701 18.4414ZM356.941 25.7539C355.418 24.8281 354.275 23.7324 353.514 22.4668C352.752 21.2012 352.371 19.8125 352.371 18.3008C352.371 17.1523 352.553 16.1445 352.916 15.2773C353.279 14.4102 353.754 13.666 354.34 13.0449C354.938 12.4121 355.682 11.7617 356.572 11.0938C355.389 11.5156 354.398 12.1074 353.602 12.8691C352.805 13.6309 352.219 14.5039 351.844 15.4883C351.469 16.4609 351.281 17.4922 351.281 18.582C351.281 19.3789 351.404 20.1641 351.65 20.9375C351.896 21.7109 352.254 22.4082 352.723 23.0293C353.203 23.6504 353.795 24.1953 354.498 24.6641C355.201 25.1328 356.016 25.4961 356.941 25.7539ZM355.061 17.4395C355.061 19.9355 355.424 21.8984 356.15 23.3281C356.877 24.7461 357.82 25.4551 358.98 25.4551C359.566 25.4551 360.111 25.2148 360.615 24.7344C361.119 24.2422 361.518 23.5215 361.811 22.5723C362.115 21.6113 362.268 20.4395 362.268 19.0566C362.268 16.6191 361.939 14.7207 361.283 13.3613C360.639 11.9902 359.742 11.3047 358.594 11.3047C357.48 11.3047 356.613 11.8203 355.992 12.8516C355.371 13.8711 355.061 15.4004 355.061 17.4395ZM361.266 24.8398C362.145 24.3594 362.818 23.5977 363.287 22.5547C363.756 21.5117 363.99 20.2344 363.99 18.7227C363.99 14.9961 362.842 12.5645 360.545 11.4277C361.365 12.248 361.951 13.2559 362.303 14.4512C362.666 15.6465 362.848 17.252 362.848 19.2676C362.848 20.5449 362.713 21.6172 362.443 22.4844C362.186 23.3398 361.793 24.125 361.266 24.8398ZM370.652 23.2578V6.59375C370.652 5.70312 370.512 5.00586 370.23 4.50195C369.949 3.99805 369.299 3.55859 368.279 3.18359V2.49805L373.992 0.617188H374.678V22.6074C374.678 23.5215 374.777 24.1543 374.977 24.5059C375.188 24.8574 375.715 25.0332 376.559 25.0332H377.033V26H368.279V25.0332H368.701C369.393 25.0332 369.891 24.8867 370.195 24.5938C370.5 24.3008 370.652 23.8555 370.652 23.2578ZM372.375 22.5371V6.69922C372.375 5.86719 372.334 5.20508 372.252 4.71289C372.182 4.20898 371.965 3.79297 371.602 3.46484C371.25 3.125 370.682 2.95508 369.896 2.95508C369.51 2.95508 369.199 2.9668 368.965 2.99023C370.043 3.29492 370.688 3.74609 370.898 4.34375C371.121 4.94141 371.232 5.72656 371.232 6.69922V23.1523C371.232 23.9492 370.992 24.5762 370.512 25.0332C371.332 24.998 371.848 24.7754 372.059 24.3652C372.27 23.9434 372.375 23.334 372.375 22.5371ZM384.381 10.3379V23.0469C384.381 23.5859 384.434 23.9961 384.539 24.2773C384.656 24.5469 384.867 24.7344 385.172 24.8398C385.488 24.9453 385.969 25.0098 386.613 25.0332V26H378.404V25.0332C379.131 25.0098 379.635 24.8633 379.916 24.5938C380.209 24.3242 380.355 23.8438 380.355 23.1523V15.084C380.355 14.5801 380.186 14.1113 379.846 13.6777C379.506 13.2441 379.025 12.9219 378.404 12.7109V12.1484L383.66 10.3379H384.381ZM380.936 15.1367V23.4863C380.936 24.166 380.695 24.6816 380.215 25.0332C380.859 25.0332 381.328 24.8867 381.621 24.5938C381.926 24.3008 382.078 23.8203 382.078 23.1523V14.9082C382.078 14.1582 381.896 13.584 381.533 13.1855C381.17 12.7754 380.695 12.5703 380.109 12.5703C379.84 12.5703 379.623 12.582 379.459 12.6055C380.443 13.1211 380.936 13.9648 380.936 15.1367ZM382.219 1.77734C382.664 1.77734 383.08 1.88867 383.467 2.11133C383.854 2.32227 384.158 2.61523 384.381 2.99023C384.604 3.36523 384.715 3.77539 384.715 4.2207C384.715 4.66602 384.604 5.08203 384.381 5.46875C384.158 5.84375 383.854 6.14258 383.467 6.36523C383.08 6.58789 382.664 6.69922 382.219 6.69922C381.551 6.69922 380.977 6.45312 380.496 5.96094C380.016 5.46875 379.775 4.88867 379.775 4.2207C379.775 3.78711 379.881 3.38281 380.092 3.00781C380.314 2.62109 380.613 2.32227 380.988 2.11133C381.375 1.88867 381.785 1.77734 382.219 1.77734ZM382.518 2.33984C381.826 2.33984 381.293 2.50391 380.918 2.83203C380.543 3.16016 380.355 3.61133 380.355 4.18555C380.355 4.73633 380.537 5.19336 380.9 5.55664C381.264 5.9082 381.803 6.10156 382.518 6.13672C382.143 5.79688 381.867 5.49805 381.691 5.24023C381.516 4.9707 381.428 4.63086 381.428 4.2207C381.428 3.45898 381.791 2.83203 382.518 2.33984ZM388.248 18.4414C388.248 16.9414 388.6 15.5703 389.303 14.3281C390.018 13.0859 390.984 12.1133 392.203 11.4102C393.434 10.6953 394.793 10.3379 396.281 10.3379C397.734 10.3379 399.059 10.6836 400.254 11.375C401.461 12.0664 402.41 13.0215 403.102 14.2402C403.793 15.459 404.139 16.8125 404.139 18.3008C404.139 19.4375 403.928 20.5156 403.506 21.5352C403.096 22.543 402.521 23.416 401.783 24.1543C401.057 24.8809 400.219 25.4434 399.27 25.8418C398.32 26.2402 397.301 26.4395 396.211 26.4395C394.746 26.4395 393.404 26.1055 392.186 25.4375C390.979 24.7695 390.018 23.832 389.303 22.625C388.6 21.4062 388.248 20.0117 388.248 18.4414ZM394.488 25.7539C392.965 24.8281 391.822 23.7324 391.061 22.4668C390.299 21.2012 389.918 19.8125 389.918 18.3008C389.918 17.1523 390.1 16.1445 390.463 15.2773C390.826 14.4102 391.301 13.666 391.887 13.0449C392.484 12.4121 393.229 11.7617 394.119 11.0938C392.936 11.5156 391.945 12.1074 391.148 12.8691C390.352 13.6309 389.766 14.5039 389.391 15.4883C389.016 16.4609 388.828 17.4922 388.828 18.582C388.828 19.3789 388.951 20.1641 389.197 20.9375C389.443 21.7109 389.801 22.4082 390.27 23.0293C390.75 23.6504 391.342 24.1953 392.045 24.6641C392.748 25.1328 393.562 25.4961 394.488 25.7539ZM392.607 17.4395C392.607 19.9355 392.971 21.8984 393.697 23.3281C394.424 24.7461 395.367 25.4551 396.527 25.4551C397.113 25.4551 397.658 25.2148 398.162 24.7344C398.666 24.2422 399.064 23.5215 399.357 22.5723C399.662 21.6113 399.814 20.4395 399.814 19.0566C399.814 16.6191 399.486 14.7207 398.83 13.3613C398.186 11.9902 397.289 11.3047 396.141 11.3047C395.027 11.3047 394.16 11.8203 393.539 12.8516C392.918 13.8711 392.607 15.4004 392.607 17.4395ZM398.812 24.8398C399.691 24.3594 400.365 23.5977 400.834 22.5547C401.303 21.5117 401.537 20.2344 401.537 18.7227C401.537 14.9961 400.389 12.5645 398.092 11.4277C398.912 12.248 399.498 13.2559 399.85 14.4512C400.213 15.6465 400.395 17.252 400.395 19.2676C400.395 20.5449 400.26 21.6172 399.99 22.4844C399.732 23.3398 399.34 24.125 398.812 24.8398Z" fill="white"/>
</svg>
