<svg width="250" height="80" viewBox="0 0 250 80" fill="none" xmlns="http://www.w3.org/2000/svg">
<g filter="url(#filter0_d_1_3)">
<path d="M29.0293 1.19727H36.9395V2.16406C36.084 2.55078 35.3281 3.20117 34.6719 4.11523C34.0273 5.0293 33.4062 6.33594 32.8086 8.03516L26.3926 26.4746H25.3906L18.623 7.13867L11.8906 26.4746H10.959L4.26172 7.13867C3.66406 5.41602 3.24219 4.28516 2.99609 3.74609C2.76172 3.20703 2.45117 2.80859 2.06445 2.55078C1.68945 2.29297 1.12695 2.16406 0.376953 2.16406V1.19727H10.7305V2.16406C10.6602 2.15234 10.5957 2.14648 10.5371 2.14648C10.4902 2.13477 10.4141 2.12891 10.3086 2.12891C8.72656 2.12891 7.93555 2.60937 7.93555 3.57031C7.93555 4.07422 8.12305 4.90039 8.49805 6.04883L13.2266 19.6719L18.0781 5.76758C17.7969 4.83008 17.5156 4.12109 17.2344 3.64062C16.9531 3.14844 16.666 2.80273 16.373 2.60352C16.0801 2.4043 15.8281 2.29297 15.6172 2.26953C15.418 2.23438 14.9902 2.19922 14.334 2.16406V1.19727H24.9863V2.16406C24.1426 2.1875 23.4746 2.28125 22.9824 2.44531C22.502 2.60937 22.2617 2.96094 22.2617 3.5C22.2617 4.0625 22.5371 5.10547 23.0879 6.62891L27.6582 19.6719L31.4023 8.89648C31.6367 8.26367 31.8301 7.64844 31.9824 7.05078C32.1465 6.45312 32.2285 5.9082 32.2285 5.41602C32.2285 4.36133 31.9648 3.58203 31.4375 3.07812C30.9102 2.5625 30.1074 2.25781 29.0293 2.16406V1.19727ZM34.6719 2.16406H31.1914C31.7539 2.51562 32.1406 2.91406 32.3516 3.35938C32.5742 3.79297 32.7031 4.33203 32.7383 4.97656C32.9844 4.37891 33.2598 3.8457 33.5645 3.37695C33.8691 2.9082 34.2383 2.50391 34.6719 2.16406ZM18.6582 5.48633L25.6367 25.3848C25.9766 24.6816 26.1465 24.1191 26.1465 23.6973C26.1465 23.4277 26.0293 22.959 25.7949 22.291L19.6953 4.97656C19.3789 4.10938 19.1328 3.51758 18.957 3.20117C18.793 2.88477 18.5469 2.63867 18.2188 2.46289C17.8906 2.27539 17.3984 2.17578 16.7422 2.16406C17.4336 2.72656 18.0723 3.83398 18.6582 5.48633ZM4.36719 5.76758L11.2051 25.4902C11.2871 25.3145 11.3574 25.1621 11.416 25.0332C11.4863 24.8926 11.5508 24.7227 11.6094 24.5234C11.6797 24.3125 11.7148 24.1309 11.7148 23.9785C11.7148 23.5449 11.6152 23.0762 11.416 22.5723L5.59766 5.76758C5.1875 4.58398 4.86523 3.76367 4.63086 3.30664C4.4082 2.84961 4.12695 2.5332 3.78711 2.35742C3.45898 2.18164 2.99023 2.11719 2.38086 2.16406C2.80273 2.44531 3.14844 2.85547 3.41797 3.39453C3.6875 3.92188 4.00391 4.71289 4.36719 5.76758ZM52.0742 21.6406L52.7773 22.1855C52.25 23.1699 51.623 23.9785 50.8965 24.6113C50.1699 25.2441 49.3672 25.7129 48.4883 26.0176C47.6211 26.3223 46.7129 26.4746 45.7637 26.4746C44.4746 26.4746 43.2734 26.1641 42.1602 25.543C41.0586 24.9219 40.1855 24.0254 39.541 22.8535C38.8965 21.6816 38.5742 20.3516 38.5742 18.8633C38.5742 17.6914 38.7676 16.5898 39.1543 15.5586C39.5527 14.5273 40.0977 13.6191 40.7891 12.834C41.4922 12.0488 42.3008 11.4395 43.2148 11.0059C44.1406 10.5605 45.125 10.3379 46.168 10.3379C47.2227 10.3379 48.2246 10.5605 49.1738 11.0059C50.1348 11.4395 50.8965 12.043 51.459 12.8164C51.8691 13.3789 52.1621 13.959 52.3379 14.5566C52.5254 15.1426 52.6719 15.8516 52.7773 16.6836H42.1602C42.207 17.9023 42.4121 18.9336 42.7754 19.7773C43.1504 20.6211 43.6309 21.3008 44.2168 21.8164C44.8145 22.332 45.4473 22.7012 46.1152 22.9238C46.7832 23.1465 47.4219 23.2578 48.0312 23.2578C49.5078 23.2578 50.8555 22.7188 52.0742 21.6406ZM48.9629 15.5586H50.1934C50.1582 14.2461 49.8887 13.2793 49.3848 12.6582C48.8809 12.0254 48.0371 11.6035 46.8535 11.3926C47.6035 11.7324 48.1426 12.1777 48.4707 12.7285C48.7988 13.2676 48.9629 14.0938 48.9629 15.207V15.5586ZM42.2656 15.5586H48.4004V14.9785C48.4004 14.2988 48.2773 13.6953 48.0312 13.168C47.7852 12.6289 47.4453 12.2188 47.0117 11.9375C46.5898 11.6445 46.1035 11.498 45.5527 11.498C44.6621 11.498 43.9062 11.8965 43.2852 12.6934C42.6641 13.4785 42.3242 14.4336 42.2656 15.5586ZM42.4238 12.0957C40.2324 13.8301 39.1367 16.1035 39.1367 18.916C39.1367 20.9551 39.7871 22.625 41.0879 23.9258C42.4004 25.2148 43.9121 25.8594 45.623 25.8594C46.6191 25.8594 47.6152 25.6602 48.6113 25.2617C49.6191 24.8516 50.4688 24.248 51.1602 23.4512C50.4453 23.9082 49.7129 24.2832 48.9629 24.5762C48.2246 24.8574 47.3398 24.998 46.3086 24.998C44.5625 24.998 43.1035 24.3887 41.9316 23.1699C40.7715 21.9512 40.1914 20.3633 40.1914 18.4062C40.1914 17.1641 40.3848 16.0508 40.7715 15.0664C41.1582 14.082 41.709 13.0918 42.4238 12.0957ZM56.5742 23.2578V6.59375C56.5742 5.70312 56.4336 5.00586 56.1523 4.50195C55.8711 3.99805 55.2207 3.55859 54.2012 3.18359V2.49805L59.9141 0.617188H60.5996V22.6074C60.5996 23.5215 60.6992 24.1543 60.8984 24.5059C61.1094 24.8574 61.6367 25.0332 62.4805 25.0332H62.9551V26H54.2012V25.0332H54.623C55.3145 25.0332 55.8125 24.8867 56.1172 24.5938C56.4219 24.3008 56.5742 23.8555 56.5742 23.2578ZM58.2969 22.5371V6.69922C58.2969 5.86719 58.2559 5.20508 58.1738 4.71289C58.1035 4.20898 57.8867 3.79297 57.5234 3.46484C57.1719 3.125 56.6035 2.95508 55.8184 2.95508C55.4316 2.95508 55.1211 2.9668 54.8867 2.99023C55.9648 3.29492 56.6094 3.74609 56.8203 4.34375C57.043 4.94141 57.1543 5.72656 57.1543 6.69922V23.1523C57.1543 23.9492 56.9141 24.5762 56.4336 25.0332C57.2539 24.998 57.7695 24.7754 57.9805 24.3652C58.1914 23.9434 58.2969 23.334 58.2969 22.5371ZM74.9082 12.4297C74.9082 12.1133 74.7441 11.8496 74.416 11.6387C74.0879 11.416 73.6895 11.3047 73.2207 11.3047C72.3418 11.3047 71.5449 11.5625 70.8301 12.0781C70.1152 12.582 69.5527 13.3145 69.1426 14.2754C68.7441 15.2246 68.5449 16.3027 68.5449 17.5098C68.5449 18.623 68.7793 19.6367 69.248 20.5508C69.7285 21.4531 70.3672 22.1562 71.1641 22.6602C71.9727 23.1641 72.8516 23.416 73.8008 23.416C74.5859 23.416 75.4062 23.2402 76.2617 22.8887C77.1289 22.5254 77.8203 22.0625 78.3359 21.5L78.9512 22.3262C78.0254 23.6621 76.9121 24.6875 75.6113 25.4023C74.3223 26.1172 73.0098 26.4746 71.6738 26.4746C70.4316 26.4746 69.2422 26.1348 68.1055 25.4551C66.9805 24.7754 66.0781 23.8555 65.3984 22.6953C64.7305 21.5234 64.3965 20.2461 64.3965 18.8633C64.3965 17.7383 64.6016 16.666 65.0117 15.6465C65.4219 14.627 66.0078 13.7188 66.7695 12.9219C67.543 12.1133 68.457 11.4805 69.5117 11.0234C70.5664 10.5664 71.7324 10.3379 73.0098 10.3379C74.041 10.3379 74.9785 10.4961 75.8223 10.8125C76.666 11.1172 77.3281 11.5449 77.8086 12.0957C78.3008 12.6465 78.5469 13.25 78.5469 13.9062C78.5469 14.4805 78.3359 14.9551 77.9141 15.3301C77.4922 15.7051 76.9941 15.8926 76.4199 15.8926C75.8926 15.8926 75.4531 15.7109 75.1016 15.3477C74.7617 14.9727 74.5918 14.5742 74.5918 14.1523C74.5918 14.0703 74.6445 13.8066 74.75 13.3613C74.8555 12.9043 74.9082 12.5938 74.9082 12.4297ZM75.1719 14.1523C75.1719 14.5273 75.3125 14.8086 75.5938 14.9961C75.8867 15.1836 76.2031 15.2773 76.543 15.2773C76.6484 15.2773 76.9355 15.2305 77.4043 15.1367C76.6777 14.9844 76.3145 14.6094 76.3145 14.0117C76.3145 13.9648 76.3379 13.8301 76.3848 13.6074C76.4434 13.3848 76.4727 13.1973 76.4727 13.0449C76.4727 12.4004 76.0156 11.9082 75.1016 11.5684C75.3594 11.9316 75.4883 12.2656 75.4883 12.5703C75.4883 12.7695 75.4355 13.0391 75.3301 13.3789C75.2246 13.7188 75.1719 13.9766 75.1719 14.1523ZM70.2324 11.4277C69.1074 11.8496 68.1523 12.4297 67.3672 13.168C66.5938 13.9062 66.002 14.7676 65.5918 15.752C65.1816 16.7246 64.9766 17.7148 64.9766 18.7227C64.9766 20.0938 65.3047 21.3242 65.9609 22.4141C66.6172 23.5039 67.4785 24.3535 68.5449 24.9629C69.623 25.5605 70.7129 25.8594 71.8145 25.8594C73.4199 25.8594 74.9316 25.332 76.3496 24.2773C74.8145 24.7812 73.5781 25.0332 72.6406 25.0332C71.4453 25.0332 70.3496 24.7637 69.3535 24.2246C68.3574 23.6855 67.5664 22.9355 66.9805 21.9746C66.3945 21.0137 66.1016 19.9414 66.1016 18.7578C66.1016 17.3867 66.4531 16.0742 67.1562 14.8203C67.8711 13.5547 68.8965 12.4238 70.2324 11.4277ZM80.5332 18.4414C80.5332 16.9414 80.8848 15.5703 81.5879 14.3281C82.3027 13.0859 83.2695 12.1133 84.4883 11.4102C85.7188 10.6953 87.0781 10.3379 88.5664 10.3379C90.0195 10.3379 91.3438 10.6836 92.5391 11.375C93.7461 12.0664 94.6953 13.0215 95.3867 14.2402C96.0781 15.459 96.4238 16.8125 96.4238 18.3008C96.4238 19.4375 96.2129 20.5156 95.791 21.5352C95.3809 22.543 94.8066 23.416 94.0684 24.1543C93.3418 24.8809 92.5039 25.4434 91.5547 25.8418C90.6055 26.2402 89.5859 26.4395 88.4961 26.4395C87.0312 26.4395 85.6895 26.1055 84.4707 25.4375C83.2637 24.7695 82.3027 23.832 81.5879 22.625C80.8848 21.4062 80.5332 20.0117 80.5332 18.4414ZM86.7734 25.7539C85.25 24.8281 84.1074 23.7324 83.3457 22.4668C82.584 21.2012 82.2031 19.8125 82.2031 18.3008C82.2031 17.1523 82.3848 16.1445 82.748 15.2773C83.1113 14.4102 83.5859 13.666 84.1719 13.0449C84.7695 12.4121 85.5137 11.7617 86.4043 11.0938C85.2207 11.5156 84.2305 12.1074 83.4336 12.8691C82.6367 13.6309 82.0508 14.5039 81.6758 15.4883C81.3008 16.4609 81.1133 17.4922 81.1133 18.582C81.1133 19.3789 81.2363 20.1641 81.4824 20.9375C81.7285 21.7109 82.0859 22.4082 82.5547 23.0293C83.0352 23.6504 83.627 24.1953 84.3301 24.6641C85.0332 25.1328 85.8477 25.4961 86.7734 25.7539ZM84.8926 17.4395C84.8926 19.9355 85.2559 21.8984 85.9824 23.3281C86.709 24.7461 87.6523 25.4551 88.8125 25.4551C89.3984 25.4551 89.9434 25.2148 90.4473 24.7344C90.9512 24.2422 91.3496 23.5215 91.6426 22.5723C91.9473 21.6113 92.0996 20.4395 92.0996 19.0566C92.0996 16.6191 91.7715 14.7207 91.1152 13.3613C90.4707 11.9902 89.5742 11.3047 88.4258 11.3047C87.3125 11.3047 86.4453 11.8203 85.8242 12.8516C85.2031 13.8711 84.8926 15.4004 84.8926 17.4395ZM91.0977 24.8398C91.9766 24.3594 92.6504 23.5977 93.1191 22.5547C93.5879 21.5117 93.8223 20.2344 93.8223 18.7227C93.8223 14.9961 92.6738 12.5645 90.377 11.4277C91.1973 12.248 91.7832 13.2559 92.1348 14.4512C92.498 15.6465 92.6797 17.252 92.6797 19.2676C92.6797 20.5449 92.5449 21.6172 92.2754 22.4844C92.0176 23.3398 91.625 24.125 91.0977 24.8398ZM115.426 13.9414V22.9766C115.426 23.6094 115.525 24.1016 115.725 24.4531C115.924 24.8047 116.258 24.9863 116.727 24.998C116.914 24.998 117.072 25.0039 117.201 25.0156C117.33 25.0156 117.471 25.0215 117.623 25.0332V26H109.168V25.0332C110.094 25.0684 110.697 24.9336 110.979 24.6289C111.26 24.3242 111.4 23.7852 111.4 23.0117V15.2773C111.4 12.9453 110.592 11.7793 108.975 11.7793C108.377 11.7793 107.674 11.9844 106.865 12.3945C106.068 12.8047 105.371 13.3203 104.773 13.9414V23.3281C104.773 24.0195 104.955 24.4766 105.318 24.6992C105.693 24.9219 106.268 25.0332 107.041 25.0332V26H98.3926V25.0332H98.6211C99.1953 25.0332 99.6348 24.9688 99.9395 24.8398C100.256 24.7109 100.461 24.5 100.555 24.207C100.648 23.9023 100.695 23.5039 100.695 23.0117V15.8398C100.695 14.9961 100.555 14.3574 100.273 13.9238C100.004 13.4902 99.4121 13.0977 98.498 12.7461V12.1484L104.193 10.3379H104.773V12.7461C105.711 11.9609 106.666 11.3633 107.639 10.9531C108.623 10.543 109.584 10.3379 110.521 10.3379C111.154 10.3379 111.77 10.4375 112.367 10.6367C112.977 10.8359 113.521 11.1348 114.002 11.5332C114.482 11.9199 114.852 12.3887 115.109 12.9395C116.105 12.084 117.096 11.4395 118.08 11.0059C119.076 10.5605 120.113 10.3379 121.191 10.3379C122.188 10.3379 123.055 10.5195 123.793 10.8828C124.531 11.2344 125.1 11.791 125.498 12.5527C125.908 13.3145 126.113 14.2461 126.113 15.3477V23.3281C126.113 23.7617 126.178 24.0957 126.307 24.3301C126.447 24.5645 126.676 24.7402 126.992 24.8574C127.32 24.9746 127.771 25.0332 128.346 25.0332V26H119.82V25.0332H120.242C120.898 25.0332 121.367 24.8984 121.648 24.6289C121.941 24.3477 122.088 23.8672 122.088 23.1875V15.6289C122.088 14.4102 121.918 13.4668 121.578 12.7988C121.25 12.1191 120.617 11.7793 119.68 11.7793C118.391 11.7793 116.973 12.5 115.426 13.9414ZM113.123 22.4668V14.6973C113.123 13.5371 112.854 12.6934 112.314 12.166C111.775 11.6387 111.002 11.4277 109.994 11.5332C110.826 11.791 111.359 12.2305 111.594 12.8516C111.84 13.4609 111.963 14.375 111.963 15.5938V23.2578C111.963 23.75 111.904 24.1309 111.787 24.4004C111.682 24.6582 111.477 24.9043 111.172 25.1387C112.051 25.0801 112.596 24.8516 112.807 24.4531C113.018 24.043 113.123 23.3809 113.123 22.4668ZM123.811 22.6074V14.8027C123.811 14.123 123.729 13.5488 123.564 13.0801C123.412 12.5996 123.096 12.2188 122.615 11.9375C122.135 11.6562 121.432 11.5215 120.506 11.5332C121.361 11.8262 121.936 12.2188 122.229 12.7109C122.521 13.1914 122.668 13.9238 122.668 14.9082V22.3262C122.668 23.2402 122.627 23.873 122.545 24.2246C122.463 24.5645 122.223 24.8809 121.824 25.1738C122.398 25.1855 122.832 25.0742 123.125 24.8398C123.43 24.6055 123.617 24.3008 123.688 23.9258C123.77 23.5508 123.811 23.1113 123.811 22.6074ZM102.471 22.7305V15.2773C102.471 14.4102 102.277 13.7598 101.891 13.3262C101.516 12.8926 101.023 12.6758 100.414 12.6758C100.285 12.6758 100.01 12.6992 99.5879 12.7461C100.303 12.9922 100.76 13.3848 100.959 13.9238C101.17 14.4512 101.275 15.2246 101.275 16.2441V22.2207C101.275 23.1582 101.234 23.7969 101.152 24.1367C101.082 24.4766 100.883 24.7754 100.555 25.0332C101.41 25.0215 101.943 24.8164 102.154 24.418C102.365 24.0195 102.471 23.457 102.471 22.7305ZM143.621 21.6406L144.324 22.1855C143.797 23.1699 143.17 23.9785 142.443 24.6113C141.717 25.2441 140.914 25.7129 140.035 26.0176C139.168 26.3223 138.26 26.4746 137.311 26.4746C136.021 26.4746 134.82 26.1641 133.707 25.543C132.605 24.9219 131.732 24.0254 131.088 22.8535C130.443 21.6816 130.121 20.3516 130.121 18.8633C130.121 17.6914 130.314 16.5898 130.701 15.5586C131.1 14.5273 131.645 13.6191 132.336 12.834C133.039 12.0488 133.848 11.4395 134.762 11.0059C135.688 10.5605 136.672 10.3379 137.715 10.3379C138.77 10.3379 139.771 10.5605 140.721 11.0059C141.682 11.4395 142.443 12.043 143.006 12.8164C143.416 13.3789 143.709 13.959 143.885 14.5566C144.072 15.1426 144.219 15.8516 144.324 16.6836H133.707C133.754 17.9023 133.959 18.9336 134.322 19.7773C134.697 20.6211 135.178 21.3008 135.764 21.8164C136.361 22.332 136.994 22.7012 137.662 22.9238C138.33 23.1465 138.969 23.2578 139.578 23.2578C141.055 23.2578 142.402 22.7188 143.621 21.6406ZM140.51 15.5586H141.74C141.705 14.2461 141.436 13.2793 140.932 12.6582C140.428 12.0254 139.584 11.6035 138.4 11.3926C139.15 11.7324 139.689 12.1777 140.018 12.7285C140.346 13.2676 140.51 14.0938 140.51 15.207V15.5586ZM133.812 15.5586H139.947V14.9785C139.947 14.2988 139.824 13.6953 139.578 13.168C139.332 12.6289 138.992 12.2188 138.559 11.9375C138.137 11.6445 137.65 11.498 137.1 11.498C136.209 11.498 135.453 11.8965 134.832 12.6934C134.211 13.4785 133.871 14.4336 133.812 15.5586ZM133.971 12.0957C131.779 13.8301 130.684 16.1035 130.684 18.916C130.684 20.9551 131.334 22.625 132.635 23.9258C133.947 25.2148 135.459 25.8594 137.17 25.8594C138.166 25.8594 139.162 25.6602 140.158 25.2617C141.166 24.8516 142.016 24.248 142.707 23.4512C141.992 23.9082 141.26 24.2832 140.51 24.5762C139.771 24.8574 138.887 24.998 137.855 24.998C136.109 24.998 134.65 24.3887 133.479 23.1699C132.318 21.9512 131.738 20.3633 131.738 18.4062C131.738 17.1641 131.932 16.0508 132.318 15.0664C132.705 14.082 133.256 13.0918 133.971 12.0957ZM156.875 21.7461V11.7441H154.994V10.8477C156.025 10.0742 156.799 9.48242 157.314 9.07227C157.83 8.65039 158.316 8.18164 158.773 7.66602C159.242 7.15039 159.641 6.61133 159.969 6.04883H160.9V10.6367H165.26V11.7441H160.9V22.2559C160.9 23.0293 160.994 23.6094 161.182 23.9961C161.369 24.3711 161.686 24.5586 162.131 24.5586C162.553 24.5586 162.939 24.4414 163.291 24.207C163.654 23.9727 164.094 23.6094 164.609 23.1172L165.26 23.8027C164.381 24.7051 163.572 25.3789 162.834 25.8242C162.107 26.2578 161.27 26.4746 160.32 26.4746C159.418 26.4746 158.715 26.2754 158.211 25.877C157.707 25.4785 157.355 24.9395 157.156 24.2598C156.969 23.5684 156.875 22.7305 156.875 21.7461ZM158.598 8.75586L157.438 9.72266V21.3945C157.438 22.9531 157.637 24.0898 158.035 24.8047C158.445 25.5078 159.172 25.8594 160.215 25.8594C160.766 25.8594 161.316 25.7715 161.867 25.5957C160.801 25.6309 159.986 25.3848 159.424 24.8574C158.873 24.3184 158.598 23.4277 158.598 22.1855V8.75586ZM166.807 18.4414C166.807 16.9414 167.158 15.5703 167.861 14.3281C168.576 13.0859 169.543 12.1133 170.762 11.4102C171.992 10.6953 173.352 10.3379 174.84 10.3379C176.293 10.3379 177.617 10.6836 178.812 11.375C180.02 12.0664 180.969 13.0215 181.66 14.2402C182.352 15.459 182.697 16.8125 182.697 18.3008C182.697 19.4375 182.486 20.5156 182.064 21.5352C181.654 22.543 181.08 23.416 180.342 24.1543C179.615 24.8809 178.777 25.4434 177.828 25.8418C176.879 26.2402 175.859 26.4395 174.77 26.4395C173.305 26.4395 171.963 26.1055 170.744 25.4375C169.537 24.7695 168.576 23.832 167.861 22.625C167.158 21.4062 166.807 20.0117 166.807 18.4414ZM173.047 25.7539C171.523 24.8281 170.381 23.7324 169.619 22.4668C168.857 21.2012 168.477 19.8125 168.477 18.3008C168.477 17.1523 168.658 16.1445 169.021 15.2773C169.385 14.4102 169.859 13.666 170.445 13.0449C171.043 12.4121 171.787 11.7617 172.678 11.0938C171.494 11.5156 170.504 12.1074 169.707 12.8691C168.91 13.6309 168.324 14.5039 167.949 15.4883C167.574 16.4609 167.387 17.4922 167.387 18.582C167.387 19.3789 167.51 20.1641 167.756 20.9375C168.002 21.7109 168.359 22.4082 168.828 23.0293C169.309 23.6504 169.9 24.1953 170.604 24.6641C171.307 25.1328 172.121 25.4961 173.047 25.7539ZM171.166 17.4395C171.166 19.9355 171.529 21.8984 172.256 23.3281C172.982 24.7461 173.926 25.4551 175.086 25.4551C175.672 25.4551 176.217 25.2148 176.721 24.7344C177.225 24.2422 177.623 23.5215 177.916 22.5723C178.221 21.6113 178.373 20.4395 178.373 19.0566C178.373 16.6191 178.045 14.7207 177.389 13.3613C176.744 11.9902 175.848 11.3047 174.699 11.3047C173.586 11.3047 172.719 11.8203 172.098 12.8516C171.477 13.8711 171.166 15.4004 171.166 17.4395ZM177.371 24.8398C178.25 24.3594 178.924 23.5977 179.393 22.5547C179.861 21.5117 180.096 20.2344 180.096 18.7227C180.096 14.9961 178.947 12.5645 176.65 11.4277C177.471 12.248 178.057 13.2559 178.408 14.4512C178.771 15.6465 178.953 17.252 178.953 19.2676C178.953 20.5449 178.818 21.6172 178.549 22.4844C178.291 23.3398 177.898 24.125 177.371 24.8398ZM209.504 19.9883L217.186 1.19727H224.779V2.16406C223.596 2.17578 222.764 2.32812 222.283 2.62109C221.803 2.91406 221.521 3.33594 221.439 3.88672C221.357 4.4375 221.316 5.45117 221.316 6.92773V22.1152C221.316 22.8887 221.416 23.4746 221.615 23.873C221.826 24.2715 222.16 24.5527 222.617 24.7168C223.074 24.8691 223.795 24.9746 224.779 25.0332V26H213.441V25.0332C214.566 25.0215 215.381 24.8809 215.885 24.6113C216.389 24.3418 216.688 23.9844 216.781 23.5391C216.875 23.082 216.922 22.332 216.922 21.2891V4.32617L208.186 26H207.166L198.535 5.01172V19.4082C198.535 21.0254 198.84 22.291 199.449 23.2051C200.07 24.1074 201.096 24.7168 202.525 25.0332V26H193.631V25.0332C194.885 24.9043 195.852 24.418 196.531 23.5742C197.211 22.7188 197.551 21.5234 197.551 19.9883V3.67578C197.07 3.14844 196.496 2.75586 195.828 2.49805C195.16 2.24023 194.428 2.12891 193.631 2.16406V1.19727H201.664L209.504 19.9883ZM218.627 21.9395V4.97656C218.627 3.59375 218.732 2.65625 218.943 2.16406C218.475 2.19922 218.141 2.33398 217.941 2.56836C217.742 2.79102 217.619 3.10742 217.572 3.51758C217.525 3.91602 217.502 4.56055 217.502 5.45117V22.3965C217.502 23.2402 217.414 23.8203 217.238 24.1367C217.074 24.4414 216.729 24.7402 216.201 25.0332H216.816C217.625 25.0332 218.129 24.8047 218.328 24.3477C218.527 23.8789 218.627 23.0762 218.627 21.9395ZM197.023 2.16406H196.373C197.1 2.44531 197.668 2.83789 198.078 3.3418C198.5 3.83398 198.928 4.60742 199.361 5.66211L207.5 25.0332C207.758 24.5645 207.887 24.1543 207.887 23.8027C207.887 23.4746 207.758 23.0059 207.5 22.3965L200.504 5.41602C200.07 4.30273 199.607 3.48242 199.115 2.95508C198.635 2.42773 197.938 2.16406 197.023 2.16406ZM195.652 25.0332H199.361C198.939 24.8105 198.594 24.5059 198.324 24.1191C198.066 23.7207 197.873 23.2578 197.744 22.7305C197.58 23.2109 197.322 23.6387 196.971 24.0137C196.631 24.377 196.191 24.7168 195.652 25.0332ZM237.682 10.6367H243.746V11.5332C243.172 11.7793 242.686 12.084 242.287 12.4473C241.889 12.7988 241.549 13.2031 241.268 13.6602C240.998 14.1055 240.699 14.6914 240.371 15.418C240.055 16.1328 239.738 16.9004 239.422 17.7207L234.693 29.7441C233.428 33.0137 231.74 34.6484 229.631 34.6484C228.939 34.6484 228.342 34.4551 227.838 34.0684C227.346 33.6934 227.1 33.2363 227.1 32.6973C227.1 32.2285 227.293 31.8359 227.68 31.5195C228.078 31.2031 228.547 31.0449 229.086 31.0449C229.344 31.0449 229.625 31.1094 229.93 31.2383C230.246 31.3672 230.551 31.4961 230.844 31.625C231.148 31.7656 231.424 31.8359 231.67 31.8359C232.443 31.8359 233.141 31.0332 233.762 29.4277L234.693 26.8965L229.402 14.5918C229.262 14.2285 229.104 13.8594 228.928 13.4844C228.764 13.0977 228.582 12.7637 228.383 12.4824C228.184 12.2012 227.932 11.9785 227.627 11.8145C227.322 11.6387 226.947 11.5449 226.502 11.5332V10.6367H235.643V11.5332C234.916 11.5801 234.359 11.6914 233.973 11.8672C233.598 12.0312 233.41 12.3594 233.41 12.8516C233.41 13.3555 233.574 14.0059 233.902 14.8027L236.82 21.5352L239.018 16.1387C239.311 15.4355 239.457 14.6797 239.457 13.8711C239.457 12.5586 238.865 11.7793 237.682 11.5332V10.6367ZM241.795 11.6035H239.018C239.369 11.8848 239.604 12.1777 239.721 12.4824C239.85 12.7754 239.943 13.2383 240.002 13.8711C240.271 13.2734 240.535 12.8164 240.793 12.5C241.051 12.1719 241.385 11.873 241.795 11.6035ZM235.062 26L235.643 24.5938L231.107 14.082C230.768 13.2852 230.48 12.7168 230.246 12.377C230.023 12.0254 229.754 11.7852 229.438 11.6562C229.133 11.5273 228.729 11.4863 228.225 11.5332C228.693 11.9551 229.01 12.3301 229.174 12.6582C229.35 12.9863 229.619 13.5723 229.982 14.416L235.062 26ZM230.246 34.1035C229.285 33.8809 228.805 33.4238 228.805 32.7324C228.805 32.2988 229.092 31.9414 229.666 31.6602C229.303 31.5547 229.051 31.502 228.91 31.502C228.547 31.502 228.248 31.6133 228.014 31.8359C227.791 32.0703 227.68 32.3457 227.68 32.6621C227.68 33.1309 227.902 33.5059 228.348 33.7871C228.793 34.0684 229.426 34.1738 230.246 34.1035ZM64.3613 56.7324V64.1855C64.3613 64.8887 64.4609 65.4336 64.6602 65.8203C64.8711 66.1953 65.1523 66.4648 65.5039 66.6289C65.8555 66.7812 66.3535 66.8809 66.998 66.9277C67.6426 66.9746 68.2402 67.0098 68.791 67.0332V68H56.0117V67.0332C56.9609 67.0098 57.6699 66.957 58.1387 66.875C58.6191 66.793 58.9941 66.6348 59.2637 66.4004C59.5449 66.166 59.7324 65.8672 59.8262 65.5039C59.9316 65.1289 59.9844 64.6191 59.9844 63.9746V48.4883C59.9844 47.1992 59.9258 46.2852 59.8086 45.7461C59.7031 45.207 59.3691 44.8086 58.8066 44.5508C58.2559 44.293 57.3242 44.1641 56.0117 44.1641V43.1973H68.1055C68.6445 43.1973 69.9336 43.291 71.9727 43.4785C72.6289 43.5371 73.3262 43.7305 74.0645 44.0586C74.8145 44.3867 75.5117 44.8379 76.1562 45.4121C76.8125 45.9746 77.3398 46.6484 77.7383 47.4336C78.1367 48.207 78.3359 49.0508 78.3359 49.9648C78.3359 50.9844 78.1309 51.9043 77.7207 52.7246C77.3223 53.5449 76.7012 54.2539 75.8574 54.8516C75.0254 55.4492 73.9707 55.9121 72.6934 56.2402C71.4277 56.5684 69.9512 56.7324 68.2637 56.7324H64.3613ZM60.5469 48.2773V64.8008C60.5469 65.9141 60.1191 66.6582 59.2637 67.0332H59.7207C61.0215 67.0332 61.6719 66.418 61.6719 65.1875V49.1035C61.6719 47.6621 61.6602 46.7188 61.6367 46.2734C61.625 45.8281 61.5488 45.4473 61.4082 45.1309C61.2793 44.8145 61.0391 44.5859 60.6875 44.4453C60.3477 44.293 59.8203 44.1875 59.1055 44.1289C59.5742 44.3516 59.9023 44.6035 60.0898 44.8848C60.2773 45.166 60.4004 45.5645 60.459 46.0801C60.5176 46.5957 60.5469 47.3281 60.5469 48.2773ZM64.3613 55.7656H66.8223C68.3105 55.7656 69.5469 55.5898 70.5312 55.2383C71.5156 54.875 72.2715 54.2715 72.7988 53.4277C73.3262 52.5723 73.5898 51.4297 73.5898 50C73.5898 47.8555 72.8691 46.25 71.4277 45.1836C70.8535 44.7617 70.2734 44.4863 69.6875 44.3574C69.1016 44.2285 68.375 44.1641 67.5078 44.1641C66.5117 44.1641 65.791 44.3047 65.3457 44.5859C64.9121 44.8672 64.6367 45.2891 64.5195 45.8516C64.4141 46.4141 64.3613 47.2461 64.3613 48.3477V55.7656ZM71.0938 55.5723C72.5 55.3613 73.5488 54.8047 74.2402 53.9023C74.9316 53 75.2773 51.7227 75.2773 50.0703C75.2773 48.3242 74.9258 47.0176 74.2227 46.1504C73.5195 45.2715 72.4648 44.6855 71.0586 44.3926C71.7266 44.7324 72.2949 45.1777 72.7637 45.7285C73.2324 46.2793 73.584 46.9238 73.8184 47.6621C74.0527 48.4004 74.1699 49.2031 74.1699 50.0703C74.1699 52.8594 73.1445 54.6934 71.0938 55.5723ZM80.8672 60.4414C80.8672 58.9414 81.2188 57.5703 81.9219 56.3281C82.6367 55.0859 83.6035 54.1133 84.8223 53.4102C86.0527 52.6953 87.4121 52.3379 88.9004 52.3379C90.3535 52.3379 91.6777 52.6836 92.873 53.375C94.0801 54.0664 95.0293 55.0215 95.7207 56.2402C96.4121 57.459 96.7578 58.8125 96.7578 60.3008C96.7578 61.4375 96.5469 62.5156 96.125 63.5352C95.7148 64.543 95.1406 65.416 94.4023 66.1543C93.6758 66.8809 92.8379 67.4434 91.8887 67.8418C90.9395 68.2402 89.9199 68.4395 88.8301 68.4395C87.3652 68.4395 86.0234 68.1055 84.8047 67.4375C83.5977 66.7695 82.6367 65.832 81.9219 64.625C81.2188 63.4062 80.8672 62.0117 80.8672 60.4414ZM87.1074 67.7539C85.584 66.8281 84.4414 65.7324 83.6797 64.4668C82.918 63.2012 82.5371 61.8125 82.5371 60.3008C82.5371 59.1523 82.7188 58.1445 83.082 57.2773C83.4453 56.4102 83.9199 55.666 84.5059 55.0449C85.1035 54.4121 85.8477 53.7617 86.7383 53.0938C85.5547 53.5156 84.5645 54.1074 83.7676 54.8691C82.9707 55.6309 82.3848 56.5039 82.0098 57.4883C81.6348 58.4609 81.4473 59.4922 81.4473 60.582C81.4473 61.3789 81.5703 62.1641 81.8164 62.9375C82.0625 63.7109 82.4199 64.4082 82.8887 65.0293C83.3691 65.6504 83.9609 66.1953 84.6641 66.6641C85.3672 67.1328 86.1816 67.4961 87.1074 67.7539ZM85.2266 59.4395C85.2266 61.9355 85.5898 63.8984 86.3164 65.3281C87.043 66.7461 87.9863 67.4551 89.1465 67.4551C89.7324 67.4551 90.2773 67.2148 90.7812 66.7344C91.2852 66.2422 91.6836 65.5215 91.9766 64.5723C92.2812 63.6113 92.4336 62.4395 92.4336 61.0566C92.4336 58.6191 92.1055 56.7207 91.4492 55.3613C90.8047 53.9902 89.9082 53.3047 88.7598 53.3047C87.6465 53.3047 86.7793 53.8203 86.1582 54.8516C85.5371 55.8711 85.2266 57.4004 85.2266 59.4395ZM91.4316 66.8398C92.3105 66.3594 92.9844 65.5977 93.4531 64.5547C93.9219 63.5117 94.1562 62.2344 94.1562 60.7227C94.1562 56.9961 93.0078 54.5645 90.7109 53.4277C91.5312 54.248 92.1172 55.2559 92.4688 56.4512C92.832 57.6465 93.0137 59.252 93.0137 61.2676C93.0137 62.5449 92.8789 63.6172 92.6094 64.4844C92.3516 65.3398 91.959 66.125 91.4316 66.8398ZM105.107 52.3379V55.0449C106.01 54.0254 106.701 53.3223 107.182 52.9355C107.662 52.5371 108.242 52.3379 108.922 52.3379C109.508 52.3379 110 52.5488 110.398 52.9707C110.809 53.3809 111.014 53.9023 111.014 54.5352C111.014 55.1914 110.832 55.7422 110.469 56.1875C110.105 56.6211 109.648 56.8379 109.098 56.8379C108.852 56.8379 108.582 56.791 108.289 56.6973C107.996 56.6035 107.75 56.4805 107.551 56.3281C107.434 56.2344 107.311 56.1348 107.182 56.0293C107.053 55.9238 106.936 55.8418 106.83 55.7832C106.736 55.7246 106.631 55.6953 106.514 55.6953C106.291 55.6953 106.068 55.7832 105.846 55.959C105.635 56.123 105.389 56.3574 105.107 56.6621V65.1523C105.107 65.7617 105.189 66.1953 105.354 66.4531C105.529 66.7109 105.793 66.875 106.145 66.9453C106.508 67.0039 107.135 67.0332 108.025 67.0332V68H98.5859V67.0332H99.0605C100.42 67.0332 101.1 66.4941 101.1 65.416V57.5234C101.1 56.1758 100.262 55.25 98.5859 54.7461V54.1484L104.246 52.3379H105.107ZM101.68 57.5234V65.5215C101.68 65.9199 101.615 66.2188 101.486 66.418C101.357 66.6055 101.17 66.8105 100.924 67.0332C101.592 66.9746 102.072 66.7988 102.365 66.5059C102.658 66.2012 102.805 65.6797 102.805 64.9414V57.5234C102.805 56.5156 102.629 55.7832 102.277 55.3262C101.926 54.8691 101.369 54.6406 100.607 54.6406C100.549 54.6406 100.42 54.6523 100.221 54.6758C100.021 54.6992 99.8867 54.7109 99.8164 54.7109C101.059 55.25 101.68 56.1875 101.68 57.5234ZM106.285 55.0449C106.602 55.0449 106.918 55.1504 107.234 55.3613C107.961 55.9355 108.57 56.2227 109.062 56.2227C109.672 56.2227 110.117 55.8301 110.398 55.0449C110.07 55.209 109.83 55.291 109.678 55.291C109.326 55.291 108.975 55.1738 108.623 54.9395C108.178 54.5762 107.809 54.3945 107.516 54.3945C107.234 54.3945 106.824 54.6113 106.285 55.0449ZM114.072 63.7461V53.7441H112.191V52.8477C113.223 52.0742 113.996 51.4824 114.512 51.0723C115.027 50.6504 115.514 50.1816 115.971 49.666C116.439 49.1504 116.838 48.6113 117.166 48.0488H118.098V52.6367H122.457V53.7441H118.098V64.2559C118.098 65.0293 118.191 65.6094 118.379 65.9961C118.566 66.3711 118.883 66.5586 119.328 66.5586C119.75 66.5586 120.137 66.4414 120.488 66.207C120.852 65.9727 121.291 65.6094 121.807 65.1172L122.457 65.8027C121.578 66.7051 120.77 67.3789 120.031 67.8242C119.305 68.2578 118.467 68.4746 117.518 68.4746C116.615 68.4746 115.912 68.2754 115.408 67.877C114.904 67.4785 114.553 66.9395 114.354 66.2598C114.166 65.5684 114.072 64.7305 114.072 63.7461ZM115.795 50.7559L114.635 51.7227V63.3945C114.635 64.9531 114.834 66.0898 115.232 66.8047C115.643 67.5078 116.369 67.8594 117.412 67.8594C117.963 67.8594 118.514 67.7715 119.064 67.5957C117.998 67.6309 117.184 67.3848 116.621 66.8574C116.07 66.3184 115.795 65.4277 115.795 64.1855V50.7559ZM125.709 65.4863V53.8496H123.213V52.6367H125.709V50.2461C125.709 48.7109 125.979 47.3809 126.518 46.2559C127.068 45.1191 127.854 44.2461 128.873 43.6367C129.893 43.0273 131.082 42.7227 132.441 42.7227C133.25 42.7227 133.947 42.8457 134.533 43.0918C135.131 43.3379 135.57 43.666 135.852 44.0762C136.145 44.4746 136.291 44.9141 136.291 45.3945C136.291 45.9336 136.098 46.4199 135.711 46.8535C135.336 47.2754 134.867 47.4863 134.305 47.4863C133.777 47.4863 133.338 47.2871 132.986 46.8887C132.646 46.4785 132.477 46.0391 132.477 45.5703C132.488 45.4531 132.494 45.3535 132.494 45.2715C132.506 45.1777 132.512 45.0488 132.512 44.8848C132.512 44.5215 132.4 44.2344 132.178 44.0234C131.955 43.8125 131.68 43.707 131.352 43.707C130.848 43.707 130.449 43.9531 130.156 44.4453C129.875 44.9258 129.734 45.623 129.734 46.5371V52.6367H133.004V53.8496H129.734V65.2227C129.734 65.6914 129.799 66.0605 129.928 66.3301C130.057 66.5879 130.285 66.7695 130.613 66.875C130.953 66.9805 131.404 67.0332 131.967 67.0332H132.547V68H123.371V67.0332C124.145 67.0098 124.725 66.8926 125.111 66.6816C125.51 66.459 125.709 66.0605 125.709 65.4863ZM126.271 50.2461V65.3633C126.271 66.1367 125.961 66.7402 125.34 67.1738C126.734 67.1738 127.432 66.5703 127.432 65.3633V50.2812C127.432 48.8984 127.578 47.7324 127.871 46.7832C128.176 45.8223 128.639 44.8906 129.26 43.9883C128.264 44.6797 127.514 45.5293 127.01 46.5371C126.518 47.5449 126.271 48.7812 126.271 50.2461ZM132.547 43.7773C132.852 44.1289 133.016 44.498 133.039 44.8848C133.062 45.1074 133.086 45.3477 133.109 45.6055C133.133 45.8516 133.18 46.0684 133.25 46.2559C133.32 46.4434 133.438 46.5957 133.602 46.7129C133.777 46.8184 134.012 46.8711 134.305 46.8711C134.891 46.8711 135.336 46.5605 135.641 45.9395C135.359 46.0332 135.166 46.0801 135.061 46.0801C134.627 46.0801 134.293 45.8516 134.059 45.3945C133.73 44.7148 133.508 44.3047 133.391 44.1641C133.273 44.0117 132.992 43.8828 132.547 43.7773ZM134.516 60.4414C134.516 58.9414 134.867 57.5703 135.57 56.3281C136.285 55.0859 137.252 54.1133 138.471 53.4102C139.701 52.6953 141.061 52.3379 142.549 52.3379C144.002 52.3379 145.326 52.6836 146.521 53.375C147.729 54.0664 148.678 55.0215 149.369 56.2402C150.061 57.459 150.406 58.8125 150.406 60.3008C150.406 61.4375 150.195 62.5156 149.773 63.5352C149.363 64.543 148.789 65.416 148.051 66.1543C147.324 66.8809 146.486 67.4434 145.537 67.8418C144.588 68.2402 143.568 68.4395 142.479 68.4395C141.014 68.4395 139.672 68.1055 138.453 67.4375C137.246 66.7695 136.285 65.832 135.57 64.625C134.867 63.4062 134.516 62.0117 134.516 60.4414ZM140.756 67.7539C139.232 66.8281 138.09 65.7324 137.328 64.4668C136.566 63.2012 136.186 61.8125 136.186 60.3008C136.186 59.1523 136.367 58.1445 136.73 57.2773C137.094 56.4102 137.568 55.666 138.154 55.0449C138.752 54.4121 139.496 53.7617 140.387 53.0938C139.203 53.5156 138.213 54.1074 137.416 54.8691C136.619 55.6309 136.033 56.5039 135.658 57.4883C135.283 58.4609 135.096 59.4922 135.096 60.582C135.096 61.3789 135.219 62.1641 135.465 62.9375C135.711 63.7109 136.068 64.4082 136.537 65.0293C137.018 65.6504 137.609 66.1953 138.312 66.6641C139.016 67.1328 139.83 67.4961 140.756 67.7539ZM138.875 59.4395C138.875 61.9355 139.238 63.8984 139.965 65.3281C140.691 66.7461 141.635 67.4551 142.795 67.4551C143.381 67.4551 143.926 67.2148 144.43 66.7344C144.934 66.2422 145.332 65.5215 145.625 64.5723C145.93 63.6113 146.082 62.4395 146.082 61.0566C146.082 58.6191 145.754 56.7207 145.098 55.3613C144.453 53.9902 143.557 53.3047 142.408 53.3047C141.295 53.3047 140.428 53.8203 139.807 54.8516C139.186 55.8711 138.875 57.4004 138.875 59.4395ZM145.08 66.8398C145.959 66.3594 146.633 65.5977 147.102 64.5547C147.57 63.5117 147.805 62.2344 147.805 60.7227C147.805 56.9961 146.656 54.5645 144.359 53.4277C145.18 54.248 145.766 55.2559 146.117 56.4512C146.48 57.6465 146.662 59.252 146.662 61.2676C146.662 62.5449 146.527 63.6172 146.258 64.4844C146 65.3398 145.607 66.125 145.08 66.8398ZM154.467 65.2578V48.5938C154.467 47.7031 154.326 47.0059 154.045 46.502C153.764 45.998 153.113 45.5586 152.094 45.1836V44.498L157.807 42.6172H158.492V64.6074C158.492 65.5215 158.592 66.1543 158.791 66.5059C159.002 66.8574 159.529 67.0332 160.373 67.0332H160.848V68H152.094V67.0332H152.516C153.207 67.0332 153.705 66.8867 154.01 66.5938C154.314 66.3008 154.467 65.8555 154.467 65.2578ZM156.189 64.5371V48.6992C156.189 47.8672 156.148 47.2051 156.066 46.7129C155.996 46.209 155.779 45.793 155.416 45.4648C155.064 45.125 154.496 44.9551 153.711 44.9551C153.324 44.9551 153.014 44.9668 152.779 44.9902C153.857 45.2949 154.502 45.7461 154.713 46.3438C154.936 46.9414 155.047 47.7266 155.047 48.6992V65.1523C155.047 65.9492 154.807 66.5762 154.326 67.0332C155.146 66.998 155.662 66.7754 155.873 66.3652C156.084 65.9434 156.189 65.334 156.189 64.5371ZM168.195 52.3379V65.0469C168.195 65.5859 168.248 65.9961 168.354 66.2773C168.471 66.5469 168.682 66.7344 168.986 66.8398C169.303 66.9453 169.783 67.0098 170.428 67.0332V68H162.219V67.0332C162.945 67.0098 163.449 66.8633 163.73 66.5938C164.023 66.3242 164.17 65.8438 164.17 65.1523V57.084C164.17 56.5801 164 56.1113 163.66 55.6777C163.32 55.2441 162.84 54.9219 162.219 54.7109V54.1484L167.475 52.3379H168.195ZM164.75 57.1367V65.4863C164.75 66.166 164.51 66.6816 164.029 67.0332C164.674 67.0332 165.143 66.8867 165.436 66.5938C165.74 66.3008 165.893 65.8203 165.893 65.1523V56.9082C165.893 56.1582 165.711 55.584 165.348 55.1855C164.984 54.7754 164.51 54.5703 163.924 54.5703C163.654 54.5703 163.438 54.582 163.273 54.6055C164.258 55.1211 164.75 55.9648 164.75 57.1367ZM166.033 43.7773C166.479 43.7773 166.895 43.8887 167.281 44.1113C167.668 44.3223 167.973 44.6152 168.195 44.9902C168.418 45.3652 168.529 45.7754 168.529 46.2207C168.529 46.666 168.418 47.082 168.195 47.4688C167.973 47.8438 167.668 48.1426 167.281 48.3652C166.895 48.5879 166.479 48.6992 166.033 48.6992C165.365 48.6992 164.791 48.4531 164.311 47.9609C163.83 47.4688 163.59 46.8887 163.59 46.2207C163.59 45.7871 163.695 45.3828 163.906 45.0078C164.129 44.6211 164.428 44.3223 164.803 44.1113C165.189 43.8887 165.6 43.7773 166.033 43.7773ZM166.332 44.3398C165.641 44.3398 165.107 44.5039 164.732 44.832C164.357 45.1602 164.17 45.6113 164.17 46.1855C164.17 46.7363 164.352 47.1934 164.715 47.5566C165.078 47.9082 165.617 48.1016 166.332 48.1367C165.957 47.7969 165.682 47.498 165.506 47.2402C165.33 46.9707 165.242 46.6309 165.242 46.2207C165.242 45.459 165.605 44.832 166.332 44.3398ZM172.062 60.4414C172.062 58.9414 172.414 57.5703 173.117 56.3281C173.832 55.0859 174.799 54.1133 176.018 53.4102C177.248 52.6953 178.607 52.3379 180.096 52.3379C181.549 52.3379 182.873 52.6836 184.068 53.375C185.275 54.0664 186.225 55.0215 186.916 56.2402C187.607 57.459 187.953 58.8125 187.953 60.3008C187.953 61.4375 187.742 62.5156 187.32 63.5352C186.91 64.543 186.336 65.416 185.598 66.1543C184.871 66.8809 184.033 67.4434 183.084 67.8418C182.135 68.2402 181.115 68.4395 180.025 68.4395C178.561 68.4395 177.219 68.1055 176 67.4375C174.793 66.7695 173.832 65.832 173.117 64.625C172.414 63.4062 172.062 62.0117 172.062 60.4414ZM178.303 67.7539C176.779 66.8281 175.637 65.7324 174.875 64.4668C174.113 63.2012 173.732 61.8125 173.732 60.3008C173.732 59.1523 173.914 58.1445 174.277 57.2773C174.641 56.4102 175.115 55.666 175.701 55.0449C176.299 54.4121 177.043 53.7617 177.934 53.0938C176.75 53.5156 175.76 54.1074 174.963 54.8691C174.166 55.6309 173.58 56.5039 173.205 57.4883C172.83 58.4609 172.643 59.4922 172.643 60.582C172.643 61.3789 172.766 62.1641 173.012 62.9375C173.258 63.7109 173.615 64.4082 174.084 65.0293C174.564 65.6504 175.156 66.1953 175.859 66.6641C176.562 67.1328 177.377 67.4961 178.303 67.7539ZM176.422 59.4395C176.422 61.9355 176.785 63.8984 177.512 65.3281C178.238 66.7461 179.182 67.4551 180.342 67.4551C180.928 67.4551 181.473 67.2148 181.977 66.7344C182.48 66.2422 182.879 65.5215 183.172 64.5723C183.477 63.6113 183.629 62.4395 183.629 61.0566C183.629 58.6191 183.301 56.7207 182.645 55.3613C182 53.9902 181.104 53.3047 179.955 53.3047C178.842 53.3047 177.975 53.8203 177.354 54.8516C176.732 55.8711 176.422 57.4004 176.422 59.4395ZM182.627 66.8398C183.506 66.3594 184.18 65.5977 184.648 64.5547C185.117 63.5117 185.352 62.2344 185.352 60.7227C185.352 56.9961 184.203 54.5645 181.906 53.4277C182.727 54.248 183.312 55.2559 183.664 56.4512C184.027 57.6465 184.209 59.252 184.209 61.2676C184.209 62.5449 184.074 63.6172 183.805 64.4844C183.547 65.3398 183.154 66.125 182.627 66.8398Z" fill="black"/>
</g>
<defs>
<filter id="filter0_d_1_3" x="0.376953" y="0.617188" width="249.369" height="78.8574" filterUnits="userSpaceOnUse" color-interpolation-filters="sRGB">
<feFlood flood-opacity="0" result="BackgroundImageFix"/>
<feColorMatrix in="SourceAlpha" type="matrix" values="0 0 0 0 0 0 0 0 0 0 0 0 0 0 0 0 0 0 127 0" result="hardAlpha"/>
<feOffset dx="3" dy="8"/>
<feGaussianBlur stdDeviation="1.5"/>
<feComposite in2="hardAlpha" operator="out"/>
<feColorMatrix type="matrix" values="0 0 0 0 0.0333333 0 0 0 0 0.0333333 0 0 0 0 0.0333333 0 0 0 0.25 0"/>
<feBlend mode="normal" in2="BackgroundImageFix" result="effect1_dropShadow_1_3"/>
<feBlend mode="normal" in="SourceGraphic" in2="effect1_dropShadow_1_3" result="shape"/>
</filter>
</defs>
</svg>
