<svg width="409" height="99" viewBox="0 0 409 99" fill="none" xmlns="http://www.w3.org/2000/svg">
<g filter="url(#filter0_d_1_3)">
<path d="M38.5391 9.19727H46.4492V10.1641C45.5938 10.5508 44.8379 11.2012 44.1816 12.1152C43.5371 13.0293 42.916 14.3359 42.3184 16.0352L35.9023 34.4746H34.9004L28.1328 15.1387L21.4004 34.4746H20.4688L13.7715 15.1387C13.1738 13.416 12.752 12.2852 12.5059 11.7461C12.2715 11.207 11.9609 10.8086 11.5742 10.5508C11.1992 10.293 10.6367 10.1641 9.88672 10.1641V9.19727H20.2402V10.1641C20.1699 10.1523 20.1055 10.1465 20.0469 10.1465C20 10.1348 19.9238 10.1289 19.8184 10.1289C18.2363 10.1289 17.4453 10.6094 17.4453 11.5703C17.4453 12.0742 17.6328 12.9004 18.0078 14.0488L22.7363 27.6719L27.5879 13.7676C27.3066 12.8301 27.0254 12.1211 26.7441 11.6406C26.4629 11.1484 26.1758 10.8027 25.8828 10.6035C25.5898 10.4043 25.3379 10.293 25.127 10.2695C24.9277 10.2344 24.5 10.1992 23.8438 10.1641V9.19727H34.4961V10.1641C33.6523 10.1875 32.9844 10.2813 32.4922 10.4453C32.0117 10.6094 31.7715 10.9609 31.7715 11.5C31.7715 12.0625 32.0469 13.1055 32.5977 14.6289L37.168 27.6719L40.9121 16.8965C41.1465 16.2637 41.3398 15.6484 41.4922 15.0508C41.6562 14.4531 41.7383 13.9082 41.7383 13.416C41.7383 12.3613 41.4746 11.582 40.9473 11.0781C40.4199 10.5625 39.6172 10.2578 38.5391 10.1641V9.19727ZM44.1816 10.1641H40.7012C41.2637 10.5156 41.6504 10.9141 41.8613 11.3594C42.084 11.793 42.2129 12.332 42.248 12.9766C42.4941 12.3789 42.7695 11.8457 43.0742 11.377C43.3789 10.9082 43.748 10.5039 44.1816 10.1641ZM28.168 13.4863L35.1465 33.3848C35.4863 32.6816 35.6562 32.1191 35.6562 31.6973C35.6562 31.4277 35.5391 30.959 35.3047 30.291L29.2051 12.9766C28.8887 12.1094 28.6426 11.5176 28.4668 11.2012C28.3027 10.8848 28.0566 10.6387 27.7285 10.4629C27.4004 10.2754 26.9082 10.1758 26.252 10.1641C26.9434 10.7266 27.582 11.834 28.168 13.4863ZM13.877 13.7676L20.7148 33.4902C20.7969 33.3145 20.8672 33.1621 20.9258 33.0332C20.9961 32.8926 21.0605 32.7227 21.1191 32.5234C21.1895 32.3125 21.2246 32.1309 21.2246 31.9785C21.2246 31.5449 21.125 31.0762 20.9258 30.5723L15.1074 13.7676C14.6973 12.584 14.375 11.7637 14.1406 11.3066C13.918 10.8496 13.6367 10.5332 13.2969 10.3574C12.9688 10.1816 12.5 10.1172 11.8906 10.1641C12.3125 10.4453 12.6582 10.8555 12.9277 11.3945C13.1973 11.9219 13.5137 12.7129 13.877 13.7676ZM61.584 29.6406L62.2871 30.1855C61.7598 31.1699 61.1328 31.9785 60.4062 32.6113C59.6797 33.2441 58.877 33.7129 57.998 34.0176C57.1309 34.3223 56.2227 34.4746 55.2734 34.4746C53.9844 34.4746 52.7832 34.1641 51.6699 33.543C50.5684 32.9219 49.6953 32.0254 49.0508 30.8535C48.4062 29.6816 48.084 28.3516 48.084 26.8633C48.084 25.6914 48.2773 24.5898 48.6641 23.5586C49.0625 22.5273 49.6074 21.6191 50.2988 20.834C51.002 20.0488 51.8105 19.4395 52.7246 19.0059C53.6504 18.5605 54.6348 18.3379 55.6777 18.3379C56.7324 18.3379 57.7344 18.5605 58.6836 19.0059C59.6445 19.4395 60.4062 20.043 60.9688 20.8164C61.3789 21.3789 61.6719 21.959 61.8477 22.5566C62.0352 23.1426 62.1816 23.8516 62.2871 24.6836H51.6699C51.7168 25.9023 51.9219 26.9336 52.2852 27.7773C52.6602 28.6211 53.1406 29.3008 53.7266 29.8164C54.3242 30.332 54.957 30.7012 55.625 30.9238C56.293 31.1465 56.9316 31.2578 57.541 31.2578C59.0176 31.2578 60.3652 30.7188 61.584 29.6406ZM58.4727 23.5586H59.7031C59.668 22.2461 59.3984 21.2793 58.8945 20.6582C58.3906 20.0254 57.5469 19.6035 56.3633 19.3926C57.1133 19.7324 57.6523 20.1777 57.9805 20.7285C58.3086 21.2676 58.4727 22.0938 58.4727 23.207V23.5586ZM51.7754 23.5586H57.9102V22.9785C57.9102 22.2988 57.7871 21.6953 57.541 21.168C57.2949 20.6289 56.9551 20.2188 56.5215 19.9375C56.0996 19.6445 55.6133 19.498 55.0625 19.498C54.1719 19.498 53.416 19.8965 52.7949 20.6934C52.1738 21.4785 51.834 22.4336 51.7754 23.5586ZM51.9336 20.0957C49.7422 21.8301 48.6465 24.1035 48.6465 26.916C48.6465 28.9551 49.2969 30.625 50.5977 31.9258C51.9102 33.2148 53.4219 33.8594 55.1328 33.8594C56.1289 33.8594 57.125 33.6602 58.1211 33.2617C59.1289 32.8516 59.9785 32.248 60.6699 31.4512C59.9551 31.9082 59.2227 32.2832 58.4727 32.5762C57.7344 32.8574 56.8496 32.998 55.8184 32.998C54.0723 32.998 52.6133 32.3887 51.4414 31.1699C50.2812 29.9512 49.7012 28.3633 49.7012 26.4062C49.7012 25.1641 49.8945 24.0508 50.2812 23.0664C50.668 22.082 51.2188 21.0918 51.9336 20.0957ZM66.084 31.2578V14.5938C66.084 13.7031 65.9434 13.0059 65.6621 12.502C65.3809 11.998 64.7305 11.5586 63.7109 11.1836V10.498L69.4238 8.61719H70.1094V30.6074C70.1094 31.5215 70.209 32.1543 70.4082 32.5059C70.6191 32.8574 71.1465 33.0332 71.9902 33.0332H72.4648V34H63.7109V33.0332H64.1328C64.8242 33.0332 65.3223 32.8867 65.627 32.5938C65.9316 32.3008 66.084 31.8555 66.084 31.2578ZM67.8066 30.5371V14.6992C67.8066 13.8672 67.7656 13.2051 67.6836 12.7129C67.6133 12.209 67.3965 11.793 67.0332 11.4648C66.6816 11.125 66.1133 10.9551 65.3281 10.9551C64.9414 10.9551 64.6309 10.9668 64.3965 10.9902C65.4746 11.2949 66.1191 11.7461 66.3301 12.3438C66.5527 12.9414 66.6641 13.7266 66.6641 14.6992V31.1523C66.6641 31.9492 66.4238 32.5762 65.9434 33.0332C66.7637 32.998 67.2793 32.7754 67.4902 32.3652C67.7012 31.9434 67.8066 31.334 67.8066 30.5371ZM84.418 20.4297C84.418 20.1133 84.2539 19.8496 83.9258 19.6387C83.5977 19.416 83.1992 19.3047 82.7305 19.3047C81.8516 19.3047 81.0547 19.5625 80.3398 20.0781C79.625 20.582 79.0625 21.3145 78.6523 22.2754C78.2539 23.2246 78.0547 24.3027 78.0547 25.5098C78.0547 26.623 78.2891 27.6367 78.7578 28.5508C79.2383 29.4531 79.877 30.1562 80.6738 30.6602C81.4824 31.1641 82.3613 31.416 83.3105 31.416C84.0957 31.416 84.916 31.2402 85.7715 30.8887C86.6387 30.5254 87.3301 30.0625 87.8457 29.5L88.4609 30.3262C87.5352 31.6621 86.4219 32.6875 85.1211 33.4023C83.832 34.1172 82.5195 34.4746 81.1836 34.4746C79.9414 34.4746 78.752 34.1348 77.6152 33.4551C76.4902 32.7754 75.5879 31.8555 74.9082 30.6953C74.2402 29.5234 73.9062 28.2461 73.9062 26.8633C73.9062 25.7383 74.1113 24.666 74.5215 23.6465C74.9316 22.627 75.5176 21.7188 76.2793 20.9219C77.0527 20.1133 77.9668 19.4805 79.0215 19.0234C80.0762 18.5664 81.2422 18.3379 82.5195 18.3379C83.5508 18.3379 84.4883 18.4961 85.332 18.8125C86.1758 19.1172 86.8379 19.5449 87.3184 20.0957C87.8105 20.6465 88.0566 21.25 88.0566 21.9062C88.0566 22.4805 87.8457 22.9551 87.4238 23.3301C87.002 23.7051 86.5039 23.8926 85.9297 23.8926C85.4023 23.8926 84.9629 23.7109 84.6113 23.3477C84.2715 22.9727 84.1016 22.5742 84.1016 22.1523C84.1016 22.0703 84.1543 21.8066 84.2598 21.3613C84.3652 20.9043 84.418 20.5938 84.418 20.4297ZM84.6816 22.1523C84.6816 22.5273 84.8223 22.8086 85.1035 22.9961C85.3965 23.1836 85.7129 23.2773 86.0527 23.2773C86.1582 23.2773 86.4453 23.2305 86.9141 23.1367C86.1875 22.9844 85.8242 22.6094 85.8242 22.0117C85.8242 21.9648 85.8477 21.8301 85.8945 21.6074C85.9531 21.3848 85.9824 21.1973 85.9824 21.0449C85.9824 20.4004 85.5254 19.9082 84.6113 19.5684C84.8691 19.9316 84.998 20.2656 84.998 20.5703C84.998 20.7695 84.9453 21.0391 84.8398 21.3789C84.7344 21.7188 84.6816 21.9766 84.6816 22.1523ZM79.7422 19.4277C78.6172 19.8496 77.6621 20.4297 76.877 21.168C76.1035 21.9062 75.5117 22.7676 75.1016 23.752C74.6914 24.7246 74.4863 25.7148 74.4863 26.7227C74.4863 28.0938 74.8145 29.3242 75.4707 30.4141C76.127 31.5039 76.9883 32.3535 78.0547 32.9629C79.1328 33.5605 80.2227 33.8594 81.3242 33.8594C82.9297 33.8594 84.4414 33.332 85.8594 32.2773C84.3242 32.7812 83.0879 33.0332 82.1504 33.0332C80.9551 33.0332 79.8594 32.7637 78.8633 32.2246C77.8672 31.6855 77.0762 30.9355 76.4902 29.9746C75.9043 29.0137 75.6113 27.9414 75.6113 26.7578C75.6113 25.3867 75.9629 24.0742 76.666 22.8203C77.3809 21.5547 78.4062 20.4238 79.7422 19.4277ZM90.043 26.4414C90.043 24.9414 90.3945 23.5703 91.0977 22.3281C91.8125 21.0859 92.7793 20.1133 93.998 19.4102C95.2285 18.6953 96.5879 18.3379 98.0762 18.3379C99.5293 18.3379 100.854 18.6836 102.049 19.375C103.256 20.0664 104.205 21.0215 104.896 22.2402C105.588 23.459 105.934 24.8125 105.934 26.3008C105.934 27.4375 105.723 28.5156 105.301 29.5352C104.891 30.543 104.316 31.416 103.578 32.1543C102.852 32.8809 102.014 33.4434 101.064 33.8418C100.115 34.2402 99.0957 34.4395 98.0059 34.4395C96.541 34.4395 95.1992 34.1055 93.9805 33.4375C92.7734 32.7695 91.8125 31.832 91.0977 30.625C90.3945 29.4062 90.043 28.0117 90.043 26.4414ZM96.2832 33.7539C94.7598 32.8281 93.6172 31.7324 92.8555 30.4668C92.0938 29.2012 91.7129 27.8125 91.7129 26.3008C91.7129 25.1523 91.8945 24.1445 92.2578 23.2773C92.6211 22.4102 93.0957 21.666 93.6816 21.0449C94.2793 20.4121 95.0234 19.7617 95.9141 19.0938C94.7305 19.5156 93.7402 20.1074 92.9434 20.8691C92.1465 21.6309 91.5605 22.5039 91.1855 23.4883C90.8105 24.4609 90.623 25.4922 90.623 26.582C90.623 27.3789 90.7461 28.1641 90.9922 28.9375C91.2383 29.7109 91.5957 30.4082 92.0645 31.0293C92.5449 31.6504 93.1367 32.1953 93.8398 32.6641C94.543 33.1328 95.3574 33.4961 96.2832 33.7539ZM94.4023 25.4395C94.4023 27.9355 94.7656 29.8984 95.4922 31.3281C96.2188 32.7461 97.1621 33.4551 98.3223 33.4551C98.9082 33.4551 99.4531 33.2148 99.957 32.7344C100.461 32.2422 100.859 31.5215 101.152 30.5723C101.457 29.6113 101.609 28.4395 101.609 27.0566C101.609 24.6191 101.281 22.7207 100.625 21.3613C99.9805 19.9902 99.084 19.3047 97.9355 19.3047C96.8223 19.3047 95.9551 19.8203 95.334 20.8516C94.7129 21.8711 94.4023 23.4004 94.4023 25.4395ZM100.607 32.8398C101.486 32.3594 102.16 31.5977 102.629 30.5547C103.098 29.5117 103.332 28.2344 103.332 26.7227C103.332 22.9961 102.184 20.5645 99.8867 19.4277C100.707 20.248 101.293 21.2559 101.645 22.4512C102.008 23.6465 102.189 25.252 102.189 27.2676C102.189 28.5449 102.055 29.6172 101.785 30.4844C101.527 31.3398 101.135 32.125 100.607 32.8398ZM124.936 21.9414V30.9766C124.936 31.6094 125.035 32.1016 125.234 32.4531C125.434 32.8047 125.768 32.9863 126.236 32.998C126.424 32.998 126.582 33.0039 126.711 33.0156C126.84 33.0156 126.98 33.0215 127.133 33.0332V34H118.678V33.0332C119.604 33.0684 120.207 32.9336 120.488 32.6289C120.77 32.3242 120.91 31.7852 120.91 31.0117V23.2773C120.91 20.9453 120.102 19.7793 118.484 19.7793C117.887 19.7793 117.184 19.9844 116.375 20.3945C115.578 20.8047 114.881 21.3203 114.283 21.9414V31.3281C114.283 32.0195 114.465 32.4766 114.828 32.6992C115.203 32.9219 115.777 33.0332 116.551 33.0332V34H107.902V33.0332H108.131C108.705 33.0332 109.145 32.9688 109.449 32.8398C109.766 32.7109 109.971 32.5 110.064 32.207C110.158 31.9023 110.205 31.5039 110.205 31.0117V23.8398C110.205 22.9961 110.064 22.3574 109.783 21.9238C109.514 21.4902 108.922 21.0977 108.008 20.7461V20.1484L113.703 18.3379H114.283V20.7461C115.221 19.9609 116.176 19.3633 117.148 18.9531C118.133 18.543 119.094 18.3379 120.031 18.3379C120.664 18.3379 121.279 18.4375 121.877 18.6367C122.486 18.8359 123.031 19.1348 123.512 19.5332C123.992 19.9199 124.361 20.3887 124.619 20.9395C125.615 20.084 126.605 19.4395 127.59 19.0059C128.586 18.5605 129.623 18.3379 130.701 18.3379C131.697 18.3379 132.564 18.5195 133.303 18.8828C134.041 19.2344 134.609 19.791 135.008 20.5527C135.418 21.3145 135.623 22.2461 135.623 23.3477V31.3281C135.623 31.7617 135.688 32.0957 135.816 32.3301C135.957 32.5645 136.186 32.7402 136.502 32.8574C136.83 32.9746 137.281 33.0332 137.855 33.0332V34H129.33V33.0332H129.752C130.408 33.0332 130.877 32.8984 131.158 32.6289C131.451 32.3477 131.598 31.8672 131.598 31.1875V23.6289C131.598 22.4102 131.428 21.4668 131.088 20.7988C130.76 20.1191 130.127 19.7793 129.189 19.7793C127.9 19.7793 126.482 20.5 124.936 21.9414ZM122.633 30.4668V22.6973C122.633 21.5371 122.363 20.6934 121.824 20.166C121.285 19.6387 120.512 19.4277 119.504 19.5332C120.336 19.791 120.869 20.2305 121.104 20.8516C121.35 21.4609 121.473 22.375 121.473 23.5938V31.2578C121.473 31.75 121.414 32.1309 121.297 32.4004C121.191 32.6582 120.986 32.9043 120.682 33.1387C121.561 33.0801 122.105 32.8516 122.316 32.4531C122.527 32.043 122.633 31.3809 122.633 30.4668ZM133.32 30.6074V22.8027C133.32 22.123 133.238 21.5488 133.074 21.0801C132.922 20.5996 132.605 20.2188 132.125 19.9375C131.645 19.6562 130.941 19.5215 130.016 19.5332C130.871 19.8262 131.445 20.2188 131.738 20.7109C132.031 21.1914 132.178 21.9238 132.178 22.9082V30.3262C132.178 31.2402 132.137 31.873 132.055 32.2246C131.973 32.5645 131.732 32.8809 131.334 33.1738C131.908 33.1855 132.342 33.0742 132.635 32.8398C132.939 32.6055 133.127 32.3008 133.197 31.9258C133.279 31.5508 133.32 31.1113 133.32 30.6074ZM111.98 30.7305V23.2773C111.98 22.4102 111.787 21.7598 111.4 21.3262C111.025 20.8926 110.533 20.6758 109.924 20.6758C109.795 20.6758 109.52 20.6992 109.098 20.7461C109.812 20.9922 110.27 21.3848 110.469 21.9238C110.68 22.4512 110.785 23.2246 110.785 24.2441V30.2207C110.785 31.1582 110.744 31.7969 110.662 32.1367C110.592 32.4766 110.393 32.7754 110.064 33.0332C110.92 33.0215 111.453 32.8164 111.664 32.418C111.875 32.0195 111.98 31.457 111.98 30.7305ZM153.131 29.6406L153.834 30.1855C153.307 31.1699 152.68 31.9785 151.953 32.6113C151.227 33.2441 150.424 33.7129 149.545 34.0176C148.678 34.3223 147.77 34.4746 146.82 34.4746C145.531 34.4746 144.33 34.1641 143.217 33.543C142.115 32.9219 141.242 32.0254 140.598 30.8535C139.953 29.6816 139.631 28.3516 139.631 26.8633C139.631 25.6914 139.824 24.5898 140.211 23.5586C140.609 22.5273 141.154 21.6191 141.846 20.834C142.549 20.0488 143.357 19.4395 144.271 19.0059C145.197 18.5605 146.182 18.3379 147.225 18.3379C148.279 18.3379 149.281 18.5605 150.23 19.0059C151.191 19.4395 151.953 20.043 152.516 20.8164C152.926 21.3789 153.219 21.959 153.395 22.5566C153.582 23.1426 153.729 23.8516 153.834 24.6836H143.217C143.264 25.9023 143.469 26.9336 143.832 27.7773C144.207 28.6211 144.688 29.3008 145.273 29.8164C145.871 30.332 146.504 30.7012 147.172 30.9238C147.84 31.1465 148.479 31.2578 149.088 31.2578C150.564 31.2578 151.912 30.7188 153.131 29.6406ZM150.02 23.5586H151.25C151.215 22.2461 150.945 21.2793 150.441 20.6582C149.938 20.0254 149.094 19.6035 147.91 19.3926C148.66 19.7324 149.199 20.1777 149.527 20.7285C149.855 21.2676 150.02 22.0938 150.02 23.207V23.5586ZM143.322 23.5586H149.457V22.9785C149.457 22.2988 149.334 21.6953 149.088 21.168C148.842 20.6289 148.502 20.2188 148.068 19.9375C147.646 19.6445 147.16 19.498 146.609 19.498C145.719 19.498 144.963 19.8965 144.342 20.6934C143.721 21.4785 143.381 22.4336 143.322 23.5586ZM143.48 20.0957C141.289 21.8301 140.193 24.1035 140.193 26.916C140.193 28.9551 140.844 30.625 142.145 31.9258C143.457 33.2148 144.969 33.8594 146.68 33.8594C147.676 33.8594 148.672 33.6602 149.668 33.2617C150.676 32.8516 151.525 32.248 152.217 31.4512C151.502 31.9082 150.77 32.2832 150.02 32.5762C149.281 32.8574 148.396 32.998 147.365 32.998C145.619 32.998 144.16 32.3887 142.988 31.1699C141.828 29.9512 141.248 28.3633 141.248 26.4062C141.248 25.1641 141.441 24.0508 141.828 23.0664C142.215 22.082 142.766 21.0918 143.48 20.0957ZM166.385 29.7461V19.7441H164.504V18.8477C165.535 18.0742 166.309 17.4824 166.824 17.0723C167.34 16.6504 167.826 16.1816 168.283 15.666C168.752 15.1504 169.15 14.6113 169.479 14.0488H170.41V18.6367H174.77V19.7441H170.41V30.2559C170.41 31.0293 170.504 31.6094 170.691 31.9961C170.879 32.3711 171.195 32.5586 171.641 32.5586C172.062 32.5586 172.449 32.4414 172.801 32.207C173.164 31.9727 173.604 31.6094 174.119 31.1172L174.77 31.8027C173.891 32.7051 173.082 33.3789 172.344 33.8242C171.617 34.2578 170.779 34.4746 169.83 34.4746C168.928 34.4746 168.225 34.2754 167.721 33.877C167.217 33.4785 166.865 32.9395 166.666 32.2598C166.479 31.5684 166.385 30.7305 166.385 29.7461ZM168.107 16.7559L166.947 17.7227V29.3945C166.947 30.9531 167.146 32.0898 167.545 32.8047C167.955 33.5078 168.682 33.8594 169.725 33.8594C170.275 33.8594 170.826 33.7715 171.377 33.5957C170.311 33.6309 169.496 33.3848 168.934 32.8574C168.383 32.3184 168.107 31.4277 168.107 30.1855V16.7559ZM176.316 26.4414C176.316 24.9414 176.668 23.5703 177.371 22.3281C178.086 21.0859 179.053 20.1133 180.271 19.4102C181.502 18.6953 182.861 18.3379 184.35 18.3379C185.803 18.3379 187.127 18.6836 188.322 19.375C189.529 20.0664 190.479 21.0215 191.17 22.2402C191.861 23.459 192.207 24.8125 192.207 26.3008C192.207 27.4375 191.996 28.5156 191.574 29.5352C191.164 30.543 190.59 31.416 189.852 32.1543C189.125 32.8809 188.287 33.4434 187.338 33.8418C186.389 34.2402 185.369 34.4395 184.279 34.4395C182.814 34.4395 181.473 34.1055 180.254 33.4375C179.047 32.7695 178.086 31.832 177.371 30.625C176.668 29.4062 176.316 28.0117 176.316 26.4414ZM182.557 33.7539C181.033 32.8281 179.891 31.7324 179.129 30.4668C178.367 29.2012 177.986 27.8125 177.986 26.3008C177.986 25.1523 178.168 24.1445 178.531 23.2773C178.895 22.4102 179.369 21.666 179.955 21.0449C180.553 20.4121 181.297 19.7617 182.188 19.0938C181.004 19.5156 180.014 20.1074 179.217 20.8691C178.42 21.6309 177.834 22.5039 177.459 23.4883C177.084 24.4609 176.896 25.4922 176.896 26.582C176.896 27.3789 177.02 28.1641 177.266 28.9375C177.512 29.7109 177.869 30.4082 178.338 31.0293C178.818 31.6504 179.41 32.1953 180.113 32.6641C180.816 33.1328 181.631 33.4961 182.557 33.7539ZM180.676 25.4395C180.676 27.9355 181.039 29.8984 181.766 31.3281C182.492 32.7461 183.436 33.4551 184.596 33.4551C185.182 33.4551 185.727 33.2148 186.23 32.7344C186.734 32.2422 187.133 31.5215 187.426 30.5723C187.73 29.6113 187.883 28.4395 187.883 27.0566C187.883 24.6191 187.555 22.7207 186.898 21.3613C186.254 19.9902 185.357 19.3047 184.209 19.3047C183.096 19.3047 182.229 19.8203 181.607 20.8516C180.986 21.8711 180.676 23.4004 180.676 25.4395ZM186.881 32.8398C187.76 32.3594 188.434 31.5977 188.902 30.5547C189.371 29.5117 189.605 28.2344 189.605 26.7227C189.605 22.9961 188.457 20.5645 186.16 19.4277C186.98 20.248 187.566 21.2559 187.918 22.4512C188.281 23.6465 188.463 25.252 188.463 27.2676C188.463 28.5449 188.328 29.6172 188.059 30.4844C187.801 31.3398 187.408 32.125 186.881 32.8398ZM219.014 27.9883L226.695 9.19727H234.289V10.1641C233.105 10.1758 232.273 10.3281 231.793 10.6211C231.312 10.9141 231.031 11.3359 230.949 11.8867C230.867 12.4375 230.826 13.4512 230.826 14.9277V30.1152C230.826 30.8887 230.926 31.4746 231.125 31.873C231.336 32.2715 231.67 32.5527 232.127 32.7168C232.584 32.8691 233.305 32.9746 234.289 33.0332V34H222.951V33.0332C224.076 33.0215 224.891 32.8809 225.395 32.6113C225.898 32.3418 226.197 31.9844 226.291 31.5391C226.385 31.082 226.432 30.332 226.432 29.2891V12.3262L217.695 34H216.676L208.045 13.0117V27.4082C208.045 29.0254 208.35 30.291 208.959 31.2051C209.58 32.1074 210.605 32.7168 212.035 33.0332V34H203.141V33.0332C204.395 32.9043 205.361 32.418 206.041 31.5742C206.721 30.7188 207.061 29.5234 207.061 27.9883V11.6758C206.58 11.1484 206.006 10.7559 205.338 10.498C204.67 10.2402 203.938 10.1289 203.141 10.1641V9.19727H211.174L219.014 27.9883ZM228.137 29.9395V12.9766C228.137 11.5937 228.242 10.6562 228.453 10.1641C227.984 10.1992 227.65 10.334 227.451 10.5684C227.252 10.791 227.129 11.1074 227.082 11.5176C227.035 11.916 227.012 12.5605 227.012 13.4512V30.3965C227.012 31.2402 226.924 31.8203 226.748 32.1367C226.584 32.4414 226.238 32.7402 225.711 33.0332H226.326C227.135 33.0332 227.639 32.8047 227.838 32.3477C228.037 31.8789 228.137 31.0762 228.137 29.9395ZM206.533 10.1641H205.883C206.609 10.4453 207.178 10.8379 207.588 11.3418C208.01 11.834 208.438 12.6074 208.871 13.6621L217.01 33.0332C217.268 32.5645 217.396 32.1543 217.396 31.8027C217.396 31.4746 217.268 31.0059 217.01 30.3965L210.014 13.416C209.58 12.3027 209.117 11.4824 208.625 10.9551C208.145 10.4277 207.447 10.1641 206.533 10.1641ZM205.162 33.0332H208.871C208.449 32.8105 208.104 32.5059 207.834 32.1191C207.576 31.7207 207.383 31.2578 207.254 30.7305C207.09 31.2109 206.832 31.6387 206.48 32.0137C206.141 32.377 205.701 32.7168 205.162 33.0332ZM247.191 18.6367H253.256V19.5332C252.682 19.7793 252.195 20.084 251.797 20.4473C251.398 20.7988 251.059 21.2031 250.777 21.6602C250.508 22.1055 250.209 22.6914 249.881 23.418C249.564 24.1328 249.248 24.9004 248.932 25.7207L244.203 37.7441C242.938 41.0137 241.25 42.6484 239.141 42.6484C238.449 42.6484 237.852 42.4551 237.348 42.0684C236.855 41.6934 236.609 41.2363 236.609 40.6973C236.609 40.2285 236.803 39.8359 237.189 39.5195C237.588 39.2031 238.057 39.0449 238.596 39.0449C238.854 39.0449 239.135 39.1094 239.439 39.2383C239.756 39.3672 240.061 39.4961 240.354 39.625C240.658 39.7656 240.934 39.8359 241.18 39.8359C241.953 39.8359 242.65 39.0332 243.271 37.4277L244.203 34.8965L238.912 22.5918C238.771 22.2285 238.613 21.8594 238.438 21.4844C238.273 21.0977 238.092 20.7637 237.893 20.4824C237.693 20.2012 237.441 19.9785 237.137 19.8145C236.832 19.6387 236.457 19.5449 236.012 19.5332V18.6367H245.152V19.5332C244.426 19.5801 243.869 19.6914 243.482 19.8672C243.107 20.0312 242.92 20.3594 242.92 20.8516C242.92 21.3555 243.084 22.0059 243.412 22.8027L246.33 29.5352L248.527 24.1387C248.82 23.4355 248.967 22.6797 248.967 21.8711C248.967 20.5586 248.375 19.7793 247.191 19.5332V18.6367ZM251.305 19.6035H248.527C248.879 19.8848 249.113 20.1777 249.23 20.4824C249.359 20.7754 249.453 21.2383 249.512 21.8711C249.781 21.2734 250.045 20.8164 250.303 20.5C250.561 20.1719 250.895 19.873 251.305 19.6035ZM244.572 34L245.152 32.5938L240.617 22.082C240.277 21.2852 239.99 20.7168 239.756 20.377C239.533 20.0254 239.264 19.7852 238.947 19.6562C238.643 19.5273 238.238 19.4863 237.734 19.5332C238.203 19.9551 238.52 20.3301 238.684 20.6582C238.859 20.9863 239.129 21.5723 239.492 22.416L244.572 34ZM239.756 42.1035C238.795 41.8809 238.314 41.4238 238.314 40.7324C238.314 40.2988 238.602 39.9414 239.176 39.6602C238.812 39.5547 238.561 39.502 238.42 39.502C238.057 39.502 237.758 39.6133 237.523 39.8359C237.301 40.0703 237.189 40.3457 237.189 40.6621C237.189 41.1309 237.412 41.5059 237.857 41.7871C238.303 42.0684 238.936 42.1738 239.756 42.1035ZM271.959 22.7324V30.1855C271.959 30.8887 272.059 31.4336 272.258 31.8203C272.469 32.1953 272.75 32.4648 273.102 32.6289C273.453 32.7812 273.951 32.8809 274.596 32.9277C275.24 32.9746 275.838 33.0098 276.389 33.0332V34H263.609V33.0332C264.559 33.0098 265.268 32.957 265.736 32.875C266.217 32.793 266.592 32.6348 266.861 32.4004C267.143 32.166 267.33 31.8672 267.424 31.5039C267.529 31.1289 267.582 30.6191 267.582 29.9746V14.4883C267.582 13.1992 267.523 12.2852 267.406 11.7461C267.301 11.207 266.967 10.8086 266.404 10.5508C265.854 10.293 264.922 10.1641 263.609 10.1641V9.19727H275.703C276.242 9.19727 277.531 9.29102 279.57 9.47852C280.227 9.53711 280.924 9.73047 281.662 10.0586C282.412 10.3867 283.109 10.8379 283.754 11.4121C284.41 11.9746 284.938 12.6484 285.336 13.4336C285.734 14.207 285.934 15.0508 285.934 15.9648C285.934 16.9844 285.729 17.9043 285.318 18.7246C284.92 19.5449 284.299 20.2539 283.455 20.8516C282.623 21.4492 281.568 21.9121 280.291 22.2402C279.025 22.5684 277.549 22.7324 275.861 22.7324H271.959ZM268.145 14.2773V30.8008C268.145 31.9141 267.717 32.6582 266.861 33.0332H267.318C268.619 33.0332 269.27 32.418 269.27 31.1875V15.1035C269.27 13.6621 269.258 12.7187 269.234 12.2734C269.223 11.8281 269.146 11.4473 269.006 11.1309C268.877 10.8145 268.637 10.5859 268.285 10.4453C267.945 10.293 267.418 10.1875 266.703 10.1289C267.172 10.3516 267.5 10.6035 267.688 10.8848C267.875 11.166 267.998 11.5645 268.057 12.0801C268.115 12.5957 268.145 13.3281 268.145 14.2773ZM271.959 21.7656H274.42C275.908 21.7656 277.145 21.5898 278.129 21.2383C279.113 20.875 279.869 20.2715 280.396 19.4277C280.924 18.5723 281.188 17.4297 281.188 16C281.188 13.8555 280.467 12.25 279.025 11.1836C278.451 10.7617 277.871 10.4863 277.285 10.3574C276.699 10.2285 275.973 10.1641 275.105 10.1641C274.109 10.1641 273.389 10.3047 272.943 10.5859C272.51 10.8672 272.234 11.2891 272.117 11.8516C272.012 12.4141 271.959 13.2461 271.959 14.3477V21.7656ZM278.691 21.5723C280.098 21.3613 281.146 20.8047 281.838 19.9023C282.529 19 282.875 17.7227 282.875 16.0703C282.875 14.3242 282.523 13.0176 281.82 12.1504C281.117 11.2715 280.062 10.6855 278.656 10.3926C279.324 10.7324 279.893 11.1777 280.361 11.7285C280.83 12.2793 281.182 12.9238 281.416 13.6621C281.65 14.4004 281.768 15.2031 281.768 16.0703C281.768 18.8594 280.742 20.6934 278.691 21.5723ZM288.465 26.4414C288.465 24.9414 288.816 23.5703 289.52 22.3281C290.234 21.0859 291.201 20.1133 292.42 19.4102C293.65 18.6953 295.01 18.3379 296.498 18.3379C297.951 18.3379 299.275 18.6836 300.471 19.375C301.678 20.0664 302.627 21.0215 303.318 22.2402C304.01 23.459 304.355 24.8125 304.355 26.3008C304.355 27.4375 304.145 28.5156 303.723 29.5352C303.312 30.543 302.738 31.416 302 32.1543C301.273 32.8809 300.436 33.4434 299.486 33.8418C298.537 34.2402 297.518 34.4395 296.428 34.4395C294.963 34.4395 293.621 34.1055 292.402 33.4375C291.195 32.7695 290.234 31.832 289.52 30.625C288.816 29.4062 288.465 28.0117 288.465 26.4414ZM294.705 33.7539C293.182 32.8281 292.039 31.7324 291.277 30.4668C290.516 29.2012 290.135 27.8125 290.135 26.3008C290.135 25.1523 290.316 24.1445 290.68 23.2773C291.043 22.4102 291.518 21.666 292.104 21.0449C292.701 20.4121 293.445 19.7617 294.336 19.0938C293.152 19.5156 292.162 20.1074 291.365 20.8691C290.568 21.6309 289.982 22.5039 289.607 23.4883C289.232 24.4609 289.045 25.4922 289.045 26.582C289.045 27.3789 289.168 28.1641 289.414 28.9375C289.66 29.7109 290.018 30.4082 290.486 31.0293C290.967 31.6504 291.559 32.1953 292.262 32.6641C292.965 33.1328 293.779 33.4961 294.705 33.7539ZM292.824 25.4395C292.824 27.9355 293.188 29.8984 293.914 31.3281C294.641 32.7461 295.584 33.4551 296.744 33.4551C297.33 33.4551 297.875 33.2148 298.379 32.7344C298.883 32.2422 299.281 31.5215 299.574 30.5723C299.879 29.6113 300.031 28.4395 300.031 27.0566C300.031 24.6191 299.703 22.7207 299.047 21.3613C298.402 19.9902 297.506 19.3047 296.357 19.3047C295.244 19.3047 294.377 19.8203 293.756 20.8516C293.135 21.8711 292.824 23.4004 292.824 25.4395ZM299.029 32.8398C299.908 32.3594 300.582 31.5977 301.051 30.5547C301.52 29.5117 301.754 28.2344 301.754 26.7227C301.754 22.9961 300.605 20.5645 298.309 19.4277C299.129 20.248 299.715 21.2559 300.066 22.4512C300.43 23.6465 300.611 25.252 300.611 27.2676C300.611 28.5449 300.477 29.6172 300.207 30.4844C299.949 31.3398 299.557 32.125 299.029 32.8398ZM312.705 18.3379V21.0449C313.607 20.0254 314.299 19.3223 314.779 18.9355C315.26 18.5371 315.84 18.3379 316.52 18.3379C317.105 18.3379 317.598 18.5488 317.996 18.9707C318.406 19.3809 318.611 19.9023 318.611 20.5352C318.611 21.1914 318.43 21.7422 318.066 22.1875C317.703 22.6211 317.246 22.8379 316.695 22.8379C316.449 22.8379 316.18 22.791 315.887 22.6973C315.594 22.6035 315.348 22.4805 315.148 22.3281C315.031 22.2344 314.908 22.1348 314.779 22.0293C314.65 21.9238 314.533 21.8418 314.428 21.7832C314.334 21.7246 314.229 21.6953 314.111 21.6953C313.889 21.6953 313.666 21.7832 313.443 21.959C313.232 22.123 312.986 22.3574 312.705 22.6621V31.1523C312.705 31.7617 312.787 32.1953 312.951 32.4531C313.127 32.7109 313.391 32.875 313.742 32.9453C314.105 33.0039 314.732 33.0332 315.623 33.0332V34H306.184V33.0332H306.658C308.018 33.0332 308.697 32.4941 308.697 31.416V23.5234C308.697 22.1758 307.859 21.25 306.184 20.7461V20.1484L311.844 18.3379H312.705ZM309.277 23.5234V31.5215C309.277 31.9199 309.213 32.2188 309.084 32.418C308.955 32.6055 308.768 32.8105 308.521 33.0332C309.189 32.9746 309.67 32.7988 309.963 32.5059C310.256 32.2012 310.402 31.6797 310.402 30.9414V23.5234C310.402 22.5156 310.227 21.7832 309.875 21.3262C309.523 20.8691 308.967 20.6406 308.205 20.6406C308.146 20.6406 308.018 20.6523 307.818 20.6758C307.619 20.6992 307.484 20.7109 307.414 20.7109C308.656 21.25 309.277 22.1875 309.277 23.5234ZM313.883 21.0449C314.199 21.0449 314.516 21.1504 314.832 21.3613C315.559 21.9355 316.168 22.2227 316.66 22.2227C317.27 22.2227 317.715 21.8301 317.996 21.0449C317.668 21.209 317.428 21.291 317.275 21.291C316.924 21.291 316.572 21.1738 316.221 20.9395C315.775 20.5762 315.406 20.3945 315.113 20.3945C314.832 20.3945 314.422 20.6113 313.883 21.0449ZM321.67 29.7461V19.7441H319.789V18.8477C320.82 18.0742 321.594 17.4824 322.109 17.0723C322.625 16.6504 323.111 16.1816 323.568 15.666C324.037 15.1504 324.436 14.6113 324.764 14.0488H325.695V18.6367H330.055V19.7441H325.695V30.2559C325.695 31.0293 325.789 31.6094 325.977 31.9961C326.164 32.3711 326.48 32.5586 326.926 32.5586C327.348 32.5586 327.734 32.4414 328.086 32.207C328.449 31.9727 328.889 31.6094 329.404 31.1172L330.055 31.8027C329.176 32.7051 328.367 33.3789 327.629 33.8242C326.902 34.2578 326.064 34.4746 325.115 34.4746C324.213 34.4746 323.51 34.2754 323.006 33.877C322.502 33.4785 322.15 32.9395 321.951 32.2598C321.764 31.5684 321.67 30.7305 321.67 29.7461ZM323.393 16.7559L322.232 17.7227V29.3945C322.232 30.9531 322.432 32.0898 322.83 32.8047C323.24 33.5078 323.967 33.8594 325.01 33.8594C325.561 33.8594 326.111 33.7715 326.662 33.5957C325.596 33.6309 324.781 33.3848 324.219 32.8574C323.668 32.3184 323.393 31.4277 323.393 30.1855V16.7559ZM333.307 31.4863V19.8496H330.811V18.6367H333.307V16.2461C333.307 14.7109 333.576 13.3809 334.115 12.2559C334.666 11.1191 335.451 10.2461 336.471 9.63672C337.49 9.02734 338.68 8.72266 340.039 8.72266C340.848 8.72266 341.545 8.8457 342.131 9.0918C342.729 9.33789 343.168 9.66602 343.449 10.0762C343.742 10.4746 343.889 10.9141 343.889 11.3945C343.889 11.9336 343.695 12.4199 343.309 12.8535C342.934 13.2754 342.465 13.4863 341.902 13.4863C341.375 13.4863 340.936 13.2871 340.584 12.8887C340.244 12.4785 340.074 12.0391 340.074 11.5703C340.086 11.4531 340.092 11.3535 340.092 11.2715C340.104 11.1777 340.109 11.0488 340.109 10.8848C340.109 10.5215 339.998 10.2344 339.775 10.0234C339.553 9.8125 339.277 9.70703 338.949 9.70703C338.445 9.70703 338.047 9.95312 337.754 10.4453C337.473 10.9258 337.332 11.623 337.332 12.5371V18.6367H340.602V19.8496H337.332V31.2227C337.332 31.6914 337.396 32.0605 337.525 32.3301C337.654 32.5879 337.883 32.7695 338.211 32.875C338.551 32.9805 339.002 33.0332 339.564 33.0332H340.145V34H330.969V33.0332C331.742 33.0098 332.322 32.8926 332.709 32.6816C333.107 32.459 333.307 32.0605 333.307 31.4863ZM333.869 16.2461V31.3633C333.869 32.1367 333.559 32.7402 332.938 33.1738C334.332 33.1738 335.029 32.5703 335.029 31.3633V16.2812C335.029 14.8984 335.176 13.7324 335.469 12.7832C335.773 11.8223 336.236 10.8906 336.857 9.98828C335.861 10.6797 335.111 11.5293 334.607 12.5371C334.115 13.5449 333.869 14.7813 333.869 16.2461ZM340.145 9.77734C340.449 10.1289 340.613 10.498 340.637 10.8848C340.66 11.1074 340.684 11.3477 340.707 11.6055C340.73 11.8516 340.777 12.0684 340.848 12.2559C340.918 12.4434 341.035 12.5957 341.199 12.7129C341.375 12.8184 341.609 12.8711 341.902 12.8711C342.488 12.8711 342.934 12.5605 343.238 11.9395C342.957 12.0332 342.764 12.0801 342.658 12.0801C342.225 12.0801 341.891 11.8516 341.656 11.3945C341.328 10.7148 341.105 10.3047 340.988 10.1641C340.871 10.0117 340.59 9.88281 340.145 9.77734ZM342.113 26.4414C342.113 24.9414 342.465 23.5703 343.168 22.3281C343.883 21.0859 344.85 20.1133 346.068 19.4102C347.299 18.6953 348.658 18.3379 350.146 18.3379C351.6 18.3379 352.924 18.6836 354.119 19.375C355.326 20.0664 356.275 21.0215 356.967 22.2402C357.658 23.459 358.004 24.8125 358.004 26.3008C358.004 27.4375 357.793 28.5156 357.371 29.5352C356.961 30.543 356.387 31.416 355.648 32.1543C354.922 32.8809 354.084 33.4434 353.135 33.8418C352.186 34.2402 351.166 34.4395 350.076 34.4395C348.611 34.4395 347.27 34.1055 346.051 33.4375C344.844 32.7695 343.883 31.832 343.168 30.625C342.465 29.4062 342.113 28.0117 342.113 26.4414ZM348.354 33.7539C346.83 32.8281 345.688 31.7324 344.926 30.4668C344.164 29.2012 343.783 27.8125 343.783 26.3008C343.783 25.1523 343.965 24.1445 344.328 23.2773C344.691 22.4102 345.166 21.666 345.752 21.0449C346.35 20.4121 347.094 19.7617 347.984 19.0938C346.801 19.5156 345.811 20.1074 345.014 20.8691C344.217 21.6309 343.631 22.5039 343.256 23.4883C342.881 24.4609 342.693 25.4922 342.693 26.582C342.693 27.3789 342.816 28.1641 343.062 28.9375C343.309 29.7109 343.666 30.4082 344.135 31.0293C344.615 31.6504 345.207 32.1953 345.91 32.6641C346.613 33.1328 347.428 33.4961 348.354 33.7539ZM346.473 25.4395C346.473 27.9355 346.836 29.8984 347.562 31.3281C348.289 32.7461 349.232 33.4551 350.393 33.4551C350.979 33.4551 351.523 33.2148 352.027 32.7344C352.531 32.2422 352.93 31.5215 353.223 30.5723C353.527 29.6113 353.68 28.4395 353.68 27.0566C353.68 24.6191 353.352 22.7207 352.695 21.3613C352.051 19.9902 351.154 19.3047 350.006 19.3047C348.893 19.3047 348.025 19.8203 347.404 20.8516C346.783 21.8711 346.473 23.4004 346.473 25.4395ZM352.678 32.8398C353.557 32.3594 354.23 31.5977 354.699 30.5547C355.168 29.5117 355.402 28.2344 355.402 26.7227C355.402 22.9961 354.254 20.5645 351.957 19.4277C352.777 20.248 353.363 21.2559 353.715 22.4512C354.078 23.6465 354.26 25.252 354.26 27.2676C354.26 28.5449 354.125 29.6172 353.855 30.4844C353.598 31.3398 353.205 32.125 352.678 32.8398ZM362.064 31.2578V14.5938C362.064 13.7031 361.924 13.0059 361.643 12.502C361.361 11.998 360.711 11.5586 359.691 11.1836V10.498L365.404 8.61719H366.09V30.6074C366.09 31.5215 366.189 32.1543 366.389 32.5059C366.6 32.8574 367.127 33.0332 367.971 33.0332H368.445V34H359.691V33.0332H360.113C360.805 33.0332 361.303 32.8867 361.607 32.5938C361.912 32.3008 362.064 31.8555 362.064 31.2578ZM363.787 30.5371V14.6992C363.787 13.8672 363.746 13.2051 363.664 12.7129C363.594 12.209 363.377 11.793 363.014 11.4648C362.662 11.125 362.094 10.9551 361.309 10.9551C360.922 10.9551 360.611 10.9668 360.377 10.9902C361.455 11.2949 362.1 11.7461 362.311 12.3438C362.533 12.9414 362.645 13.7266 362.645 14.6992V31.1523C362.645 31.9492 362.404 32.5762 361.924 33.0332C362.744 32.998 363.26 32.7754 363.471 32.3652C363.682 31.9434 363.787 31.334 363.787 30.5371ZM375.793 18.3379V31.0469C375.793 31.5859 375.846 31.9961 375.951 32.2773C376.068 32.5469 376.279 32.7344 376.584 32.8398C376.9 32.9453 377.381 33.0098 378.025 33.0332V34H369.816V33.0332C370.543 33.0098 371.047 32.8633 371.328 32.5938C371.621 32.3242 371.768 31.8438 371.768 31.1523V23.084C371.768 22.5801 371.598 22.1113 371.258 21.6777C370.918 21.2441 370.438 20.9219 369.816 20.7109V20.1484L375.072 18.3379H375.793ZM372.348 23.1367V31.4863C372.348 32.166 372.107 32.6816 371.627 33.0332C372.271 33.0332 372.74 32.8867 373.033 32.5938C373.338 32.3008 373.49 31.8203 373.49 31.1523V22.9082C373.49 22.1582 373.309 21.584 372.945 21.1855C372.582 20.7754 372.107 20.5703 371.521 20.5703C371.252 20.5703 371.035 20.582 370.871 20.6055C371.855 21.1211 372.348 21.9648 372.348 23.1367ZM373.631 9.77734C374.076 9.77734 374.492 9.88867 374.879 10.1113C375.266 10.3223 375.57 10.6152 375.793 10.9902C376.016 11.3652 376.127 11.7754 376.127 12.2207C376.127 12.666 376.016 13.082 375.793 13.4688C375.57 13.8437 375.266 14.1426 374.879 14.3652C374.492 14.5879 374.076 14.6992 373.631 14.6992C372.963 14.6992 372.389 14.4531 371.908 13.9609C371.428 13.4688 371.188 12.8887 371.188 12.2207C371.188 11.7871 371.293 11.3828 371.504 11.0078C371.727 10.6211 372.025 10.3223 372.4 10.1113C372.787 9.88867 373.197 9.77734 373.631 9.77734ZM373.93 10.3398C373.238 10.3398 372.705 10.5039 372.33 10.832C371.955 11.1602 371.768 11.6113 371.768 12.1855C371.768 12.7363 371.949 13.1934 372.312 13.5566C372.676 13.9082 373.215 14.1016 373.93 14.1367C373.555 13.7969 373.279 13.498 373.104 13.2402C372.928 12.9707 372.84 12.6309 372.84 12.2207C372.84 11.459 373.203 10.832 373.93 10.3398ZM379.66 26.4414C379.66 24.9414 380.012 23.5703 380.715 22.3281C381.43 21.0859 382.396 20.1133 383.615 19.4102C384.846 18.6953 386.205 18.3379 387.693 18.3379C389.146 18.3379 390.471 18.6836 391.666 19.375C392.873 20.0664 393.822 21.0215 394.514 22.2402C395.205 23.459 395.551 24.8125 395.551 26.3008C395.551 27.4375 395.34 28.5156 394.918 29.5352C394.508 30.543 393.934 31.416 393.195 32.1543C392.469 32.8809 391.631 33.4434 390.682 33.8418C389.732 34.2402 388.713 34.4395 387.623 34.4395C386.158 34.4395 384.816 34.1055 383.598 33.4375C382.391 32.7695 381.43 31.832 380.715 30.625C380.012 29.4062 379.66 28.0117 379.66 26.4414ZM385.9 33.7539C384.377 32.8281 383.234 31.7324 382.473 30.4668C381.711 29.2012 381.33 27.8125 381.33 26.3008C381.33 25.1523 381.512 24.1445 381.875 23.2773C382.238 22.4102 382.713 21.666 383.299 21.0449C383.896 20.4121 384.641 19.7617 385.531 19.0938C384.348 19.5156 383.357 20.1074 382.561 20.8691C381.764 21.6309 381.178 22.5039 380.803 23.4883C380.428 24.4609 380.24 25.4922 380.24 26.582C380.24 27.3789 380.363 28.1641 380.609 28.9375C380.855 29.7109 381.213 30.4082 381.682 31.0293C382.162 31.6504 382.754 32.1953 383.457 32.6641C384.16 33.1328 384.975 33.4961 385.9 33.7539ZM384.02 25.4395C384.02 27.9355 384.383 29.8984 385.109 31.3281C385.836 32.7461 386.779 33.4551 387.939 33.4551C388.525 33.4551 389.07 33.2148 389.574 32.7344C390.078 32.2422 390.477 31.5215 390.77 30.5723C391.074 29.6113 391.227 28.4395 391.227 27.0566C391.227 24.6191 390.898 22.7207 390.242 21.3613C389.598 19.9902 388.701 19.3047 387.553 19.3047C386.439 19.3047 385.572 19.8203 384.951 20.8516C384.33 21.8711 384.02 23.4004 384.02 25.4395ZM390.225 32.8398C391.104 32.3594 391.777 31.5977 392.246 30.5547C392.715 29.5117 392.949 28.2344 392.949 26.7227C392.949 22.9961 391.801 20.5645 389.504 19.4277C390.324 20.248 390.91 21.2559 391.262 22.4512C391.625 23.6465 391.807 25.252 391.807 27.2676C391.807 28.5449 391.672 29.6172 391.402 30.4844C391.145 31.3398 390.752 32.125 390.225 32.8398ZM74.0645 69.9883L81.7461 51.1973H89.3398V52.1641C88.1562 52.1758 87.3242 52.3281 86.8438 52.6211C86.3633 52.9141 86.082 53.3359 86 53.8867C85.918 54.4375 85.877 55.4512 85.877 56.9277V72.1152C85.877 72.8887 85.9766 73.4746 86.1758 73.873C86.3867 74.2715 86.7207 74.5527 87.1777 74.7168C87.6348 74.8691 88.3555 74.9746 89.3398 75.0332V76H78.002V75.0332C79.127 75.0215 79.9414 74.8809 80.4453 74.6113C80.9492 74.3418 81.248 73.9844 81.3418 73.5391C81.4355 73.082 81.4824 72.332 81.4824 71.2891V54.3262L72.7461 76H71.7266L63.0957 55.0117V69.4082C63.0957 71.0254 63.4004 72.291 64.0098 73.2051C64.6309 74.1074 65.6562 74.7168 67.0859 75.0332V76H58.1914V75.0332C59.4453 74.9043 60.4121 74.418 61.0918 73.5742C61.7715 72.7188 62.1113 71.5234 62.1113 69.9883V53.6758C61.6309 53.1484 61.0566 52.7559 60.3887 52.498C59.7207 52.2402 58.9883 52.1289 58.1914 52.1641V51.1973H66.2246L74.0645 69.9883ZM83.1875 71.9395V54.9766C83.1875 53.5938 83.293 52.6562 83.5039 52.1641C83.0352 52.1992 82.7012 52.334 82.502 52.5684C82.3027 52.791 82.1797 53.1074 82.1328 53.5176C82.0859 53.916 82.0625 54.5605 82.0625 55.4512V72.3965C82.0625 73.2402 81.9746 73.8203 81.7988 74.1367C81.6348 74.4414 81.2891 74.7402 80.7617 75.0332H81.377C82.1855 75.0332 82.6895 74.8047 82.8887 74.3477C83.0879 73.8789 83.1875 73.0762 83.1875 71.9395ZM61.584 52.1641H60.9336C61.6602 52.4453 62.2285 52.8379 62.6387 53.3418C63.0605 53.834 63.4883 54.6074 63.9219 55.6621L72.0605 75.0332C72.3184 74.5645 72.4473 74.1543 72.4473 73.8027C72.4473 73.4746 72.3184 73.0059 72.0605 72.3965L65.0645 55.416C64.6309 54.3027 64.168 53.4824 63.6758 52.9551C63.1953 52.4277 62.498 52.1641 61.584 52.1641ZM60.2129 75.0332H63.9219C63.5 74.8105 63.1543 74.5059 62.8848 74.1191C62.627 73.7207 62.4336 73.2578 62.3047 72.7305C62.1406 73.2109 61.8828 73.6387 61.5312 74.0137C61.1914 74.377 60.752 74.7168 60.2129 75.0332ZM101.891 61.6738V60.6367H108.184V72.6074C108.184 73.0879 108.266 73.4453 108.43 73.6797C108.605 73.9141 108.846 74.0664 109.15 74.1367C109.467 74.207 109.889 74.2422 110.416 74.2422H110.574V75.2441L104.158 76.4746V74.0488C102.225 75.666 100.303 76.4746 98.3926 76.4746C96.8926 76.4746 95.6973 76.0293 94.8066 75.1387C93.916 74.248 93.4707 72.9883 93.4707 71.3594V65.2422C93.4707 64.3281 93.4414 63.6777 93.3828 63.291C93.3242 62.9043 93.125 62.5703 92.7852 62.2891C92.4453 62.0078 91.8828 61.8027 91.0977 61.6738V60.6367H97.5312V71.0254C97.5312 71.916 97.6074 72.6367 97.7598 73.1875C97.9238 73.7383 98.1875 74.1543 98.5508 74.4355C98.9258 74.7051 99.4121 74.8398 100.01 74.8398C101.311 74.8398 102.693 74.1953 104.158 72.9062V64.4863C104.158 62.7051 103.402 61.7676 101.891 61.6738ZM105.881 73.7324V64.293C105.881 63.4727 105.77 62.8223 105.547 62.3418C105.324 61.8496 104.838 61.6035 104.088 61.6035C104.064 61.6035 103.977 61.6152 103.824 61.6387C103.672 61.6621 103.578 61.6738 103.543 61.6738C104.012 61.9668 104.328 62.3359 104.492 62.7812C104.656 63.2148 104.738 63.7715 104.738 64.4512V75.5957C105.148 75.4551 105.441 75.25 105.617 74.9805C105.793 74.6992 105.881 74.2832 105.881 73.7324ZM95.2285 71.7109V63.8008C95.2285 62.3359 94.6543 61.6035 93.5059 61.6035C93.4824 61.6035 93.3828 61.6152 93.207 61.6387C93.0312 61.6621 92.9258 61.6738 92.8906 61.6738C93.3828 62.0488 93.6992 62.4531 93.8398 62.8867C93.9805 63.3203 94.0508 63.8652 94.0508 64.5215V71.0254C94.0508 72.5723 94.4199 73.7852 95.1582 74.6641C95.9082 75.5312 96.9277 75.9648 98.2168 75.9648C98.5918 75.9648 98.9551 75.9414 99.3066 75.8945C97.9824 75.7891 96.9688 75.3789 96.2656 74.6641C95.5742 73.9492 95.2285 72.9648 95.2285 71.7109ZM131.457 75.0332V76H122.844V75.0332C123.301 75.0098 123.646 74.9805 123.881 74.9453C124.127 74.8984 124.344 74.8105 124.531 74.6816C124.719 74.5527 124.854 74.3594 124.936 74.1016C125.029 73.832 125.076 73.4922 125.076 73.082V64.8379C125.076 63.748 124.83 62.9512 124.338 62.4473C123.846 61.9316 123.254 61.6738 122.562 61.6738C121.402 61.6738 120.025 62.3945 118.432 63.8359V73.2578C118.432 73.9375 118.59 74.3945 118.906 74.6289C119.234 74.8633 119.867 74.998 120.805 75.0332V76H112.121V75.0332C112.906 75.0098 113.475 74.916 113.826 74.752C114.178 74.5762 114.354 74.166 114.354 73.5215V56.3828C114.354 54.7773 113.527 53.7695 111.875 53.3594V52.6387L117.711 50.793H118.432V62.6406C119.275 61.9023 120.189 61.334 121.174 60.9355C122.158 60.5371 123.148 60.3379 124.145 60.3379C125.176 60.3379 126.061 60.5195 126.799 60.8828C127.549 61.2461 128.129 61.791 128.539 62.5176C128.949 63.2324 129.154 64.1172 129.154 65.1719V72.4668C129.154 73.1699 129.172 73.668 129.207 73.9609C129.254 74.2539 129.412 74.5059 129.682 74.7168C129.963 74.9277 130.42 75.0332 131.053 75.0332H131.457ZM125.656 64.1523V73.293C125.656 73.7383 125.604 74.0723 125.498 74.2949C125.393 74.5176 125.217 74.752 124.971 74.998C125.721 74.9863 126.219 74.8047 126.465 74.4531C126.723 74.1016 126.852 73.5391 126.852 72.7656V65.2773C126.852 64.3633 126.787 63.6543 126.658 63.1504C126.529 62.6348 126.242 62.2188 125.797 61.9023C125.352 61.5742 124.66 61.3867 123.723 61.3398C125.012 61.8203 125.656 62.7578 125.656 64.1523ZM114.934 56.3828V73.0469C114.934 73.5625 114.898 73.9492 114.828 74.207C114.77 74.4531 114.635 74.6934 114.424 74.9277H114.898C115.168 74.9277 115.438 74.7812 115.707 74.4883C115.977 74.1836 116.111 73.75 116.111 73.1875V56.2422C116.111 55.4219 116.006 54.7949 115.795 54.3613C115.607 53.9863 115.32 53.6816 114.934 53.4473C114.559 53.2129 114.16 53.0957 113.738 53.0957C113.551 53.0957 113.229 53.1367 112.771 53.2188C113.627 53.5352 114.201 53.9453 114.494 54.4492C114.787 54.9414 114.934 55.5859 114.934 56.3828ZM137.047 62.3945C137.047 62.4414 137.123 62.6113 137.275 62.9043C137.428 63.1973 137.504 63.4727 137.504 63.7305C137.504 64.2344 137.293 64.6855 136.871 65.084C136.461 65.4707 135.945 65.6641 135.324 65.6641C134.727 65.6641 134.252 65.5117 133.9 65.207C133.549 64.8906 133.373 64.5273 133.373 64.1172C133.373 63.5078 133.666 62.9102 134.252 62.3242C134.85 61.7383 135.664 61.2637 136.695 60.9004C137.738 60.5254 138.887 60.3379 140.141 60.3379C141.055 60.3379 141.904 60.4961 142.689 60.8125C143.486 61.1289 144.119 61.6094 144.588 62.2539C145.057 62.8984 145.291 63.6777 145.291 64.5918V73.5215C145.291 74.2363 145.496 74.5938 145.906 74.5938C146.152 74.5938 146.451 74.4004 146.803 74.0137L147.453 74.7695C146.879 75.3438 146.346 75.7773 145.854 76.0703C145.373 76.3633 144.799 76.5098 144.131 76.5098C143.357 76.5098 142.754 76.3398 142.32 76C141.887 75.6484 141.582 75.1094 141.406 74.3828C139.789 75.7773 138.189 76.4746 136.607 76.4746C135.482 76.4746 134.586 76.1816 133.918 75.5957C133.262 75.0098 132.934 74.2656 132.934 73.3633C132.934 72.5547 133.133 71.8691 133.531 71.3066C133.941 70.7324 134.475 70.2285 135.131 69.7949C135.799 69.3496 136.777 68.793 138.066 68.125C139.355 67.4453 140.416 66.8652 141.248 66.3848V63.7305C141.248 62.9336 141.066 62.3301 140.703 61.9199C140.34 61.5098 139.795 61.3047 139.068 61.3047C138.436 61.3047 137.938 61.4219 137.574 61.6562C137.223 61.8789 137.047 62.125 137.047 62.3945ZM141.828 64.873V71.8164C141.828 73.1875 141.975 74.2129 142.268 74.8926C142.561 75.5605 143.135 75.8945 143.99 75.8945C144.377 75.8945 144.688 75.8477 144.922 75.7539C144.219 75.6484 143.721 75.3672 143.428 74.9102C143.135 74.4531 142.988 73.7383 142.988 72.7656V64.6973C142.988 63.4785 142.812 62.6406 142.461 62.1836C142.121 61.7148 141.529 61.4336 140.686 61.3398C141.143 61.5742 141.447 61.9141 141.6 62.3594C141.752 62.8047 141.828 63.6426 141.828 64.873ZM141.248 73.2227V67.5801C139.748 68.4238 138.699 69.1855 138.102 69.8652C137.516 70.5449 137.223 71.3652 137.223 72.3262C137.223 72.9707 137.398 73.4688 137.75 73.8203C138.102 74.1719 138.512 74.3477 138.98 74.3477C139.719 74.3477 140.475 73.9727 141.248 73.2227ZM138.154 75.6484C137.088 75.6484 136.232 75.4316 135.588 74.998C134.955 74.5645 134.639 73.9375 134.639 73.1172C134.639 72.5195 134.791 71.957 135.096 71.4297C135.412 70.8906 135.881 70.293 136.502 69.6367C135.553 70.1875 134.814 70.75 134.287 71.3242C133.771 71.8984 133.514 72.5781 133.514 73.3633C133.514 74.0781 133.824 74.6758 134.445 75.1562C135.078 75.625 135.764 75.8594 136.502 75.8594C137.217 75.8594 137.768 75.7891 138.154 75.6484ZM136.502 64.5566C136.08 64.5918 135.758 64.5098 135.535 64.3105C135.312 64.1113 135.201 63.877 135.201 63.6074C135.201 63.2441 135.301 62.9219 135.5 62.6406C135.699 62.3477 136.045 61.9316 136.537 61.3926C135.705 61.8145 135.066 62.2363 134.621 62.6582C134.176 63.0801 133.953 63.5547 133.953 64.082C133.953 64.3164 134.07 64.5391 134.305 64.75C134.551 64.9492 134.838 65.0488 135.166 65.0488C135.729 65.0488 136.174 64.8848 136.502 64.5566ZM166.033 63.9414V72.9766C166.033 73.6094 166.133 74.1016 166.332 74.4531C166.531 74.8047 166.865 74.9863 167.334 74.998C167.521 74.998 167.68 75.0039 167.809 75.0156C167.938 75.0156 168.078 75.0215 168.23 75.0332V76H159.775V75.0332C160.701 75.0684 161.305 74.9336 161.586 74.6289C161.867 74.3242 162.008 73.7852 162.008 73.0117V65.2773C162.008 62.9453 161.199 61.7793 159.582 61.7793C158.984 61.7793 158.281 61.9844 157.473 62.3945C156.676 62.8047 155.979 63.3203 155.381 63.9414V73.3281C155.381 74.0195 155.562 74.4766 155.926 74.6992C156.301 74.9219 156.875 75.0332 157.648 75.0332V76H149V75.0332H149.229C149.803 75.0332 150.242 74.9688 150.547 74.8398C150.863 74.7109 151.068 74.5 151.162 74.207C151.256 73.9023 151.303 73.5039 151.303 73.0117V65.8398C151.303 64.9961 151.162 64.3574 150.881 63.9238C150.611 63.4902 150.02 63.0977 149.105 62.7461V62.1484L154.801 60.3379H155.381V62.7461C156.318 61.9609 157.273 61.3633 158.246 60.9531C159.23 60.543 160.191 60.3379 161.129 60.3379C161.762 60.3379 162.377 60.4375 162.975 60.6367C163.584 60.8359 164.129 61.1348 164.609 61.5332C165.09 61.9199 165.459 62.3887 165.717 62.9395C166.713 62.084 167.703 61.4395 168.688 61.0059C169.684 60.5605 170.721 60.3379 171.799 60.3379C172.795 60.3379 173.662 60.5195 174.4 60.8828C175.139 61.2344 175.707 61.791 176.105 62.5527C176.516 63.3145 176.721 64.2461 176.721 65.3477V73.3281C176.721 73.7617 176.785 74.0957 176.914 74.3301C177.055 74.5645 177.283 74.7402 177.6 74.8574C177.928 74.9746 178.379 75.0332 178.953 75.0332V76H170.428V75.0332H170.85C171.506 75.0332 171.975 74.8984 172.256 74.6289C172.549 74.3477 172.695 73.8672 172.695 73.1875V65.6289C172.695 64.4102 172.525 63.4668 172.186 62.7988C171.857 62.1191 171.225 61.7793 170.287 61.7793C168.998 61.7793 167.58 62.5 166.033 63.9414ZM163.73 72.4668V64.6973C163.73 63.5371 163.461 62.6934 162.922 62.166C162.383 61.6387 161.609 61.4277 160.602 61.5332C161.434 61.791 161.967 62.2305 162.201 62.8516C162.447 63.4609 162.57 64.375 162.57 65.5938V73.2578C162.57 73.75 162.512 74.1309 162.395 74.4004C162.289 74.6582 162.084 74.9043 161.779 75.1387C162.658 75.0801 163.203 74.8516 163.414 74.4531C163.625 74.043 163.73 73.3809 163.73 72.4668ZM174.418 72.6074V64.8027C174.418 64.123 174.336 63.5488 174.172 63.0801C174.02 62.5996 173.703 62.2188 173.223 61.9375C172.742 61.6562 172.039 61.5215 171.113 61.5332C171.969 61.8262 172.543 62.2188 172.836 62.7109C173.129 63.1914 173.275 63.9238 173.275 64.9082V72.3262C173.275 73.2402 173.234 73.873 173.152 74.2246C173.07 74.5645 172.83 74.8809 172.432 75.1738C173.006 75.1855 173.439 75.0742 173.732 74.8398C174.037 74.6055 174.225 74.3008 174.295 73.9258C174.377 73.5508 174.418 73.1113 174.418 72.6074ZM153.078 72.7305V65.2773C153.078 64.4102 152.885 63.7598 152.498 63.3262C152.123 62.8926 151.631 62.6758 151.021 62.6758C150.893 62.6758 150.617 62.6992 150.195 62.7461C150.91 62.9922 151.367 63.3848 151.566 63.9238C151.777 64.4512 151.883 65.2246 151.883 66.2441V72.2207C151.883 73.1582 151.842 73.7969 151.76 74.1367C151.689 74.4766 151.49 74.7754 151.162 75.0332C152.018 75.0215 152.551 74.8164 152.762 74.418C152.973 74.0195 153.078 73.457 153.078 72.7305ZM197.533 63.9414V72.9766C197.533 73.6094 197.633 74.1016 197.832 74.4531C198.031 74.8047 198.365 74.9863 198.834 74.998C199.021 74.998 199.18 75.0039 199.309 75.0156C199.438 75.0156 199.578 75.0215 199.73 75.0332V76H191.275V75.0332C192.201 75.0684 192.805 74.9336 193.086 74.6289C193.367 74.3242 193.508 73.7852 193.508 73.0117V65.2773C193.508 62.9453 192.699 61.7793 191.082 61.7793C190.484 61.7793 189.781 61.9844 188.973 62.3945C188.176 62.8047 187.479 63.3203 186.881 63.9414V73.3281C186.881 74.0195 187.062 74.4766 187.426 74.6992C187.801 74.9219 188.375 75.0332 189.148 75.0332V76H180.5V75.0332H180.729C181.303 75.0332 181.742 74.9688 182.047 74.8398C182.363 74.7109 182.568 74.5 182.662 74.207C182.756 73.9023 182.803 73.5039 182.803 73.0117V65.8398C182.803 64.9961 182.662 64.3574 182.381 63.9238C182.111 63.4902 181.52 63.0977 180.605 62.7461V62.1484L186.301 60.3379H186.881V62.7461C187.818 61.9609 188.773 61.3633 189.746 60.9531C190.73 60.543 191.691 60.3379 192.629 60.3379C193.262 60.3379 193.877 60.4375 194.475 60.6367C195.084 60.8359 195.629 61.1348 196.109 61.5332C196.59 61.9199 196.959 62.3887 197.217 62.9395C198.213 62.084 199.203 61.4395 200.188 61.0059C201.184 60.5605 202.221 60.3379 203.299 60.3379C204.295 60.3379 205.162 60.5195 205.9 60.8828C206.639 61.2344 207.207 61.791 207.605 62.5527C208.016 63.3145 208.221 64.2461 208.221 65.3477V73.3281C208.221 73.7617 208.285 74.0957 208.414 74.3301C208.555 74.5645 208.783 74.7402 209.1 74.8574C209.428 74.9746 209.879 75.0332 210.453 75.0332V76H201.928V75.0332H202.35C203.006 75.0332 203.475 74.8984 203.756 74.6289C204.049 74.3477 204.195 73.8672 204.195 73.1875V65.6289C204.195 64.4102 204.025 63.4668 203.686 62.7988C203.357 62.1191 202.725 61.7793 201.787 61.7793C200.498 61.7793 199.08 62.5 197.533 63.9414ZM195.23 72.4668V64.6973C195.23 63.5371 194.961 62.6934 194.422 62.166C193.883 61.6387 193.109 61.4277 192.102 61.5332C192.934 61.791 193.467 62.2305 193.701 62.8516C193.947 63.4609 194.07 64.375 194.07 65.5938V73.2578C194.07 73.75 194.012 74.1309 193.895 74.4004C193.789 74.6582 193.584 74.9043 193.279 75.1387C194.158 75.0801 194.703 74.8516 194.914 74.4531C195.125 74.043 195.23 73.3809 195.23 72.4668ZM205.918 72.6074V64.8027C205.918 64.123 205.836 63.5488 205.672 63.0801C205.52 62.5996 205.203 62.2188 204.723 61.9375C204.242 61.6562 203.539 61.5215 202.613 61.5332C203.469 61.8262 204.043 62.2188 204.336 62.7109C204.629 63.1914 204.775 63.9238 204.775 64.9082V72.3262C204.775 73.2402 204.734 73.873 204.652 74.2246C204.57 74.5645 204.33 74.8809 203.932 75.1738C204.506 75.1855 204.939 75.0742 205.232 74.8398C205.537 74.6055 205.725 74.3008 205.795 73.9258C205.877 73.5508 205.918 73.1113 205.918 72.6074ZM184.578 72.7305V65.2773C184.578 64.4102 184.385 63.7598 183.998 63.3262C183.623 62.8926 183.131 62.6758 182.521 62.6758C182.393 62.6758 182.117 62.6992 181.695 62.7461C182.41 62.9922 182.867 63.3848 183.066 63.9238C183.277 64.4512 183.383 65.2246 183.383 66.2441V72.2207C183.383 73.1582 183.342 73.7969 183.26 74.1367C183.189 74.4766 182.99 74.7754 182.662 75.0332C183.518 75.0215 184.051 74.8164 184.262 74.418C184.473 74.0195 184.578 73.457 184.578 72.7305ZM225.729 71.6406L226.432 72.1855C225.904 73.1699 225.277 73.9785 224.551 74.6113C223.824 75.2441 223.021 75.7129 222.143 76.0176C221.275 76.3223 220.367 76.4746 219.418 76.4746C218.129 76.4746 216.928 76.1641 215.814 75.543C214.713 74.9219 213.84 74.0254 213.195 72.8535C212.551 71.6816 212.229 70.3516 212.229 68.8633C212.229 67.6914 212.422 66.5898 212.809 65.5586C213.207 64.5273 213.752 63.6191 214.443 62.834C215.146 62.0488 215.955 61.4395 216.869 61.0059C217.795 60.5605 218.779 60.3379 219.822 60.3379C220.877 60.3379 221.879 60.5605 222.828 61.0059C223.789 61.4395 224.551 62.043 225.113 62.8164C225.523 63.3789 225.816 63.959 225.992 64.5566C226.18 65.1426 226.326 65.8516 226.432 66.6836H215.814C215.861 67.9023 216.066 68.9336 216.43 69.7773C216.805 70.6211 217.285 71.3008 217.871 71.8164C218.469 72.332 219.102 72.7012 219.77 72.9238C220.438 73.1465 221.076 73.2578 221.686 73.2578C223.162 73.2578 224.51 72.7188 225.729 71.6406ZM222.617 65.5586H223.848C223.812 64.2461 223.543 63.2793 223.039 62.6582C222.535 62.0254 221.691 61.6035 220.508 61.3926C221.258 61.7324 221.797 62.1777 222.125 62.7285C222.453 63.2676 222.617 64.0938 222.617 65.207V65.5586ZM215.92 65.5586H222.055V64.9785C222.055 64.2988 221.932 63.6953 221.686 63.168C221.439 62.6289 221.1 62.2188 220.666 61.9375C220.244 61.6445 219.758 61.498 219.207 61.498C218.316 61.498 217.561 61.8965 216.939 62.6934C216.318 63.4785 215.979 64.4336 215.92 65.5586ZM216.078 62.0957C213.887 63.8301 212.791 66.1035 212.791 68.916C212.791 70.9551 213.441 72.625 214.742 73.9258C216.055 75.2148 217.566 75.8594 219.277 75.8594C220.273 75.8594 221.27 75.6602 222.266 75.2617C223.273 74.8516 224.123 74.248 224.814 73.4512C224.1 73.9082 223.367 74.2832 222.617 74.5762C221.879 74.8574 220.994 74.998 219.963 74.998C218.217 74.998 216.758 74.3887 215.586 73.1699C214.426 71.9512 213.846 70.3633 213.846 68.4062C213.846 67.1641 214.039 66.0508 214.426 65.0664C214.812 64.082 215.363 63.0918 216.078 62.0957ZM238.121 52.709L243.553 50.916H244.273V72.8359C244.273 73.457 244.438 73.8789 244.766 74.1016C245.105 74.3125 245.686 74.418 246.506 74.418V75.3496L240.266 76.4746V74.418C238.566 75.7891 236.844 76.4746 235.098 76.4746C234.125 76.4746 233.217 76.2695 232.373 75.8594C231.529 75.4492 230.803 74.875 230.193 74.1367C229.584 73.3867 229.115 72.5312 228.787 71.5703C228.471 70.5977 228.312 69.5781 228.312 68.5117C228.312 66.9766 228.676 65.582 229.402 64.3281C230.141 63.0742 231.131 62.0957 232.373 61.3926C233.627 60.6895 235.021 60.3379 236.557 60.3379C237.646 60.3379 238.883 60.5898 240.266 61.0938V56.7695C240.266 55.8086 240.143 55.1055 239.896 54.6602C239.662 54.2148 239.07 53.8047 238.121 53.4297V52.709ZM239.51 53.1836H238.912C239.791 53.5703 240.33 53.9922 240.529 54.4492C240.74 54.8945 240.846 55.4922 240.846 56.2422V75.5957C241.232 75.4316 241.514 75.2383 241.689 75.0156C241.877 74.793 241.971 74.459 241.971 74.0137V56.2773C241.971 55.2227 241.812 54.4434 241.496 53.9395C241.18 53.4355 240.518 53.1836 239.51 53.1836ZM240.266 73.1523V62.8516C239.855 62.3594 239.375 61.9785 238.824 61.709C238.285 61.4395 237.734 61.3047 237.172 61.3047C236.34 61.3047 235.572 61.5625 234.869 62.0781C234.166 62.582 233.609 63.3496 233.199 64.3809C232.801 65.4004 232.602 66.6719 232.602 68.1953C232.602 69.4844 232.783 70.6035 233.146 71.5527C233.51 72.4902 234.02 73.2051 234.676 73.6973C235.332 74.1777 236.082 74.418 236.926 74.418C238.133 74.418 239.246 73.9961 240.266 73.1523ZM234.729 61.1641C233.744 61.375 232.918 61.7031 232.25 62.1484C231.23 62.7812 230.416 63.6895 229.807 64.873C229.197 66.0566 228.893 67.3164 228.893 68.6523C228.893 69.9414 229.156 71.1426 229.684 72.2559C230.223 73.3574 230.979 74.2363 231.951 74.8926C232.924 75.5371 234.008 75.8594 235.203 75.8594C236.023 75.8594 236.756 75.7363 237.4 75.4902C236.861 75.5371 236.521 75.5605 236.381 75.5605C235.607 75.5605 234.84 75.4023 234.078 75.0859C233.328 74.7695 232.643 74.3066 232.021 73.6973C231.4 73.0762 230.908 72.3379 230.545 71.4824C230.193 70.627 230.018 69.6953 230.018 68.6875C230.018 65.5586 231.588 63.0508 234.729 61.1641ZM274.93 52.1641V51.1973H284.334V52.1641C283.549 52.1875 282.857 52.3633 282.26 52.6914C281.674 53.0195 281.211 53.5 280.871 54.1328C280.531 54.7539 280.361 55.5039 280.361 56.3828L280.695 76.5449H279.605L261.641 55.5566L261.904 69.6719C261.928 70.5508 261.998 71.2949 262.115 71.9043C262.232 72.502 262.443 73.0234 262.748 73.4688C263.053 73.9141 263.486 74.2656 264.049 74.5234C264.623 74.7812 265.361 74.9512 266.264 75.0332V76H256.93V75.0332C258.148 74.9395 259.051 74.6113 259.637 74.0488C260.234 73.4863 260.604 72.7891 260.744 71.957C260.885 71.1133 260.932 70.0586 260.885 68.793L260.639 54.3965C259.971 53.6699 259.32 53.1191 258.688 52.7441C258.055 52.3574 257.398 52.1641 256.719 52.1641H256.508V51.1973H263.768L279.605 69.6719L279.359 57.3145C279.359 56.3652 279.26 55.5625 279.061 54.9062C278.873 54.2383 278.551 53.6992 278.094 53.2891C277.766 52.9609 277.291 52.6914 276.67 52.4805C276.061 52.2578 275.48 52.1523 274.93 52.1641ZM281.082 52.1641H277.232C277.818 52.3633 278.293 52.6387 278.656 52.9902C279.031 53.3418 279.348 53.8223 279.605 54.4316C279.875 53.3887 280.367 52.6328 281.082 52.1641ZM278.322 72.291L262.484 53.8164C262.156 53.3945 261.764 53.0137 261.307 52.6738C260.861 52.334 260.229 52.1641 259.408 52.1641H258.617C259.273 52.3984 259.783 52.6855 260.146 53.0254C260.51 53.3535 261.02 53.9102 261.676 54.6953L279.729 75.7188C279.717 75.3789 279.699 75.0508 279.676 74.7344C279.664 74.4062 279.629 74.166 279.57 74.0137C279.512 73.8496 279.4 73.6504 279.236 73.416C279.072 73.1816 278.768 72.8066 278.322 72.291ZM259.092 75.0332H262.801C262.285 74.6348 261.916 74.2656 261.693 73.9258C261.482 73.5859 261.301 73.1113 261.148 72.502C260.996 73.0527 260.762 73.5332 260.445 73.9434C260.129 74.3418 259.678 74.7051 259.092 75.0332ZM291.91 60.3379V73.0469C291.91 73.5859 291.963 73.9961 292.068 74.2773C292.186 74.5469 292.396 74.7344 292.701 74.8398C293.018 74.9453 293.498 75.0098 294.143 75.0332V76H285.934V75.0332C286.66 75.0098 287.164 74.8633 287.445 74.5938C287.738 74.3242 287.885 73.8438 287.885 73.1523V65.084C287.885 64.5801 287.715 64.1113 287.375 63.6777C287.035 63.2441 286.555 62.9219 285.934 62.7109V62.1484L291.189 60.3379H291.91ZM288.465 65.1367V73.4863C288.465 74.166 288.225 74.6816 287.744 75.0332C288.389 75.0332 288.857 74.8867 289.15 74.5938C289.455 74.3008 289.607 73.8203 289.607 73.1523V64.9082C289.607 64.1582 289.426 63.584 289.062 63.1855C288.699 62.7754 288.225 62.5703 287.639 62.5703C287.369 62.5703 287.152 62.582 286.988 62.6055C287.973 63.1211 288.465 63.9648 288.465 65.1367ZM289.748 51.7773C290.193 51.7773 290.609 51.8887 290.996 52.1113C291.383 52.3223 291.688 52.6152 291.91 52.9902C292.133 53.3652 292.244 53.7754 292.244 54.2207C292.244 54.666 292.133 55.082 291.91 55.4688C291.688 55.8438 291.383 56.1426 290.996 56.3652C290.609 56.5879 290.193 56.6992 289.748 56.6992C289.08 56.6992 288.506 56.4531 288.025 55.9609C287.545 55.4688 287.305 54.8887 287.305 54.2207C287.305 53.7871 287.41 53.3828 287.621 53.0078C287.844 52.6211 288.143 52.3223 288.518 52.1113C288.904 51.8887 289.314 51.7773 289.748 51.7773ZM290.047 52.3398C289.355 52.3398 288.822 52.5039 288.447 52.832C288.072 53.1602 287.885 53.6113 287.885 54.1855C287.885 54.7363 288.066 55.1934 288.43 55.5566C288.793 55.9082 289.332 56.1016 290.047 56.1367C289.672 55.7969 289.396 55.498 289.221 55.2402C289.045 54.9707 288.957 54.6309 288.957 54.2207C288.957 53.459 289.32 52.832 290.047 52.3398ZM306.289 60.6367H312.354V61.5332C311.779 61.7793 311.293 62.084 310.895 62.4473C310.496 62.7988 310.156 63.2031 309.875 63.6602C309.605 64.1055 309.307 64.6914 308.979 65.418C308.662 66.1328 308.346 66.9004 308.029 67.7207L303.301 79.7441C302.035 83.0137 300.348 84.6484 298.238 84.6484C297.547 84.6484 296.949 84.4551 296.445 84.0684C295.953 83.6934 295.707 83.2363 295.707 82.6973C295.707 82.2285 295.9 81.8359 296.287 81.5195C296.686 81.2031 297.154 81.0449 297.693 81.0449C297.951 81.0449 298.232 81.1094 298.537 81.2383C298.854 81.3672 299.158 81.4961 299.451 81.625C299.756 81.7656 300.031 81.8359 300.277 81.8359C301.051 81.8359 301.748 81.0332 302.369 79.4277L303.301 76.8965L298.01 64.5918C297.869 64.2285 297.711 63.8594 297.535 63.4844C297.371 63.0977 297.189 62.7637 296.99 62.4824C296.791 62.2012 296.539 61.9785 296.234 61.8145C295.93 61.6387 295.555 61.5449 295.109 61.5332V60.6367H304.25V61.5332C303.523 61.5801 302.967 61.6914 302.58 61.8672C302.205 62.0312 302.018 62.3594 302.018 62.8516C302.018 63.3555 302.182 64.0059 302.51 64.8027L305.428 71.5352L307.625 66.1387C307.918 65.4355 308.064 64.6797 308.064 63.8711C308.064 62.5586 307.473 61.7793 306.289 61.5332V60.6367ZM310.402 61.6035H307.625C307.977 61.8848 308.211 62.1777 308.328 62.4824C308.457 62.7754 308.551 63.2383 308.609 63.8711C308.879 63.2734 309.143 62.8164 309.4 62.5C309.658 62.1719 309.992 61.873 310.402 61.6035ZM303.67 76L304.25 74.5938L299.715 64.082C299.375 63.2852 299.088 62.7168 298.854 62.377C298.631 62.0254 298.361 61.7852 298.045 61.6562C297.74 61.5273 297.336 61.4863 296.832 61.5332C297.301 61.9551 297.617 62.3301 297.781 62.6582C297.957 62.9863 298.227 63.5723 298.59 64.416L303.67 76ZM298.854 84.1035C297.893 83.8809 297.412 83.4238 297.412 82.7324C297.412 82.2988 297.699 81.9414 298.273 81.6602C297.91 81.5547 297.658 81.502 297.518 81.502C297.154 81.502 296.855 81.6133 296.621 81.8359C296.398 82.0703 296.287 82.3457 296.287 82.6621C296.287 83.1309 296.51 83.5059 296.955 83.7871C297.4 84.0684 298.033 84.1738 298.854 84.1035ZM317.82 62.3945C317.82 62.4414 317.896 62.6113 318.049 62.9043C318.201 63.1973 318.277 63.4727 318.277 63.7305C318.277 64.2344 318.066 64.6855 317.645 65.084C317.234 65.4707 316.719 65.6641 316.098 65.6641C315.5 65.6641 315.025 65.5117 314.674 65.207C314.322 64.8906 314.146 64.5273 314.146 64.1172C314.146 63.5078 314.439 62.9102 315.025 62.3242C315.623 61.7383 316.438 61.2637 317.469 60.9004C318.512 60.5254 319.66 60.3379 320.914 60.3379C321.828 60.3379 322.678 60.4961 323.463 60.8125C324.26 61.1289 324.893 61.6094 325.361 62.2539C325.83 62.8984 326.064 63.6777 326.064 64.5918V73.5215C326.064 74.2363 326.27 74.5938 326.68 74.5938C326.926 74.5938 327.225 74.4004 327.576 74.0137L328.227 74.7695C327.652 75.3438 327.119 75.7773 326.627 76.0703C326.146 76.3633 325.572 76.5098 324.904 76.5098C324.131 76.5098 323.527 76.3398 323.094 76C322.66 75.6484 322.355 75.1094 322.18 74.3828C320.562 75.7773 318.963 76.4746 317.381 76.4746C316.256 76.4746 315.359 76.1816 314.691 75.5957C314.035 75.0098 313.707 74.2656 313.707 73.3633C313.707 72.5547 313.906 71.8691 314.305 71.3066C314.715 70.7324 315.248 70.2285 315.904 69.7949C316.572 69.3496 317.551 68.793 318.84 68.125C320.129 67.4453 321.189 66.8652 322.021 66.3848V63.7305C322.021 62.9336 321.84 62.3301 321.477 61.9199C321.113 61.5098 320.568 61.3047 319.842 61.3047C319.209 61.3047 318.711 61.4219 318.348 61.6562C317.996 61.8789 317.82 62.125 317.82 62.3945ZM322.602 64.873V71.8164C322.602 73.1875 322.748 74.2129 323.041 74.8926C323.334 75.5605 323.908 75.8945 324.764 75.8945C325.15 75.8945 325.461 75.8477 325.695 75.7539C324.992 75.6484 324.494 75.3672 324.201 74.9102C323.908 74.4531 323.762 73.7383 323.762 72.7656V64.6973C323.762 63.4785 323.586 62.6406 323.234 62.1836C322.895 61.7148 322.303 61.4336 321.459 61.3398C321.916 61.5742 322.221 61.9141 322.373 62.3594C322.525 62.8047 322.602 63.6426 322.602 64.873ZM322.021 73.2227V67.5801C320.521 68.4238 319.473 69.1855 318.875 69.8652C318.289 70.5449 317.996 71.3652 317.996 72.3262C317.996 72.9707 318.172 73.4688 318.523 73.8203C318.875 74.1719 319.285 74.3477 319.754 74.3477C320.492 74.3477 321.248 73.9727 322.021 73.2227ZM318.928 75.6484C317.861 75.6484 317.006 75.4316 316.361 74.998C315.729 74.5645 315.412 73.9375 315.412 73.1172C315.412 72.5195 315.564 71.957 315.869 71.4297C316.186 70.8906 316.654 70.293 317.275 69.6367C316.326 70.1875 315.588 70.75 315.061 71.3242C314.545 71.8984 314.287 72.5781 314.287 73.3633C314.287 74.0781 314.598 74.6758 315.219 75.1562C315.852 75.625 316.537 75.8594 317.275 75.8594C317.99 75.8594 318.541 75.7891 318.928 75.6484ZM317.275 64.5566C316.854 64.5918 316.531 64.5098 316.309 64.3105C316.086 64.1113 315.975 63.877 315.975 63.6074C315.975 63.2441 316.074 62.9219 316.273 62.6406C316.473 62.3477 316.818 61.9316 317.311 61.3926C316.479 61.8145 315.84 62.2363 315.395 62.6582C314.949 63.0801 314.727 63.5547 314.727 64.082C314.727 64.3164 314.844 64.5391 315.078 64.75C315.324 64.9492 315.611 65.0488 315.939 65.0488C316.502 65.0488 316.947 64.8848 317.275 64.5566ZM339.758 52.709L345.189 50.916H345.91V72.8359C345.91 73.457 346.074 73.8789 346.402 74.1016C346.742 74.3125 347.322 74.418 348.143 74.418V75.3496L341.902 76.4746V74.418C340.203 75.7891 338.48 76.4746 336.734 76.4746C335.762 76.4746 334.854 76.2695 334.01 75.8594C333.166 75.4492 332.439 74.875 331.83 74.1367C331.221 73.3867 330.752 72.5312 330.424 71.5703C330.107 70.5977 329.949 69.5781 329.949 68.5117C329.949 66.9766 330.312 65.582 331.039 64.3281C331.777 63.0742 332.768 62.0957 334.01 61.3926C335.264 60.6895 336.658 60.3379 338.193 60.3379C339.283 60.3379 340.52 60.5898 341.902 61.0938V56.7695C341.902 55.8086 341.779 55.1055 341.533 54.6602C341.299 54.2148 340.707 53.8047 339.758 53.4297V52.709ZM341.146 53.1836H340.549C341.428 53.5703 341.967 53.9922 342.166 54.4492C342.377 54.8945 342.482 55.4922 342.482 56.2422V75.5957C342.869 75.4316 343.15 75.2383 343.326 75.0156C343.514 74.793 343.607 74.459 343.607 74.0137V56.2773C343.607 55.2227 343.449 54.4434 343.133 53.9395C342.816 53.4355 342.154 53.1836 341.146 53.1836ZM341.902 73.1523V62.8516C341.492 62.3594 341.012 61.9785 340.461 61.709C339.922 61.4395 339.371 61.3047 338.809 61.3047C337.977 61.3047 337.209 61.5625 336.506 62.0781C335.803 62.582 335.246 63.3496 334.836 64.3809C334.438 65.4004 334.238 66.6719 334.238 68.1953C334.238 69.4844 334.42 70.6035 334.783 71.5527C335.146 72.4902 335.656 73.2051 336.312 73.6973C336.969 74.1777 337.719 74.418 338.562 74.418C339.77 74.418 340.883 73.9961 341.902 73.1523ZM336.365 61.1641C335.381 61.375 334.555 61.7031 333.887 62.1484C332.867 62.7812 332.053 63.6895 331.443 64.873C330.834 66.0566 330.529 67.3164 330.529 68.6523C330.529 69.9414 330.793 71.1426 331.32 72.2559C331.859 73.3574 332.615 74.2363 333.588 74.8926C334.561 75.5371 335.645 75.8594 336.84 75.8594C337.66 75.8594 338.393 75.7363 339.037 75.4902C338.498 75.5371 338.158 75.5605 338.018 75.5605C337.244 75.5605 336.477 75.4023 335.715 75.0859C334.965 74.7695 334.279 74.3066 333.658 73.6973C333.037 73.0762 332.545 72.3379 332.182 71.4824C331.83 70.627 331.654 69.6953 331.654 68.6875C331.654 65.5586 333.225 63.0508 336.365 61.1641Z" fill="white"/>
</g>
<defs>
<filter id="filter0_d_1_3" x="0.886719" y="0.617188" width="407.664" height="98.0312" filterUnits="userSpaceOnUse" color-interpolation-filters="sRGB">
<feFlood flood-opacity="0" result="BackgroundImageFix"/>
<feColorMatrix in="SourceAlpha" type="matrix" values="0 0 0 0 0 0 0 0 0 0 0 0 0 0 0 0 0 0 127 0" result="hardAlpha"/>
<feOffset dx="2" dy="3"/>
<feGaussianBlur stdDeviation="5.5"/>
<feComposite in2="hardAlpha" operator="out"/>
<feColorMatrix type="matrix" values="0 0 0 0 0.0333333 0 0 0 0 0.0333333 0 0 0 0 0.0333333 0 0 0 0.25 0"/>
<feBlend mode="normal" in2="BackgroundImageFix" result="effect1_dropShadow_1_3"/>
<feBlend mode="normal" in="SourceGraphic" in2="effect1_dropShadow_1_3" result="shape"/>
</filter>
</defs>
</svg>
